<?xml version="1.0" encoding="UTF-8" standalone="no"?><svg xmlns="http://www.w3.org/2000/svg" xmlns:xlink="http://www.w3.org/1999/xlink" contentScriptType="application/ecmascript" contentStyleType="text/css" height="1034px" preserveAspectRatio="none" style="width:295px;height:1034px;" version="1.1" viewBox="0 0 295 1034" width="295px" zoomAndPan="magnify"><defs><filter height="300%" id="f197hkz4d7qpun" width="300%" x="-1" y="-1"><feGaussianBlur result="blurOut" stdDeviation="2.0"/><feColorMatrix in="blurOut" result="blurOut2" type="matrix" values="0 0 0 0 0 0 0 0 0 0 0 0 0 0 0 0 0 0 .4 0"/><feOffset dx="4.0" dy="4.0" in="blurOut2" result="blurOut3"/><feBlend in="SourceGraphic" in2="blurOut3" mode="normal"/></filter></defs><g><text fill="#000000" font-family="sans-serif" font-size="18" lengthAdjust="spacingAndGlyphs" textLength="286" x="2" y="16.708">Secuencia versiones TicTacToe</text><ellipse cx="149" cy="36.9531" fill="#000000" filter="url(#f197hkz4d7qpun)" rx="10" ry="10" style="stroke: none; stroke-width: 1.0;"/><g id="domainModel"><rect fill="#FEFECE" filter="url(#f197hkz4d7qpun)" height="50" rx="12.5" ry="12.5" style="stroke: #A80036; stroke-width: 1.5;" width="116" x="91" y="106.9531"/><line style="stroke: #A80036; stroke-width: 1.5;" x1="91" x2="207" y1="133.25" y2="133.25"/><text fill="#000000" font-family="sans-serif" font-size="14" lengthAdjust="spacingAndGlyphs" textLength="96" x="101" y="124.9482">domainModel</text></g><g id="modelViewController"><rect fill="#FEFECE" filter="url(#f197hkz4d7qpun)" height="50" rx="12.5" ry="12.5" style="stroke: #A80036; stroke-width: 1.5;" width="172" x="63" y="554.9531"/><line style="stroke: #A80036; stroke-width: 1.5;" x1="63" x2="235" y1="581.25" y2="581.25"/><text fill="#000000" font-family="sans-serif" font-size="14" lengthAdjust="spacingAndGlyphs" textLength="152" x="73" y="572.9482">modelViewController</text></g><ellipse cx="149" cy="1012.9531" fill="none" filter="url(#f197hkz4d7qpun)" rx="10" ry="10" style="stroke: #000000; stroke-width: 1.0;"/><ellipse cx="149.5" cy="1013.4531" fill="#000000" rx="6" ry="6" style="stroke: none; stroke-width: 1.0;"/><rect fill="#FEFECE" filter="url(#f197hkz4d7qpun)" height="278.2969" rx="12.5" ry="12.5" style="stroke: #A80036; stroke-width: 1.5;" width="212" x="43" y="216.9531"/><rect fill="#FFFFFF" height="246" rx="12.5" ry="12.5" style="stroke: #FFFFFF; stroke-width: 1.0;" width="206" x="46" y="246.25"/><line style="stroke: #A80036; stroke-width: 1.5;" x1="43" x2="255" y1="243.25" y2="243.25"/><text fill="#000000" font-family="sans-serif" font-size="14" lengthAdjust="spacingAndGlyphs" textLength="107" x="95.5" y="234.9482">documentView</text><g id="documentView.console"><rect fill="#FEFECE" filter="url(#f197hkz4d7qpun)" height="50" rx="12.5" ry="12.5" style="stroke: #A80036; stroke-width: 1.5;" width="75" x="109.5" y="255.25"/><line style="stroke: #A80036; stroke-width: 1.5;" x1="109.5" x2="184.5" y1="281.5469" y2="281.5469"/><text fill="#000000" font-family="sans-serif" font-size="14" lengthAdjust="spacingAndGlyphs" textLength="55" x="119.5" y="273.2451">console</text></g><g id="documentView.withFactoryMethod"><rect fill="#FEFECE" filter="url(#f197hkz4d7qpun)" height="50" rx="12.5" ry="12.5" style="stroke: #A80036; stroke-width: 1.5;" width="160" x="67" y="427.25"/><line style="stroke: #A80036; stroke-width: 1.5;" x1="67" x2="227" y1="453.5469" y2="453.5469"/><text fill="#000000" font-family="sans-serif" font-size="14" lengthAdjust="spacingAndGlyphs" textLength="140" x="77" y="445.2451">withFactoryMethod</text></g><g id="documentView.withoutFactoryMethod"><rect fill="#FEFECE" filter="url(#f197hkz4d7qpun)" height="50" rx="12.5" ry="12.5" style="stroke: #A80036; stroke-width: 1.5;" width="184" x="55" y="341.25"/><line style="stroke: #A80036; stroke-width: 1.5;" x1="55" x2="239" y1="367.5469" y2="367.5469"/><text fill="#000000" font-family="sans-serif" font-size="14" lengthAdjust="spacingAndGlyphs" textLength="164" x="65" y="359.2451">withoutFactoryMethod</text></g><!--MD5=[f6ed7274a3634b57195ebd1d0906dde9]
link console to withoutFactoryMethod--><path d="M147,305.546 C147,315.036 147,326.003 147,335.927 " fill="none" id="console-to-withoutFactoryMethod" style="stroke: #A80036; stroke-width: 1.0;"/><polygon fill="#A80036" points="147,341.008,151,332.008,147,336.008,143,332.008,147,341.008" style="stroke: #A80036; stroke-width: 1.0;"/><!--MD5=[44919ee33113429d6b1c37cc254a4500]
link withoutFactoryMethod to withFactoryMethod--><path d="M147,391.5463 C147,401.0364 147,412.0027 147,421.9269 " fill="none" id="withoutFactoryMethod-to-withFactoryMethod" style="stroke: #A80036; stroke-width: 1.0;"/><polygon fill="#A80036" points="147,427.0083,151,418.0083,147,422.0083,143,418.0083,147,427.0083" style="stroke: #A80036; stroke-width: 1.0;"/><rect fill="#FEFECE" filter="url(#f197hkz4d7qpun)" height="278.2969" rx="12.5" ry="12.5" style="stroke: #A80036; stroke-width: 1.5;" width="195" x="51.5" y="664.9531"/><rect fill="#FFFFFF" height="246" rx="12.5" ry="12.5" style="stroke: #FFFFFF; stroke-width: 1.0;" width="189" x="54.5" y="694.25"/><line style="stroke: #A80036; stroke-width: 1.5;" x1="51.5" x2="246.5" y1="691.25" y2="691.25"/><text fill="#000000" font-family="sans-serif" font-size="14" lengthAdjust="spacingAndGlyphs" textLength="150" x="74" y="682.9482">modelViewPresenter</text><g id="modelViewPresenter.presentationModel"><rect fill="#FEFECE" filter="url(#f197hkz4d7qpun)" height="50" rx="12.5" ry="12.5" style="stroke: #A80036; stroke-width: 1.5;" width="157" x="68.5" y="703.25"/><line style="stroke: #A80036; stroke-width: 1.5;" x1="68.5" x2="225.5" y1="729.5469" y2="729.5469"/><text fill="#000000" font-family="sans-serif" font-size="14" lengthAdjust="spacingAndGlyphs" textLength="137" x="78.5" y="721.2451">presentationModel</text></g><g id="modelViewPresenter.passiveView"><rect fill="#FEFECE" filter="url(#f197hkz4d7qpun)" height="50" rx="12.5" ry="12.5" style="stroke: #A80036; stroke-width: 1.5;" width="107" x="93.5" y="789.25"/><line style="stroke: #A80036; stroke-width: 1.5;" x1="93.5" x2="200.5" y1="815.5469" y2="815.5469"/><text fill="#000000" font-family="sans-serif" font-size="14" lengthAdjust="spacingAndGlyphs" textLength="87" x="103.5" y="807.2451">passiveView</text></g><g id="modelViewPresenter.supervisorController"><rect fill="#FEFECE" filter="url(#f197hkz4d7qpun)" height="50" rx="12.5" ry="12.5" style="stroke: #A80036; stroke-width: 1.5;" width="167" x="63.5" y="875.25"/><line style="stroke: #A80036; stroke-width: 1.5;" x1="63.5" x2="230.5" y1="901.5469" y2="901.5469"/><text fill="#000000" font-family="sans-serif" font-size="14" lengthAdjust="spacingAndGlyphs" textLength="147" x="73.5" y="893.2451">supervisorController</text></g><!--MD5=[1ce7997a6c28ed85eae058120d6fac16]
link presentationModel to passiveView--><path d="M147,753.546 C147,763.036 147,774.003 147,783.927 " fill="none" id="presentationModel-to-passiveView" style="stroke: #A80036; stroke-width: 1.0;"/><polygon fill="#A80036" points="147,789.008,151,780.008,147,784.008,143,780.008,147,789.008" style="stroke: #A80036; stroke-width: 1.0;"/><!--MD5=[6b55b9a0b0fb122ca19c9504d85212cd]
link passiveView to supervisorController--><path d="M147,839.5463 C147,849.0364 147,860.0027 147,869.9269 " fill="none" id="passiveView-to-supervisorController" style="stroke: #A80036; stroke-width: 1.0;"/><polygon fill="#A80036" points="147,875.0083,151,866.0083,147,870.0083,143,866.0083,147,875.0083" style="stroke: #A80036; stroke-width: 1.0;"/><!--MD5=[3df41cb6f1fff3171b7841090fa7c67b]
link *start to domainModel--><path d="M149,47.2101 C149,59.8091 149,82.9341 149,101.6961 " fill="none" id="*start-to-domainModel" style="stroke: #A80036; stroke-width: 1.0;"/><polygon fill="#A80036" points="149,106.8601,153,97.8601,149,101.8601,145,97.8601,149,106.8601" style="stroke: #A80036; stroke-width: 1.0;"/><!--MD5=[0f85b7fe0a31e602b480da6083c2edfa]
link domainModel to documentView--><path d="M149,157.1331 C149,171.3871 149,190.7171 149,211.7351 " fill="none" id="domainModel-to-documentView" style="stroke: #A80036; stroke-width: 1.0;"/><polygon fill="#A80036" points="149,216.8211,153,207.8211,149,211.8211,145,207.8211,149,216.8211" style="stroke: #A80036; stroke-width: 1.0;"/><!--MD5=[6255702a3bd9f1d4acdb947118315a30]
link documentView to modelViewController--><path d="M149,495.0241 C149,515.4421 149,534.5591 149,549.3751 " fill="none" id="documentView-to-modelViewController" style="stroke: #A80036; stroke-width: 1.0;"/><polygon fill="#A80036" points="149,554.6331,153,545.6331,149,549.6331,145,545.6331,149,554.6331" style="stroke: #A80036; stroke-width: 1.0;"/><!--MD5=[094e7d2d8963b0001075af71a590ff02]
link modelViewController to modelViewPresenter--><path d="M149,605.1331 C149,619.3871 149,638.7171 149,659.7351 " fill="none" id="modelViewController-to-modelViewPresenter" style="stroke: #A80036; stroke-width: 1.0;"/><polygon fill="#A80036" points="149,664.8211,153,655.8211,149,659.8211,145,655.8211,149,664.8211" style="stroke: #A80036; stroke-width: 1.0;"/><!--MD5=[a7a2153e5c4e8a952d44dd360498ef7a]
link modelViewPresenter to *end--><path d="M149,943.0251 C149,965.1485 149,984.8909 149,997.5167 " fill="none" id="modelViewPresenter-to-*end" style="stroke: #A80036; stroke-width: 1.0;"/><polygon fill="#A80036" points="149,1002.7999,153,993.7999,149,997.7999,145,993.7999,149,1002.7999" style="stroke: #A80036; stroke-width: 1.0;"/><!--MD5=[a5e531133bf5530163ac7ca6386d57ce]
@startuml
title Secuencia versiones TicTacToe
[*] - -> domainModel
state domainModel
state documentView 
state modelViewController
state modelViewPresenter

domainModel - -> documentView

state documentView {
  state console
  state withFactoryMethod
  state withoutFactoryMethod
  console - -> withoutFactoryMethod
  withoutFactoryMethod - -> withFactoryMethod
}

documentView - -> modelViewController
modelViewController - -> modelViewPresenter

state modelViewPresenter{
state presentationModel
state passiveView
state supervisorController

presentationModel- ->passiveView
passiveView- ->supervisorController
}
modelViewPresenter  - -> [*]
@enduml

PlantUML version 1.2020.20beta4(Unknown compile time)
(GPL source distribution)
Java Runtime: Java(TM) SE Runtime Environment
JVM: Java HotSpot(TM) 64-Bit Server VM
Default Encoding: UTF-8
Language: en
Country: US
--></g></svg>