<?xml version="1.0" encoding="UTF-8" standalone="no"?><svg xmlns="http://www.w3.org/2000/svg" xmlns:xlink="http://www.w3.org/1999/xlink" contentScriptType="application/ecmascript" contentStyleType="text/css" height="500px" preserveAspectRatio="none" style="width:529px;height:500px;" version="1.1" viewBox="0 0 529 500" width="529px" zoomAndPan="magnify"><defs><filter height="300%" id="f1ko09zbv7fa62" width="300%" x="-1" y="-1"><feGaussianBlur result="blurOut" stdDeviation="2.0"/><feColorMatrix in="blurOut" result="blurOut2" type="matrix" values="0 0 0 0 0 0 0 0 0 0 0 0 0 0 0 0 0 0 .4 0"/><feOffset dx="4.0" dy="4.0" in="blurOut2" result="blurOut3"/><feBlend in="SourceGraphic" in2="blurOut3" mode="normal"/></filter></defs><g><g id="State0"><rect fill="#FEFECE" filter="url(#f1ko09zbv7fa62)" height="50" rx="12.5" ry="12.5" style="stroke: #A80036; stroke-width: 1.5;" width="50" x="347" y="87"/><line style="stroke: #A80036; stroke-width: 1.5;" x1="347" x2="397" y1="113.2969" y2="113.2969"/><text fill="#000000" font-family="sans-serif" font-size="14" lengthAdjust="spacingAndGlyphs" textLength="0" x="374" y="104.9951"/></g><g id="State1"><rect fill="#FEFECE" filter="url(#f1ko09zbv7fa62)" height="50" rx="12.5" ry="12.5" style="stroke: #A80036; stroke-width: 1.5;" width="50" x="7" y="214"/><line style="stroke: #A80036; stroke-width: 1.5;" x1="7" x2="57" y1="240.2969" y2="240.2969"/><text fill="#000000" font-family="sans-serif" font-size="14" lengthAdjust="spacingAndGlyphs" textLength="0" x="34" y="231.9951"/></g><g id="State2"><rect fill="#FEFECE" filter="url(#f1ko09zbv7fa62)" height="50" rx="12.5" ry="12.5" style="stroke: #A80036; stroke-width: 1.5;" width="50" x="307" y="341"/><line style="stroke: #A80036; stroke-width: 1.5;" x1="307" x2="357" y1="367.2969" y2="367.2969"/><text fill="#000000" font-family="sans-serif" font-size="14" lengthAdjust="spacingAndGlyphs" textLength="0" x="334" y="358.9951"/></g><ellipse cx="372" cy="16" fill="#000000" filter="url(#f1ko09zbv7fa62)" rx="10" ry="10" style="stroke: none; stroke-width: 1.0;"/><ellipse cx="332" cy="478" fill="none" filter="url(#f1ko09zbv7fa62)" rx="10" ry="10" style="stroke: #000000; stroke-width: 1.0;"/><ellipse cx="332.5" cy="478.5" fill="#000000" rx="6" ry="6" style="stroke: none; stroke-width: 1.0;"/><!--MD5=[6bf52256a5a3d79cde37855053ede169]
link *start to State0--><path d="M372,26.013 C372,38.698 372,62.409 372,81.57 " fill="none" id="*start-to-State0" style="stroke: #A80036; stroke-width: 1.0;"/><polygon fill="#A80036" points="372,86.84,376,77.84,372,81.84,368,77.84,372,86.84" style="stroke: #A80036; stroke-width: 1.0;"/><!--MD5=[a9c2f088fcd292d29c9f53cd9a680591]
link State0 to State1--><path d="M346.999,122.192 C285.719,144.721 128.225,202.623 62.0226,226.962 " fill="none" id="State0-to-State1" style="stroke: #A80036; stroke-width: 1.0;"/><polygon fill="#A80036" points="57.0377,228.795,66.8652,229.4438,61.7306,227.0697,64.1047,221.9351,57.0377,228.795" style="stroke: #A80036; stroke-width: 1.0;"/><text fill="#000000" font-family="sans-serif" font-size="13" lengthAdjust="spacingAndGlyphs" textLength="31" x="224" y="180.0669">Start</text><!--MD5=[dcf63a51bdeb3e817e699e6130214cc7]
link State1 to State1--><path d="M57.2777,235.503 C74.7734,234.444 92,235.609 92,239 C92,242.046 78.0949,243.296 62.5823,242.751 " fill="none" id="State1-to-State1" style="stroke: #A80036; stroke-width: 1.0;"/><polygon fill="#A80036" points="57.2777,242.497,66.0761,246.9229,62.272,242.7361,66.4587,238.932,57.2777,242.497" style="stroke: #A80036; stroke-width: 1.0;"/><text fill="#000000" font-family="sans-serif" font-size="13" lengthAdjust="spacingAndGlyphs" textLength="68" x="98" y="243.5669">Movement</text><!--MD5=[dcf63a51bdeb3e817e699e6130214cc7]
link State1 to State1--><path d="M57.3127,234.202 C101.1691,229.045 172,230.645 172,239 C172,247.045 106.3285,248.827 62.3016,244.344 " fill="none" id="State1-to-State1-1" style="stroke: #A80036; stroke-width: 1.0;"/><polygon fill="#A80036" points="57.3127,243.798,65.8239,248.7538,62.283,244.3422,66.6946,240.8013,57.3127,243.798" style="stroke: #A80036; stroke-width: 1.0;"/><text fill="#000000" font-family="sans-serif" font-size="13" lengthAdjust="spacingAndGlyphs" textLength="102" x="178" y="243.5669">[undoable]Undo</text><!--MD5=[dcf63a51bdeb3e817e699e6130214cc7]
link State1 to State1--><path d="M57.2349,233.644 C127.576,223.773 286,225.559 286,239 C286,252.126 134.915,254.137 62.3228,245.03 " fill="none" id="State1-to-State1-2" style="stroke: #A80036; stroke-width: 1.0;"/><polygon fill="#A80036" points="57.2349,244.356,65.6307,249.5048,62.1915,245.0135,66.6827,241.5742,57.2349,244.356" style="stroke: #A80036; stroke-width: 1.0;"/><text fill="#000000" font-family="sans-serif" font-size="13" lengthAdjust="spacingAndGlyphs" textLength="99" x="292" y="243.5669">[redoable]Redo</text><!--MD5=[dc702cd49c4e27e6abb2620dc4bb28d8]
link State1 to State2--><path d="M57.0618,250.442 C111.988,273.328 242.782,327.826 301.979,352.491 " fill="none" id="State1-to-State2" style="stroke: #A80036; stroke-width: 1.0;"/><polygon fill="#A80036" points="306.799,354.499,300.0293,347.3456,302.1835,352.5762,296.9529,354.7304,306.799,354.499" style="stroke: #A80036; stroke-width: 1.0;"/><text fill="#000000" font-family="sans-serif" font-size="13" lengthAdjust="spacingAndGlyphs" textLength="138" x="201" y="307.0669">[isTicTacToe]Resume</text><!--MD5=[5e39cec6328142e5e49f463209477919]
link State2 to State0--><path d="M357.333,348.895 C382.193,331.431 418.554,301.031 434,264 C451.853,221.197 421.544,171.411 397.353,141.062 " fill="none" id="State2-to-State0" style="stroke: #A80036; stroke-width: 1.0;"/><polygon fill="#A80036" points="394.136,137.094,396.6977,146.6039,397.2852,140.9776,402.9115,141.5652,394.136,137.094" style="stroke: #A80036; stroke-width: 1.0;"/><text fill="#000000" font-family="sans-serif" font-size="13" lengthAdjust="spacingAndGlyphs" textLength="81" x="440" y="243.5669">[isResumed]</text><!--MD5=[37ebb224bae70bf8df0e6bab9d19d55b]
link State2 to *end--><path d="M332,391.14 C332,413.0338 332,444.5738 332,462.7062 " fill="none" id="State2-to-*end" style="stroke: #A80036; stroke-width: 1.0;"/><polygon fill="#A80036" points="332,467.8775,336,458.8775,332,462.8775,328,458.8775,332,467.8775" style="stroke: #A80036; stroke-width: 1.0;"/><text fill="#000000" font-family="sans-serif" font-size="13" lengthAdjust="spacingAndGlyphs" textLength="36" x="333" y="434.0669">[else]</text><!--MD5=[8a50b1ab2fa6504ac13885cab131a91c]
@startuml
state State0 as " "
state State1 as " "
state State2 as " "
[*] - -> State0
State0 - -> State1 : Start
State1 - -> State1 : Movement
State1 - -> State1 : [undoable]Undo
State1 - -> State1 : [redoable]Redo
State1 - -> State2 : [isTicTacToe]Resume
State2 - -> State0 : [isResumed]
State2 - -> [*] : [else]
@enduml

PlantUML version 1.2020.20beta10(Unknown compile time)
(GPL source distribution)
Java Runtime: Java(TM) SE Runtime Environment
JVM: Java HotSpot(TM) 64-Bit Server VM
Default Encoding: UTF-8
Language: en
Country: US
--></g></svg>