<?xml version="1.0" encoding="UTF-8" standalone="no"?><svg xmlns="http://www.w3.org/2000/svg" xmlns:xlink="http://www.w3.org/1999/xlink" contentScriptType="application/ecmascript" contentStyleType="text/css" height="800px" preserveAspectRatio="none" style="width:551px;height:800px;" version="1.1" viewBox="0 0 551 800" width="551px" zoomAndPan="magnify"><defs><filter height="300%" id="f1ut14wi491ilr" width="300%" x="-1" y="-1"><feGaussianBlur result="blurOut" stdDeviation="2.0"/><feColorMatrix in="blurOut" result="blurOut2" type="matrix" values="0 0 0 0 0 0 0 0 0 0 0 0 0 0 0 0 0 0 .4 0"/><feOffset dx="4.0" dy="4.0" in="blurOut2" result="blurOut3"/><feBlend in="SourceGraphic" in2="blurOut3" mode="normal"/></filter></defs><g><g id="A"><rect fill="#FEFECE" filter="url(#f1ut14wi491ilr)" height="50" rx="12.5" ry="12.5" style="stroke:#A80036;stroke-width:1.5;" width="83" x="163.7409" y="87"/><line style="stroke:#A80036;stroke-width:1.5;" x1="163.7409" x2="246.7409" y1="113.2969" y2="113.2969"/><text fill="#000000" font-family="sans-serif" font-size="14" lengthAdjust="spacing" textLength="63" x="173.7409" y="104.9951">IN_GAME</text></g><g id="B"><rect fill="#FEFECE" filter="url(#f1ut14wi491ilr)" height="50" rx="12.5" ry="12.5" style="stroke:#A80036;stroke-width:1.5;" width="50" x="180.2409" y="214"/><line style="stroke:#A80036;stroke-width:1.5;" x1="180.2409" x2="230.2409" y1="240.2969" y2="240.2969"/><text fill="#000000" font-family="sans-serif" font-size="14" lengthAdjust="spacing" textLength="0" x="207.2409" y="231.9951"/></g><g id="C"><rect fill="#FEFECE" filter="url(#f1ut14wi491ilr)" height="50" rx="12.5" ry="12.5" style="stroke:#A80036;stroke-width:1.5;" width="50" x="70.2407" y="641"/><line style="stroke:#A80036;stroke-width:1.5;" x1="70.2407" x2="120.2407" y1="667.2969" y2="667.2969"/><text fill="#000000" font-family="sans-serif" font-size="14" lengthAdjust="spacing" textLength="0" x="97.2407" y="658.9951"/></g><g id="D"><rect fill="#FEFECE" filter="url(#f1ut14wi491ilr)" height="50" rx="12.5" ry="12.5" style="stroke:#A80036;stroke-width:1.5;" width="50" x="23.2407" y="481"/><line style="stroke:#A80036;stroke-width:1.5;" x1="23.2407" x2="73.2407" y1="507.2969" y2="507.2969"/><text fill="#000000" font-family="sans-serif" font-size="14" lengthAdjust="spacing" textLength="0" x="50.2407" y="498.9951"/></g><g id="E"><rect fill="#FEFECE" filter="url(#f1ut14wi491ilr)" height="50" rx="12.5" ry="12.5" style="stroke:#A80036;stroke-width:1.5;" width="50" x="389.2409" y="561"/><line style="stroke:#A80036;stroke-width:1.5;" x1="389.2409" x2="439.2409" y1="587.2969" y2="587.2969"/><text fill="#000000" font-family="sans-serif" font-size="14" lengthAdjust="spacing" textLength="0" x="416.2409" y="578.9951"/></g><polygon fill="#FEFECE" filter="url(#f1ut14wi491ilr)" points="205.2409,341,217.2409,353,205.2409,365,193.2409,353,205.2409,341" style="stroke:#A80036;stroke-width:1.5;"/><ellipse cx="205.2409" cy="16" fill="#000000" filter="url(#f1ut14wi491ilr)" rx="10" ry="10" style="stroke:none;stroke-width:1.0;"/><ellipse cx="262.2409" cy="778" filter="url(#f1ut14wi491ilr)" rx="10" ry="10" style="stroke:#000000;stroke-width:1.0;fill:none;"/><ellipse cx="262.7409" cy="778.5" fill="#000000" rx="6" ry="6" style="stroke:none;stroke-width:1.0;"/><!--MD5=[ba0fdac9700f9825b754e67fda8ee1b2]
link *start to A--><path d="M205.2409,26.013 C205.2409,38.698 205.2409,62.409 205.2409,81.57 " fill="none" id="*start-to-A" style="stroke:#A80036;stroke-width:1.0;"/><polygon fill="#A80036" points="205.2409,86.84,209.2409,77.84,205.2409,81.84,201.2409,77.84,205.2409,86.84" style="stroke:#A80036;stroke-width:1.0;"/><!--MD5=[5e2eec62a50b26b6b0db6c12e4ee289c]
link A to B--><path d="M205.2409,137.101 C205.2409,157.593 205.2409,187.076 205.2409,208.884 " fill="none" id="A-to-B" style="stroke:#A80036;stroke-width:1.0;"/><polygon fill="#A80036" points="205.2409,213.973,209.2409,204.973,205.2409,208.973,201.2409,204.973,205.2409,213.973" style="stroke:#A80036;stroke-width:1.0;"/><text fill="#000000" font-family="sans-serif" font-size="13" lengthAdjust="spacing" textLength="219" x="206.2409" y="180.0669">Current turn player requests Undo</text><!--MD5=[422745d42cbca4f6ecc2b1bb02aec555]
link B to if--><path d="M205.2409,264.027 C205.2409,285.579 205.2409,316.634 205.2409,335.501 " fill="none" id="B-to-if" style="stroke:#A80036;stroke-width:1.0;"/><polygon fill="#A80036" points="205.2409,340.941,209.2409,331.941,205.2409,335.941,201.2409,331.941,205.2409,340.941" style="stroke:#A80036;stroke-width:1.0;"/><text fill="#000000" font-family="sans-serif" font-size="13" lengthAdjust="spacing" textLength="192" x="206.2409" y="307.0669">System shows updated board</text><!--MD5=[f4e621062d4e211fc384cf8c6b6df496]
link if to D--><path d="M198.3639,358.397 C187.4639,365.503 165.7619,380.215 149.2409,395 C120.3849,420.823 90.8202,453.958 71.196,477.082 " fill="none" id="if-to-D" style="stroke:#A80036;stroke-width:1.0;"/><polygon fill="#A80036" points="67.892,480.992,76.7563,476.6996,71.1193,477.173,70.6459,471.536,67.892,480.992" style="stroke:#A80036;stroke-width:1.0;"/><text fill="#000000" font-family="sans-serif" font-size="13" lengthAdjust="spacing" textLength="69" x="225.2409" y="408.0669">[undoable]</text><path d="M154.2409,417.1328 L154.2409,442.1328 L361.2409,442.1328 L361.2409,427.1328 L351.2409,417.1328 L154.2409,417.1328 " fill="#FBFB77" filter="url(#f1ut14wi491ilr)" style="stroke:#A80036;stroke-width:1.0;"/><path d="M351.2409,417.1328 L351.2409,427.1328 L361.2409,427.1328 L351.2409,417.1328 " fill="#FBFB77" style="stroke:#A80036;stroke-width:1.0;"/><text fill="#000000" font-family="sans-serif" font-size="13" lengthAdjust="spacing" textLength="186" x="160.2409" y="434.1997">currentTurnPlayer.Pieces &gt; 0</text><!--MD5=[fbcf4d8b63b0d06d3e3c8b74b14e3ec9]
link if to E--><path d="M215.5789,355.076 C248.7649,358.741 351.7489,371.811 374.2409,395 C416.3289,438.392 419.0789,514.226 416.9519,555.758 " fill="none" id="if-to-E" style="stroke:#A80036;stroke-width:1.0;"/><polygon fill="#A80036" points="416.6549,560.893,421.1701,552.1401,416.9449,555.9014,413.1835,551.6762,416.6549,560.893" style="stroke:#A80036;stroke-width:1.0;"/><!--MD5=[be418e527c743f4eb8fec3865420733b]
link D to C--><path d="M31.7919,531.158 C19.184,552.924 6,585.349 19.2407,611 C28.9451,629.8 48.5529,643.48 65.421,652.367 " fill="none" id="D-to-C" style="stroke:#A80036;stroke-width:1.0;"/><polygon fill="#A80036" points="70.0955,654.746,63.8899,647.0981,65.6398,652.4775,60.2603,654.2274,70.0955,654.746" style="stroke:#A80036;stroke-width:1.0;"/><text fill="#000000" font-family="sans-serif" font-size="13" lengthAdjust="spacing" textLength="351" x="20.2407" y="590.5669">System shows Menu with Play, Undo and Redo options</text><!--MD5=[6a85fad97473f3ca89fe62758889412b]
link C to *end--><path d="M105.2797,691.1791 C112.8144,706.5883 124.5329,725.8681 140.2409,738 C172.9629,763.273 222.5119,772.4075 247.1809,775.5144 " fill="none" id="C-to-*end" style="stroke:#A80036;stroke-width:1.0;"/><polygon fill="#A80036" points="252.3339,776.1203,243.863,771.096,247.3682,775.536,242.9282,779.0412,252.3339,776.1203" style="stroke:#A80036;stroke-width:1.0;"/><text fill="#000000" font-family="sans-serif" font-size="13" lengthAdjust="spacing" textLength="230" x="141.2409" y="734.0669">System allows Play, Undo and Redo</text><!--MD5=[b4ae64609a665d46448790142bade235]
link E to *end--><path d="M414.8739,611.205 C414.4029,644.085 408.6399,702.7905 376.2409,738 C349.9039,766.6207 301.6859,774.2399 277.2649,776.2667 " fill="none" id="E-to-*end" style="stroke:#A80036;stroke-width:1.0;"/><polygon fill="#A80036" points="272.1529,776.6372,281.4185,779.9762,277.1399,776.2758,280.8402,771.9971,272.1529,776.6372" style="stroke:#A80036;stroke-width:1.0;"/><text fill="#000000" font-family="sans-serif" font-size="13" lengthAdjust="spacing" textLength="124" x="416.2409" y="655.5669">System allows Play</text><text fill="#000000" font-family="sans-serif" font-size="13" lengthAdjust="spacing" textLength="130" x="413.2409" y="670.6997">System allows Redo</text><text fill="#000000" font-family="sans-serif" font-size="13" lengthAdjust="spacing" textLength="130" x="413.2409" y="685.8325">System allows Undo</text><!--MD5=[18a84dede02a086b0f18764f7b762ba9]
@startuml
state A as "IN_GAME"
state B as " "
state C as " "
state D as " "
state E as " "
state if <<choice>>

[*] - -> A
A - -> B: Current turn player requests Undo
B - -> if: System shows updated board
if - -> D: [undoable]
note on link
    currentTurnPlayer.Pieces > 0
end note
if - -> E
D - -> C: System shows Menu with Play, Undo and Redo options
C - -> [*]: System allows Play, Undo and Redo
E - -> [*]:  System allows Play\nSystem allows Redo\nSystem allows Undo
@enduml

PlantUML version 1.2021.4beta3(Unknown compile time)
(GPL source distribution)
Java Runtime: Java(TM) SE Runtime Environment
JVM: Java HotSpot(TM) 64-Bit Server VM
Default Encoding: UTF-8
Language: en
Country: US
--></g></svg>