<?xml version="1.0" encoding="UTF-8" standalone="no"?><svg xmlns="http://www.w3.org/2000/svg" xmlns:xlink="http://www.w3.org/1999/xlink" contentScriptType="application/ecmascript" contentStyleType="text/css" height="500px" preserveAspectRatio="none" style="width:270px;height:500px;" version="1.1" viewBox="0 0 270 500" width="270px" zoomAndPan="magnify"><defs><filter height="300%" id="fc11820zcydfr" width="300%" x="-1" y="-1"><feGaussianBlur result="blurOut" stdDeviation="2.0"/><feColorMatrix in="blurOut" result="blurOut2" type="matrix" values="0 0 0 0 0 0 0 0 0 0 0 0 0 0 0 0 0 0 .4 0"/><feOffset dx="4.0" dy="4.0" in="blurOut2" result="blurOut3"/><feBlend in="SourceGraphic" in2="blurOut3" mode="normal"/></filter></defs><g><g id="State0"><rect fill="#FEFECE" filter="url(#fc11820zcydfr)" height="50" rx="12.5" ry="12.5" style="stroke: #A80036; stroke-width: 1.5;" width="50" x="129" y="87"/><line style="stroke: #A80036; stroke-width: 1.5;" x1="129" x2="179" y1="113.2969" y2="113.2969"/><text fill="#000000" font-family="sans-serif" font-size="14" lengthAdjust="spacingAndGlyphs" textLength="0" x="156" y="104.9951"/></g><g id="State1"><rect fill="#FEFECE" filter="url(#fc11820zcydfr)" height="50" rx="12.5" ry="12.5" style="stroke: #A80036; stroke-width: 1.5;" width="50" x="7" y="214"/><line style="stroke: #A80036; stroke-width: 1.5;" x1="7" x2="57" y1="240.2969" y2="240.2969"/><text fill="#000000" font-family="sans-serif" font-size="14" lengthAdjust="spacingAndGlyphs" textLength="0" x="34" y="231.9951"/></g><g id="State2"><rect fill="#FEFECE" filter="url(#fc11820zcydfr)" height="50" rx="12.5" ry="12.5" style="stroke: #A80036; stroke-width: 1.5;" width="50" x="83" y="341"/><line style="stroke: #A80036; stroke-width: 1.5;" x1="83" x2="133" y1="367.2969" y2="367.2969"/><text fill="#000000" font-family="sans-serif" font-size="14" lengthAdjust="spacingAndGlyphs" textLength="0" x="110" y="358.9951"/></g><ellipse cx="154" cy="16" fill="#000000" filter="url(#fc11820zcydfr)" rx="10" ry="10" style="stroke: none; stroke-width: 1.0;"/><ellipse cx="108" cy="478" fill="none" filter="url(#fc11820zcydfr)" rx="10" ry="10" style="stroke: #000000; stroke-width: 1.0;"/><ellipse cx="108.5" cy="478.5" fill="#000000" rx="6" ry="6" style="stroke: none; stroke-width: 1.0;"/><!--MD5=[6bf52256a5a3d79cde37855053ede169]
link *start to State0--><path d="M154,26.013 C154,38.698 154,62.409 154,81.57 " fill="none" id="*start-to-State0" style="stroke: #A80036; stroke-width: 1.0;"/><polygon fill="#A80036" points="154,86.84,158,77.84,154,81.84,150,77.84,154,86.84" style="stroke: #A80036; stroke-width: 1.0;"/><!--MD5=[a9c2f088fcd292d29c9f53cd9a680591]
link State0 to State1--><path d="M130.477,137.101 C110.055,158.025 80.4833,188.324 59.0799,210.254 " fill="none" id="State0-to-State1" style="stroke: #A80036; stroke-width: 1.0;"/><polygon fill="#A80036" points="55.4506,213.973,64.5996,210.3267,58.9432,210.395,58.8748,204.7386,55.4506,213.973" style="stroke: #A80036; stroke-width: 1.0;"/><text fill="#000000" font-family="sans-serif" font-size="13" lengthAdjust="spacingAndGlyphs" textLength="31" x="102" y="180.0669">Start</text><!--MD5=[dcf63a51bdeb3e817e699e6130214cc7]
link State1 to State1--><path d="M57.2777,228.51 C74.7734,225.332 92,228.828 92,239 C92,248.139 78.0949,251.889 62.5823,250.252 " fill="none" id="State1-to-State1" style="stroke: #A80036; stroke-width: 1.0;"/><polygon fill="#A80036" points="57.2777,249.49,65.6176,254.729,62.2269,250.2009,66.755,246.8102,57.2777,249.49" style="stroke: #A80036; stroke-width: 1.0;"/><text fill="#000000" font-family="sans-serif" font-size="13" lengthAdjust="spacingAndGlyphs" textLength="27" x="98" y="243.5669">Play</text><!--MD5=[dc702cd49c4e27e6abb2620dc4bb28d8]
link State1 to State2--><path d="M22.5711,264.051 C18.4907,278.48 16.2133,296.737 24,311 C35.4112,331.902 58.7602,345.92 77.951,354.424 " fill="none" id="State1-to-State2" style="stroke: #A80036; stroke-width: 1.0;"/><polygon fill="#A80036" points="82.7306,356.468,76.0278,349.2519,78.1332,354.5024,72.8827,356.6078,82.7306,356.468" style="stroke: #A80036; stroke-width: 1.0;"/><text fill="#000000" font-family="sans-serif" font-size="13" lengthAdjust="spacingAndGlyphs" textLength="138" x="25" y="307.0669">[isTicTacToe]Resume</text><!--MD5=[5e39cec6328142e5e49f463209477919]
link State2 to State0--><path d="M133.145,349.846 C146.169,340.464 160.816,327.13 168,311 C192.755,255.415 176.701,182.312 164.356,142.301 " fill="none" id="State2-to-State0" style="stroke: #A80036; stroke-width: 1.0;"/><polygon fill="#A80036" points="162.72,137.116,161.6137,146.9025,164.2246,141.8842,169.2429,144.4951,162.72,137.116" style="stroke: #A80036; stroke-width: 1.0;"/><text fill="#000000" font-family="sans-serif" font-size="13" lengthAdjust="spacingAndGlyphs" textLength="81" x="181" y="243.5669">[isResumed]</text><!--MD5=[37ebb224bae70bf8df0e6bab9d19d55b]
link State2 to *end--><path d="M108,391.14 C108,413.0338 108,444.5738 108,462.7062 " fill="none" id="State2-to-*end" style="stroke: #A80036; stroke-width: 1.0;"/><polygon fill="#A80036" points="108,467.8775,112,458.8775,108,462.8775,104,458.8775,108,467.8775" style="stroke: #A80036; stroke-width: 1.0;"/><text fill="#000000" font-family="sans-serif" font-size="13" lengthAdjust="spacingAndGlyphs" textLength="36" x="109" y="434.0669">[else]</text><!--MD5=[9e06b0edb770e049b3e0f2c5d1cc6652]
@startuml
state State0 as " "
state State1 as " "
state State2 as " "
[*] - -> State0
State0 - -> State1 : Start
State1 - -> State1 : Play
State1 - -> State2 : [isTicTacToe]Resume
State2 - -> State0 : [isResumed]
State2 - -> [*] : [else]
@enduml

PlantUML version 1.2020.20beta10(Unknown compile time)
(GPL source distribution)
Java Runtime: Java(TM) SE Runtime Environment
JVM: Java HotSpot(TM) 64-Bit Server VM
Default Encoding: UTF-8
Language: en
Country: US
--></g></svg>