<?xml version="1.0" encoding="UTF-8" standalone="no"?><svg xmlns="http://www.w3.org/2000/svg" xmlns:xlink="http://www.w3.org/1999/xlink" contentScriptType="application/ecmascript" contentStyleType="text/css" height="569px" preserveAspectRatio="none" style="width:1158px;height:569px;" version="1.1" viewBox="0 0 1158 569" width="1158px" zoomAndPan="magnify"><defs><filter height="300%" id="f22fj67z9i8ou" width="300%" x="-1" y="-1"><feGaussianBlur result="blurOut" stdDeviation="2.0"/><feColorMatrix in="blurOut" result="blurOut2" type="matrix" values="0 0 0 0 0 0 0 0 0 0 0 0 0 0 0 0 0 0 .4 0"/><feOffset dx="4.0" dy="4.0" in="blurOut2" result="blurOut3"/><feBlend in="SourceGraphic" in2="blurOut3" mode="normal"/></filter></defs><g><rect fill="#FEFECE" filter="url(#f22fj67z9i8ou)" height="33.9688" style="stroke: #A80036; stroke-width: 1.5;" width="61" x="488.5" y="101"/><text fill="#000000" font-family="sans-serif" font-size="12" lengthAdjust="spacingAndGlyphs" textLength="47" x="495.5" y="114.1387">:Square</text><line style="stroke: #A80036; stroke-width: 1.5;" x1="489.5" x2="548.5" y1="118.9688" y2="118.9688"/><rect fill="#FEFECE" filter="url(#f22fj67z9i8ou)" height="33.9688" style="stroke: #A80036; stroke-width: 1.5;" width="61" x="584.5" y="101"/><text fill="#000000" font-family="sans-serif" font-size="12" lengthAdjust="spacingAndGlyphs" textLength="47" x="591.5" y="114.1387">:Square</text><line style="stroke: #A80036; stroke-width: 1.5;" x1="585.5" x2="644.5" y1="118.9688" y2="118.9688"/><rect fill="#FEFECE" filter="url(#f22fj67z9i8ou)" height="33.9688" style="stroke: #A80036; stroke-width: 1.5;" width="61" x="680.5" y="101"/><text fill="#000000" font-family="sans-serif" font-size="12" lengthAdjust="spacingAndGlyphs" textLength="47" x="687.5" y="114.1387">:Square</text><line style="stroke: #A80036; stroke-width: 1.5;" x1="681.5" x2="740.5" y1="118.9688" y2="118.9688"/><rect fill="#FEFECE" filter="url(#f22fj67z9i8ou)" height="33.9688" style="stroke: #A80036; stroke-width: 1.5;" width="61" x="488.5" y="202.5"/><text fill="#000000" font-family="sans-serif" font-size="12" lengthAdjust="spacingAndGlyphs" textLength="47" x="495.5" y="215.6387">:Square</text><line style="stroke: #A80036; stroke-width: 1.5;" x1="489.5" x2="548.5" y1="220.4688" y2="220.4688"/><rect fill="#FEFECE" filter="url(#f22fj67z9i8ou)" height="33.9688" style="stroke: #A80036; stroke-width: 1.5;" width="61" x="584.5" y="202.5"/><text fill="#000000" font-family="sans-serif" font-size="12" lengthAdjust="spacingAndGlyphs" textLength="47" x="591.5" y="215.6387">:Square</text><line style="stroke: #A80036; stroke-width: 1.5;" x1="585.5" x2="644.5" y1="220.4688" y2="220.4688"/><rect fill="#FEFECE" filter="url(#f22fj67z9i8ou)" height="33.9688" style="stroke: #A80036; stroke-width: 1.5;" width="61" x="680.5" y="202.5"/><text fill="#000000" font-family="sans-serif" font-size="12" lengthAdjust="spacingAndGlyphs" textLength="47" x="687.5" y="215.6387">:Square</text><line style="stroke: #A80036; stroke-width: 1.5;" x1="681.5" x2="740.5" y1="220.4688" y2="220.4688"/><rect fill="#FEFECE" filter="url(#f22fj67z9i8ou)" height="33.9688" style="stroke: #A80036; stroke-width: 1.5;" width="61" x="488.5" y="311.5"/><text fill="#000000" font-family="sans-serif" font-size="12" lengthAdjust="spacingAndGlyphs" textLength="47" x="495.5" y="324.6387">:Square</text><line style="stroke: #A80036; stroke-width: 1.5;" x1="489.5" x2="548.5" y1="329.4688" y2="329.4688"/><rect fill="#FEFECE" filter="url(#f22fj67z9i8ou)" height="33.9688" style="stroke: #A80036; stroke-width: 1.5;" width="61" x="680.5" y="311.5"/><text fill="#000000" font-family="sans-serif" font-size="12" lengthAdjust="spacingAndGlyphs" textLength="47" x="687.5" y="324.6387">:Square</text><line style="stroke: #A80036; stroke-width: 1.5;" x1="681.5" x2="740.5" y1="329.4688" y2="329.4688"/><rect fill="#FEFECE" filter="url(#f22fj67z9i8ou)" height="33.9688" style="stroke: #A80036; stroke-width: 1.5;" width="61" x="584.5" y="311.5"/><text fill="#000000" font-family="sans-serif" font-size="12" lengthAdjust="spacingAndGlyphs" textLength="47" x="591.5" y="324.6387">:Square</text><line style="stroke: #A80036; stroke-width: 1.5;" x1="585.5" x2="644.5" y1="329.4688" y2="329.4688"/><rect fill="#FEFECE" filter="url(#f22fj67z9i8ou)" height="49.25" style="stroke: #A80036; stroke-width: 1.5;" width="84" x="131" y="195"/><text fill="#000000" font-family="sans-serif" font-size="12" lengthAdjust="spacingAndGlyphs" textLength="70" x="138" y="208.1387">:Coordinate</text><line style="stroke: #A80036; stroke-width: 1.5;" x1="132" x2="214" y1="212.9688" y2="212.9688"/><text fill="#000000" font-family="sans-serif" font-size="10" lengthAdjust="spacingAndGlyphs" textLength="40" x="137" y="226.251">row = 1</text><text fill="#000000" font-family="sans-serif" font-size="10" lengthAdjust="spacingAndGlyphs" textLength="62" x="137" y="237.8916">column = 1</text><rect fill="#FEFECE" filter="url(#f22fj67z9i8ou)" height="49.25" style="stroke: #A80036; stroke-width: 1.5;" width="84" x="250" y="195"/><text fill="#000000" font-family="sans-serif" font-size="12" lengthAdjust="spacingAndGlyphs" textLength="70" x="257" y="208.1387">:Coordinate</text><line style="stroke: #A80036; stroke-width: 1.5;" x1="251" x2="333" y1="212.9688" y2="212.9688"/><text fill="#000000" font-family="sans-serif" font-size="10" lengthAdjust="spacingAndGlyphs" textLength="40" x="256" y="226.251">row = 1</text><text fill="#000000" font-family="sans-serif" font-size="10" lengthAdjust="spacingAndGlyphs" textLength="61" x="256" y="237.8916">column = 2</text><rect fill="#FEFECE" filter="url(#f22fj67z9i8ou)" height="49.25" style="stroke: #A80036; stroke-width: 1.5;" width="84" x="369" y="195"/><text fill="#000000" font-family="sans-serif" font-size="12" lengthAdjust="spacingAndGlyphs" textLength="70" x="376" y="208.1387">:Coordinate</text><line style="stroke: #A80036; stroke-width: 1.5;" x1="370" x2="452" y1="212.9688" y2="212.9688"/><text fill="#000000" font-family="sans-serif" font-size="10" lengthAdjust="spacingAndGlyphs" textLength="40" x="375" y="226.251">row = 1</text><text fill="#000000" font-family="sans-serif" font-size="10" lengthAdjust="spacingAndGlyphs" textLength="62" x="375" y="237.8916">column = 3</text><rect fill="#FEFECE" filter="url(#f22fj67z9i8ou)" height="49.25" style="stroke: #A80036; stroke-width: 1.5;" width="84" x="46" y="304"/><text fill="#000000" font-family="sans-serif" font-size="12" lengthAdjust="spacingAndGlyphs" textLength="70" x="53" y="317.1387">:Coordinate</text><line style="stroke: #A80036; stroke-width: 1.5;" x1="47" x2="129" y1="321.9688" y2="321.9688"/><text fill="#000000" font-family="sans-serif" font-size="10" lengthAdjust="spacingAndGlyphs" textLength="39" x="52" y="335.251">row = 2</text><text fill="#000000" font-family="sans-serif" font-size="10" lengthAdjust="spacingAndGlyphs" textLength="62" x="52" y="346.8916">column = 1</text><rect fill="#FEFECE" filter="url(#f22fj67z9i8ou)" height="49.25" style="stroke: #A80036; stroke-width: 1.5;" width="84" x="250" y="304"/><text fill="#000000" font-family="sans-serif" font-size="12" lengthAdjust="spacingAndGlyphs" textLength="70" x="257" y="317.1387">:Coordinate</text><line style="stroke: #A80036; stroke-width: 1.5;" x1="251" x2="333" y1="321.9688" y2="321.9688"/><text fill="#000000" font-family="sans-serif" font-size="10" lengthAdjust="spacingAndGlyphs" textLength="39" x="256" y="335.251">row = 2</text><text fill="#000000" font-family="sans-serif" font-size="10" lengthAdjust="spacingAndGlyphs" textLength="61" x="256" y="346.8916">column = 2</text><rect fill="#FEFECE" filter="url(#f22fj67z9i8ou)" height="49.25" style="stroke: #A80036; stroke-width: 1.5;" width="84" x="369" y="304"/><text fill="#000000" font-family="sans-serif" font-size="12" lengthAdjust="spacingAndGlyphs" textLength="70" x="376" y="317.1387">:Coordinate</text><line style="stroke: #A80036; stroke-width: 1.5;" x1="370" x2="452" y1="321.9688" y2="321.9688"/><text fill="#000000" font-family="sans-serif" font-size="10" lengthAdjust="spacingAndGlyphs" textLength="39" x="375" y="335.251">row = 2</text><text fill="#000000" font-family="sans-serif" font-size="10" lengthAdjust="spacingAndGlyphs" textLength="62" x="375" y="346.8916">column = 3</text><rect fill="#FEFECE" filter="url(#f22fj67z9i8ou)" height="49.25" style="stroke: #A80036; stroke-width: 1.5;" width="84" x="318" y="413"/><text fill="#000000" font-family="sans-serif" font-size="12" lengthAdjust="spacingAndGlyphs" textLength="70" x="325" y="426.1387">:Coordinate</text><line style="stroke: #A80036; stroke-width: 1.5;" x1="319" x2="401" y1="430.9688" y2="430.9688"/><text fill="#000000" font-family="sans-serif" font-size="10" lengthAdjust="spacingAndGlyphs" textLength="40" x="324" y="444.251">row = 3</text><text fill="#000000" font-family="sans-serif" font-size="10" lengthAdjust="spacingAndGlyphs" textLength="62" x="324" y="455.8916">column = 1</text><rect fill="#FEFECE" filter="url(#f22fj67z9i8ou)" height="49.25" style="stroke: #A80036; stroke-width: 1.5;" width="84" x="726" y="413"/><text fill="#000000" font-family="sans-serif" font-size="12" lengthAdjust="spacingAndGlyphs" textLength="70" x="733" y="426.1387">:Coordinate</text><line style="stroke: #A80036; stroke-width: 1.5;" x1="727" x2="809" y1="430.9688" y2="430.9688"/><text fill="#000000" font-family="sans-serif" font-size="10" lengthAdjust="spacingAndGlyphs" textLength="40" x="732" y="444.251">row = 3</text><text fill="#000000" font-family="sans-serif" font-size="10" lengthAdjust="spacingAndGlyphs" textLength="61" x="732" y="455.8916">column = 2</text><rect fill="#FEFECE" filter="url(#f22fj67z9i8ou)" height="49.25" style="stroke: #A80036; stroke-width: 1.5;" width="84" x="522" y="413"/><text fill="#000000" font-family="sans-serif" font-size="12" lengthAdjust="spacingAndGlyphs" textLength="70" x="529" y="426.1387">:Coordinate</text><line style="stroke: #A80036; stroke-width: 1.5;" x1="523" x2="605" y1="430.9688" y2="430.9688"/><text fill="#000000" font-family="sans-serif" font-size="10" lengthAdjust="spacingAndGlyphs" textLength="40" x="528" y="444.251">row = 3</text><text fill="#000000" font-family="sans-serif" font-size="10" lengthAdjust="spacingAndGlyphs" textLength="62" x="528" y="455.8916">column = 3</text><rect fill="#FEFECE" filter="url(#f22fj67z9i8ou)" height="33.9688" style="stroke: #A80036; stroke-width: 1.5;" width="54" x="839" y="7"/><text fill="#000000" font-family="sans-serif" font-size="12" lengthAdjust="spacingAndGlyphs" textLength="40" x="846" y="20.1387">:Board</text><line style="stroke: #A80036; stroke-width: 1.5;" x1="840" x2="892" y1="24.9688" y2="24.9688"/><rect fill="#FEFECE" filter="url(#f22fj67z9i8ou)" height="33.9688" style="stroke: #A80036; stroke-width: 1.5;" width="50" x="437" y="420.5"/><text fill="#000000" font-family="sans-serif" font-size="12" lengthAdjust="spacingAndGlyphs" textLength="36" x="444" y="433.6387">:Piece</text><line style="stroke: #A80036; stroke-width: 1.5;" x1="438" x2="486" y1="438.4688" y2="438.4688"/><rect fill="#FEFECE" filter="url(#f22fj67z9i8ou)" height="33.9688" style="stroke: #A80036; stroke-width: 1.5;" width="50" x="845" y="420.5"/><text fill="#000000" font-family="sans-serif" font-size="12" lengthAdjust="spacingAndGlyphs" textLength="36" x="852" y="433.6387">:Piece</text><line style="stroke: #A80036; stroke-width: 1.5;" x1="846" x2="894" y1="438.4688" y2="438.4688"/><rect fill="#FEFECE" filter="url(#f22fj67z9i8ou)" height="33.9688" style="stroke: #A80036; stroke-width: 1.5;" width="50" x="641" y="420.5"/><text fill="#000000" font-family="sans-serif" font-size="12" lengthAdjust="spacingAndGlyphs" textLength="36" x="648" y="433.6387">:Piece</text><line style="stroke: #A80036; stroke-width: 1.5;" x1="642" x2="690" y1="438.4688" y2="438.4688"/><rect fill="#FEFECE" filter="url(#f22fj67z9i8ou)" height="33.9688" style="stroke: #A80036; stroke-width: 1.5;" width="26" x="653" y="522"/><text fill="#000000" font-family="sans-serif" font-size="12" lengthAdjust="spacingAndGlyphs" textLength="12" x="660" y="535.1387">:X</text><line style="stroke: #A80036; stroke-width: 1.5;" x1="654" x2="678" y1="539.9688" y2="539.9688"/><rect fill="#FEFECE" filter="url(#f22fj67z9i8ou)" height="33.9688" style="stroke: #A80036; stroke-width: 1.5;" width="50" x="7" y="202.5"/><text fill="#000000" font-family="sans-serif" font-size="12" lengthAdjust="spacingAndGlyphs" textLength="36" x="14" y="215.6387">:Piece</text><line style="stroke: #A80036; stroke-width: 1.5;" x1="8" x2="56" y1="220.4688" y2="220.4688"/><rect fill="#FEFECE" filter="url(#f22fj67z9i8ou)" height="33.9688" style="stroke: #A80036; stroke-width: 1.5;" width="50" x="165" y="311.5"/><text fill="#000000" font-family="sans-serif" font-size="12" lengthAdjust="spacingAndGlyphs" textLength="36" x="172" y="324.6387">:Piece</text><line style="stroke: #A80036; stroke-width: 1.5;" x1="166" x2="214" y1="329.4688" y2="329.4688"/><rect fill="#FEFECE" filter="url(#f22fj67z9i8ou)" height="33.9688" style="stroke: #A80036; stroke-width: 1.5;" width="28" x="78" y="420.5"/><text fill="#000000" font-family="sans-serif" font-size="12" lengthAdjust="spacingAndGlyphs" textLength="14" x="85" y="433.6387">:O</text><line style="stroke: #A80036; stroke-width: 1.5;" x1="79" x2="105" y1="438.4688" y2="438.4688"/><!--MD5=[b05122aa053d47b32989bc17f6af2c2f]
link Piece1 to X--><path codeLine="63" d="M497.7047,458.6918 C497.7047,458.6918 502.281,461.1174 504,462 C551.637,486.4616 608.571,512.4386 640.684,526.7997 " fill="none" id="Piece1-X" style="stroke: #A80036; stroke-width: 1.0;"/><polygon fill="#A80036" points="652.827,532.205,646.2317,524.8905,648.2592,530.1715,642.9781,532.199,652.827,532.205" style="stroke: #A80036; stroke-width: 1.0;"/><line style="stroke: #A80036; stroke-width: 1.0;" x1="648.2592" x2="640.9505" y1="530.1715" y2="526.9185"/><polygon fill="#A80036" points="487.161,452.962,490.5229,459.3415,497.7047,458.6918,494.3428,452.3123,487.161,452.962" style="stroke: #A80036; stroke-width: 1.0;"/><!--MD5=[55dbc2e5d29490a8f245fd86056aa9fa]
link Piece2 to X--><path codeLine="64" d="M834.0822,458.3234 C834.0822,458.3234 828.981,460.9922 827,462 C779.512,486.1581 722.98,512.2403 691.114,526.7026 " fill="none" id="Piece2-X" style="stroke: #A80036; stroke-width: 1.0;"/><polygon fill="#A80036" points="679.065,532.1498,688.9137,532.0868,683.621,530.0899,685.6178,524.7972,679.065,532.1498" style="stroke: #A80036; stroke-width: 1.0;"/><line style="stroke: #A80036; stroke-width: 1.0;" x1="683.621" x2="690.9105" y1="530.0899" y2="526.7942"/><polygon fill="#A80036" points="844.666,452.668,837.489,451.9678,834.0822,458.3234,841.2593,459.0236,844.666,452.668" style="stroke: #A80036; stroke-width: 1.0;"/><!--MD5=[fb5d3faaec123a4398c489648376a2be]
link Piece3 to X--><path codeLine="65" d="M666,466.93 C666,466.93 666,495.7633 666,508.5694 " fill="none" id="Piece3-X" style="stroke: #A80036; stroke-width: 1.0;"/><polygon fill="#A80036" points="666,521.8753,670,512.8753,666,516.8753,662,512.8753,666,521.8753" style="stroke: #A80036; stroke-width: 1.0;"/><line style="stroke: #A80036; stroke-width: 1.0;" x1="666" x2="666" y1="516.8753" y2="508.8754"/><polygon fill="#A80036" points="666,454.93,662,460.93,666,466.93,670,460.93,666,454.93" style="stroke: #A80036; stroke-width: 1.0;"/><!--MD5=[a30e751f6120dc755217f8a8cb3facd9]
link Piece1b to O--><path codeLine="72" d="M24.8343,248.6026 C24.8343,248.6026 12.3025,330.341 28,369.5 C35.9651,389.37 52.9438,406.687 67.4125,418.736 " fill="none" id="Piece1b-O" style="stroke: #A80036; stroke-width: 1.0;"/><polygon fill="#A80036" points="77.7967,426.878,73.1824,418.177,73.862,423.7928,68.2461,424.4725,77.7967,426.878" style="stroke: #A80036; stroke-width: 1.0;"/><line style="stroke: #A80036; stroke-width: 1.0;" x1="73.862" x2="67.5665" y1="423.7928" y2="418.8565"/><polygon fill="#A80036" points="27.4717,236.896,22.2508,241.8702,24.8343,248.6026,30.0552,243.6284,27.4717,236.896" style="stroke: #A80036; stroke-width: 1.0;"/><!--MD5=[6558dc9c32954fa4c94633f680221aad]
link Piece2b to O--><path codeLine="73" d="M167.0114,354.6006 C167.0114,354.6006 130.382,394.593 114.959,411.432 " fill="none" id="Piece2b-O" style="stroke: #A80036; stroke-width: 1.0;"/><polygon fill="#A80036" points="106.0687,421.139,115.0976,417.2047,109.4462,417.4522,109.1987,411.8007,106.0687,421.139" style="stroke: #A80036; stroke-width: 1.0;"/><line style="stroke: #A80036; stroke-width: 1.0;" x1="109.4462" x2="114.849" y1="417.4522" y2="411.5525"/><polygon fill="#A80036" points="175.116,345.751,168.1138,347.4743,167.0114,354.6006,174.0136,352.8773,175.116,345.751" style="stroke: #A80036; stroke-width: 1.0;"/><!--MD5=[9f00f453158db019cc737f926bf9b344]
link Board to Square11--><path codeLine="76" d="M838.625,25.109 C784.281,26.302 660.002,33.957 567,77 C556.34,81.933 546.111,89.85 537.854,97.343 " fill="none" id="Board-to-Square11" style="stroke: #A80036; stroke-width: 1.0;"/><polygon fill="#A80036" points="533.967,100.972,543.2754,97.7542,537.6218,97.56,537.8161,91.9064,533.967,100.972" style="stroke: #A80036; stroke-width: 1.0;"/><!--MD5=[265f7b6f317decc132767c5f623ca0bc]
link Board to Square12--><path codeLine="77" d="M838.7,28.099 C798.404,33.512 721.465,47.099 663,77 C652.708,82.263 642.668,90.076 634.452,97.403 " fill="none" id="Board-to-Square12" style="stroke: #A80036; stroke-width: 1.0;"/><polygon fill="#A80036" points="630.573,100.948,639.916,97.8321,634.2649,97.5761,634.521,91.9251,630.573,100.948" style="stroke: #A80036; stroke-width: 1.0;"/><!--MD5=[a41aa9ba3b884d8d882a9db495d28b5f]
link Board to Square13--><path codeLine="78" d="M838.786,38.556 C819.088,48.616 791.998,62.966 769,77 C758.402,83.467 747.09,91.094 737.297,97.945 " fill="none" id="Board-to-Square13" style="stroke: #A80036; stroke-width: 1.0;"/><polygon fill="#A80036" points="733.199,100.827,742.8615,98.9204,737.2885,97.9502,738.2587,92.3772,733.199,100.827" style="stroke: #A80036; stroke-width: 1.0;"/><!--MD5=[2a48127550db072d047e28db107daefc]
link Board to Square21--><path codeLine="79" d="M850.744,41.095 C822.511,70.822 764.476,131.635 759,135 C682.831,181.81 650.056,161.915 567,195 C562.822,196.664 558.506,198.541 554.253,200.489 " fill="none" id="Board-to-Square21" style="stroke: #A80036; stroke-width: 1.0;"/><polygon fill="#A80036" points="549.673,202.626,559.5202,202.4454,554.2041,200.5119,556.1376,195.1957,549.673,202.626" style="stroke: #A80036; stroke-width: 1.0;"/><!--MD5=[ad753e41380b62aa8c2dbe48e4770887]
link Board to Square22--><path codeLine="80" d="M863.562,41.079 C859.164,64.736 847.741,108.929 821,135 C767.216,187.436 731.916,165.12 663,195 C658.811,196.816 654.46,198.802 650.163,200.826 " fill="none" id="Board-to-Square22" style="stroke: #A80036; stroke-width: 1.0;"/><polygon fill="#A80036" points="645.531,203.03,655.3765,202.774,650.0457,200.8812,651.9385,195.5504,645.531,203.03" style="stroke: #A80036; stroke-width: 1.0;"/><!--MD5=[7da35c0c2c3faed87a2d1aaa1ed6e28c]
link Board to Square23--><path codeLine="81" d="M877.014,41.219 C890.903,63.891 910.828,105.579 892,135 C860.004,184.998 789.626,205.482 746.665,213.557 " fill="none" id="Board-to-Square23" style="stroke: #A80036; stroke-width: 1.0;"/><polygon fill="#A80036" points="741.566,214.481,751.1349,216.8124,746.4859,213.5896,749.7087,208.9405,741.566,214.481" style="stroke: #A80036; stroke-width: 1.0;"/><!--MD5=[5070af6906697e6c9c700f9ddd6704a8]
link Board to Square31--><path codeLine="82" d="M891.233,41.078 C902.934,50.068 915.636,62.406 922,77 C932.304,100.629 934.147,112.264 922,135 C839.655,289.126 729.338,239.333 567,304 C562.822,305.664 558.506,307.541 554.253,309.489 " fill="none" id="Board-to-Square31" style="stroke: #A80036; stroke-width: 1.0;"/><polygon fill="#A80036" points="549.673,311.626,559.5202,311.4454,554.2041,309.5119,556.1376,304.1957,549.673,311.626" style="stroke: #A80036; stroke-width: 1.0;"/><!--MD5=[1a6312cdfa05f693b263f27f42f20b15]
link Board to Square32--><path codeLine="83" d="M893.183,26.757 C950.076,31.061 1078.62,44.266 1105,77 C1151.57,134.793 1151.73,186.333 1105,244 C1059.95,299.596 835.089,319.667 746.731,325.481 " fill="none" id="Board-to-Square32" style="stroke: #A80036; stroke-width: 1.0;"/><polygon fill="#A80036" points="741.616,325.811,750.8555,329.2216,746.6056,325.4882,750.339,321.2383,741.616,325.811" style="stroke: #A80036; stroke-width: 1.0;"/><!--MD5=[981ae21fb6fdb24b10d83f99158e49a7]
link Board to Square33--><path codeLine="84" d="M893.005,24.332 C931.579,25.028 1001.387,32.766 1034,77 C1078.05,136.74 1082.11,187.483 1034,244 C979.864,307.594 742.59,278.697 663,304 C658.358,305.476 653.601,307.335 648.971,309.357 " fill="none" id="Board-to-Square33" style="stroke: #A80036; stroke-width: 1.0;"/><polygon fill="#A80036" points="644.394,311.427,654.2427,311.3647,648.9501,309.3675,650.9474,304.0749,644.394,311.427" style="stroke: #A80036; stroke-width: 1.0;"/><!--MD5=[094fd51dec5cb6758b0902982cbf7950]
link Square11 to Coordinate11--><path codeLine="86" d="M476.7907,128.4975 C476.7907,128.4975 317.186,166.869 232,195 C230.554,195.478 229.092,195.972 227.62,196.48 " fill="none" id="Square11-Coordinate11" style="stroke: #A80036; stroke-width: 1.0;"/><polygon fill="#A80036" points="215.315,200.94,225.1394,201.6335,220.0157,199.2361,222.4132,194.1124,215.315,200.94" style="stroke: #A80036; stroke-width: 1.0;"/><line style="stroke: #A80036; stroke-width: 1.0;" x1="220.0157" x2="227.5365" y1="199.2361" y2="196.5105"/><polygon fill="#A80036" points="488.485,125.806,481.7407,123.2536,476.7907,128.4975,483.535,131.0498,488.485,125.806" style="stroke: #A80036; stroke-width: 1.0;"/><!--MD5=[ab27c5eee5da0929e420fc712adbbb26]
link Square12 to Coordinate12--><path codeLine="87" d="M572.924,133.1513 C572.924,133.1513 568.583,134.517 567,135 C471.708,164.096 445.419,163.186 351,195 C349.443,195.525 347.866,196.068 346.279,196.626 " fill="none" id="Square12-Coordinate12" style="stroke: #A80036; stroke-width: 1.0;"/><polygon fill="#A80036" points="334.014,201.125,343.841,201.781,338.7082,199.4031,341.086,194.2703,334.014,201.125" style="stroke: #A80036; stroke-width: 1.0;"/><line style="stroke: #A80036; stroke-width: 1.0;" x1="338.7082" x2="346.219" y1="199.4031" y2="196.648"/><polygon fill="#A80036" points="584.347,129.475,577.4101,127.5055,572.924,133.1513,579.8609,135.1208,584.347,129.475" style="stroke: #A80036; stroke-width: 1.0;"/><!--MD5=[ce6232b1a7de4998175bff455bbfb9fd]
link Square13 to Coordinate13--><path codeLine="88" d="M668.9008,133.0775 C668.9008,133.0775 664.575,134.49 663,135 C578.346,162.403 556.002,165.658 472,195 C469.901,195.733 467.765,196.492 465.612,197.268 " fill="none" id="Square13-Coordinate13" style="stroke: #A80036; stroke-width: 1.0;"/><polygon fill="#A80036" points="453.203,201.843,463.0311,202.4826,457.8943,200.1133,460.2636,194.9765,453.203,201.843" style="stroke: #A80036; stroke-width: 1.0;"/><line style="stroke: #A80036; stroke-width: 1.0;" x1="457.8943" x2="465.401" y1="200.1133" y2="197.346"/><polygon fill="#A80036" points="680.298,129.322,673.3476,127.4007,668.9008,133.0775,675.8513,134.9988,680.298,129.322" style="stroke: #A80036; stroke-width: 1.0;"/><!--MD5=[5852f88f6dddd41b26308efcb764cc54]
link Square21 to Coordinate21--><path codeLine="89" d="M477.6083,241.225 C477.6083,241.225 472.127,243.306 470,244 C331.192,289.296 287.27,263.459 147,304 C145.537,304.423 144.06,304.868 142.575,305.333 " fill="none" id="Square21-Coordinate21" style="stroke: #A80036; stroke-width: 1.0;"/><polygon fill="#A80036" points="130.193,309.548,140.0018,310.435,134.9264,307.9371,137.4243,302.8616,130.193,309.548" style="stroke: #A80036; stroke-width: 1.0;"/><line style="stroke: #A80036; stroke-width: 1.0;" x1="134.9264" x2="142.5" y1="307.9371" y2="305.3585"/><polygon fill="#A80036" points="488.667,236.566,481.5847,235.2093,477.6083,241.225,484.6907,242.5817,488.667,236.566" style="stroke: #A80036; stroke-width: 1.0;"/><!--MD5=[2f77f89dd4fd8aa9197ae7bcfe08a3d1]
link Square22 to Coordinate22--><path codeLine="90" d="M573.4203,241.3987 C573.4203,241.3987 568.789,243.32 567,244 C473.862,279.389 445.419,272.186 351,304 C349.443,304.525 347.866,305.068 346.279,305.626 " fill="none" id="Square22-Coordinate22" style="stroke: #A80036; stroke-width: 1.0;"/><polygon fill="#A80036" points="334.014,310.125,343.841,310.781,338.7082,308.4031,341.086,303.2703,334.014,310.125" style="stroke: #A80036; stroke-width: 1.0;"/><line style="stroke: #A80036; stroke-width: 1.0;" x1="338.7082" x2="346.219" y1="308.4031" y2="305.648"/><polygon fill="#A80036" points="584.386,236.525,577.2786,235.3066,573.4203,241.3987,580.5277,242.6171,584.386,236.525" style="stroke: #A80036; stroke-width: 1.0;"/><!--MD5=[b02370306a447e34a2c7b78048065bbb]
link Square23 to Coordinate23--><path codeLine="91" d="M669.3924,241.3144 C669.3924,241.3144 664.777,243.29 663,244 C580.363,276.99 556.002,274.658 472,304 C469.901,304.733 467.765,305.492 465.612,306.268 " fill="none" id="Square23-Coordinate23" style="stroke: #A80036; stroke-width: 1.0;"/><polygon fill="#A80036" points="453.203,310.843,463.0311,311.4826,457.8943,309.1133,460.2636,303.9765,453.203,310.843" style="stroke: #A80036; stroke-width: 1.0;"/><line style="stroke: #A80036; stroke-width: 1.0;" x1="457.8943" x2="465.401" y1="309.1133" y2="306.346"/><polygon fill="#A80036" points="680.325,236.367,673.2095,235.1965,669.3924,241.3144,676.5078,242.4849,680.325,236.367" style="stroke: #A80036; stroke-width: 1.0;"/><!--MD5=[dc01c2d16fcb2427f6a9a7949a207b43]
link Square31 to Coordinate31--><path codeLine="92" d="M491.133,353.3331 C491.133,353.3331 476.661,364.786 470,369.5 C451.947,382.275 431.424,395.18 413.034,406.207 " fill="none" id="Square31-Coordinate31" style="stroke: #A80036; stroke-width: 1.0;"/><polygon fill="#A80036" points="401.604,412.987,411.3852,411.835,405.9042,410.4358,407.3033,404.9547,401.604,412.987" style="stroke: #A80036; stroke-width: 1.0;"/><line style="stroke: #A80036; stroke-width: 1.0;" x1="405.9042" x2="412.7855" y1="410.4358" y2="406.355"/><polygon fill="#A80036" points="500.394,345.702,493.2198,346.4306,491.133,353.3331,498.3072,352.6046,500.394,345.702" style="stroke: #A80036; stroke-width: 1.0;"/><!--MD5=[ddc094be38da63e3fb056f9a1ab43589]
link Square32 to Coordinate32--><path codeLine="93" d="M725.2992,356.3418 C725.2992,356.3418 741.548,386.844 749.121,401.06 " fill="none" id="Square32-Coordinate32" style="stroke: #A80036; stroke-width: 1.0;"/><polygon fill="#A80036" points="755.448,412.938,754.7476,403.1141,753.0975,408.5249,747.6867,406.8749,755.448,412.938" style="stroke: #A80036; stroke-width: 1.0;"/><line style="stroke: #A80036; stroke-width: 1.0;" x1="753.0975" x2="749.336" y1="408.5249" y2="401.464"/><polygon fill="#A80036" points="719.657,345.751,718.9478,352.9271,725.2992,356.3418,726.0084,349.1657,719.657,345.751" style="stroke: #A80036; stroke-width: 1.0;"/><!--MD5=[45fee7e179397dc4fc1c457f49931fdd]
link Square33 to Coordinate33--><path codeLine="94" d="M602.0904,356.5832 C602.0904,356.5832 587.603,386.979 580.863,401.12 " fill="none" id="Square33-Coordinate33" style="stroke: #A80036; stroke-width: 1.0;"/><polygon fill="#A80036" points="575.231,412.938,582.7141,406.5346,577.3823,408.4245,575.4924,403.0926,575.231,412.938" style="stroke: #A80036; stroke-width: 1.0;"/><line style="stroke: #A80036; stroke-width: 1.0;" x1="577.3823" x2="580.824" y1="408.4245" y2="401.2025"/><polygon fill="#A80036" points="607.254,345.751,601.0615,349.4459,602.0904,356.5832,608.2829,352.8883,607.254,345.751" style="stroke: #A80036; stroke-width: 1.0;"/><!--MD5=[13a5bfcd547bcca90bd72ebe5fcbc39e]
link Square11 to Square12--><!--MD5=[bc76116199aafd8295781c7dcab3176f]
link Square12 to Square13--><!--MD5=[c89ffb18fbb7b46681bd5913015ae5e3]
link Square21 to Square22--><!--MD5=[e010c8769b92a1a5952e305a724ea8e4]
link Square22 to Square23--><!--MD5=[f50abd7b4c3d728b1750fcedc3b0f127]
link Square31 to Square32--><!--MD5=[602970f58178e45676872601d2c7aa36]
link Square32 to Square33--><!--MD5=[0f6bfcf04e14b42cde8cbfcc74aaa622]
link Square11 to Square21--><!--MD5=[25839071d6f91f37be67e06b1ae5341a]
link Square12 to Square22--><!--MD5=[f622953a480c4fc89b837fd30211fa77]
link Square13 to Square23--><!--MD5=[a91b861c62fa236fffcb0f2237862284]
link Square21 to Square31--><!--MD5=[72223308d08a89680f2dbb886c02d26d]
link Square22 to Square32--><!--MD5=[090cfe2b176d307a1968440006917c83]
link Square23 to Square33--><!--MD5=[fa70530dc42fecb5cfe59c51df3423b4]
link Square31 to Piece1--><path codeLine="111" d="M504.7008,356.3418 C504.7008,356.3418 485.22,392.912 476.785,408.746 " fill="none" id="Square31-Piece1" style="stroke: #A80036; stroke-width: 1.0;"/><polygon fill="#A80036" points="470.552,420.447,478.3133,414.3839,472.9025,416.0339,471.2524,410.6231,470.552,420.447" style="stroke: #A80036; stroke-width: 1.0;"/><line style="stroke: #A80036; stroke-width: 1.0;" x1="472.9025" x2="476.664" y1="416.0339" y2="408.973"/><polygon fill="#A80036" points="510.343,345.751,503.9916,349.1657,504.7008,356.3418,511.0522,352.9271,510.343,345.751" style="stroke: #A80036; stroke-width: 1.0;"/><!--MD5=[b413b0d45410fddf7b5f451dbea43a9a]
link Square32 to Piece2--><path codeLine="112" d="M744.7601,352.2179 C744.7601,352.2179 808.443,395.075 834.963,412.921 " fill="none" id="Square32-Piece2" style="stroke: #A80036; stroke-width: 1.0;"/><polygon fill="#A80036" points="846.033,420.372,840.7994,412.0288,841.8848,417.5805,836.333,418.6659,846.033,420.372" style="stroke: #A80036; stroke-width: 1.0;"/><line style="stroke: #A80036; stroke-width: 1.0;" x1="841.8848" x2="835.248" y1="417.5805" y2="413.1135"/><polygon fill="#A80036" points="734.804,345.519,737.5491,352.1872,744.7601,352.2179,742.015,345.5498,734.804,345.519" style="stroke: #A80036; stroke-width: 1.0;"/><!--MD5=[8237126dfe67c80ca647b87dec1d2835]
link Square33 to Piece3--><path codeLine="113" d="M627.9096,356.5832 C627.9096,356.5832 645.108,392.667 652.576,408.337 " fill="none" id="Square33-Piece3" style="stroke: #A80036; stroke-width: 1.0;"/><polygon fill="#A80036" points="658.348,420.447,658.0866,410.6016,656.1967,415.9335,650.8649,414.0436,658.348,420.447" style="stroke: #A80036; stroke-width: 1.0;"/><line style="stroke: #A80036; stroke-width: 1.0;" x1="656.1967" x2="652.755" y1="415.9335" y2="408.7115"/><polygon fill="#A80036" points="622.746,345.751,621.7171,352.8883,627.9096,356.5832,628.9385,349.4459,622.746,345.751" style="stroke: #A80036; stroke-width: 1.0;"/><!--MD5=[a8cb8c73b2fd089cf7c799cdd6716bcc]
link Square11 to Piece1b--><path codeLine="115" d="M476.6291,125.5371 C476.6291,125.5371 243.854,163.849 113,195 C98.7913,198.383 83.3575,202.697 69.8106,206.704 " fill="none" id="Square11-Piece1b" style="stroke: #A80036; stroke-width: 1.0;"/><polygon fill="#A80036" points="57.0078,210.562,66.7792,211.795,61.7951,209.1193,64.4709,204.1353,57.0078,210.562" style="stroke: #A80036; stroke-width: 1.0;"/><line style="stroke: #A80036; stroke-width: 1.0;" x1="61.7951" x2="69.455" y1="209.1193" y2="206.8105"/><polygon fill="#A80036" points="488.483,123.67,481.9337,120.6523,476.6291,125.5371,483.1784,128.5548,488.483,123.67" style="stroke: #A80036; stroke-width: 1.0;"/><!--MD5=[55fd063141d7a757ca6dc8c1e47c4647]
link Square21 to Piece2b--><path codeLine="116" d="M477.2892,241.1561 C477.2892,241.1561 472.074,243.25 470,244 C367.417,281.106 333.365,263.685 232,304 C230.34,304.66 228.665,305.374 226.989,306.127 " fill="none" id="Square21-Piece2b" style="stroke: #A80036; stroke-width: 1.0;"/><polygon fill="#A80036" points="215.239,311.977,225.0785,311.5472,219.7151,309.7488,221.5134,304.3855,215.239,311.977" style="stroke: #A80036; stroke-width: 1.0;"/><line style="stroke: #A80036; stroke-width: 1.0;" x1="219.7151" x2="226.8765" y1="309.7488" y2="306.183"/><polygon fill="#A80036" points="488.296,236.376,481.1992,235.0971,477.2892,241.1561,484.386,242.435,488.296,236.376" style="stroke: #A80036; stroke-width: 1.0;"/><!--MD5=[0363b460054363cfef5967297451b433]
@startuml
together {
object ":Square" as Square11
object ":Square" as Square12
object ":Square" as Square13

object ":Square" as Square21
object ":Square" as Square22
object ":Square" as Square23

object ":Square" as Square31
object ":Square" as Square32
object ":Square" as Square33

}

object ":Coordinate" as Coordinate11 {
row = 1
column = 1
}
object ":Coordinate" as Coordinate12 {
row = 1
column = 2
}
object ":Coordinate" as Coordinate13 {
row = 1
column = 3
}

object ":Coordinate" as Coordinate21 {
row = 2
column = 1
}
object ":Coordinate" as Coordinate22 {
row = 2
column = 2
}
object ":Coordinate" as Coordinate23 {
row = 2
column = 3
}

object ":Coordinate" as Coordinate31 {
row = 3
column = 1
}
object ":Coordinate" as Coordinate32 {
row = 3
column = 2
}
object ":Coordinate" as Coordinate33 {
row = 3
column = 3
}

object ":Board" as Board

object ":Piece" as Piece1
object ":Piece" as Piece2
object ":Piece" as Piece3

object ":X" as X

Piece1 *-down-> X
Piece2 *-down-> X
Piece3 *-down-> X

object ":Piece" as Piece1b
object ":Piece" as Piece2b

object ":O" as O

Piece1b *-down-> O
Piece2b *-down-> O


Board - ->  Square11
Board - ->  Square12
Board - ->  Square13
Board - ->  Square21
Board - ->  Square22
Board - ->  Square23
Board - ->  Square31
Board - ->  Square32
Board - ->  Square33

Square11 *-down-> Coordinate11
Square12 *-down-> Coordinate12
Square13 *-down-> Coordinate13
Square21 *-down-> Coordinate21
Square22 *-down-> Coordinate22
Square23 *-down-> Coordinate23
Square31 *-down-> Coordinate31
Square32 *-down-> Coordinate32
Square33 *-down-> Coordinate33

Square11 -[hidden]right-> Square12
Square12 -[hidden]right-> Square13
Square21 -[hidden]right-> Square22
Square22 -[hidden]right-> Square23
Square31 -[hidden]right-> Square32
Square32 -[hidden]right-> Square33

Square11 -[hidden]down-> Square21
Square12 -[hidden]down-> Square22
Square13 -[hidden]down-> Square23

Square21 -[hidden]down-> Square31
Square22 -[hidden]down-> Square32
Square23 -[hidden]down-> Square33

Square31 *-down-> Piece1
Square32 *-down-> Piece2
Square33 *-down-> Piece3

Square11 *-down-> Piece1b
Square21 *-down-> Piece2b
@enduml

PlantUML version 1.2020.20beta8(Unknown compile time)
(GPL source distribution)
Java Runtime: Java(TM) SE Runtime Environment
JVM: Java HotSpot(TM) 64-Bit Server VM
Default Encoding: UTF-8
Language: en
Country: US
--></g></svg>