<?xml version="1.0" encoding="UTF-8" standalone="no"?><svg xmlns="http://www.w3.org/2000/svg" xmlns:xlink="http://www.w3.org/1999/xlink" contentScriptType="application/ecmascript" contentStyleType="text/css" height="754px" preserveAspectRatio="none" style="width:402px;height:754px;" version="1.1" viewBox="0 0 402 754" width="402px" zoomAndPan="magnify"><defs><filter height="300%" id="fsdsip590mxys" width="300%" x="-1" y="-1"><feGaussianBlur result="blurOut" stdDeviation="2.0"/><feColorMatrix in="blurOut" result="blurOut2" type="matrix" values="0 0 0 0 0 0 0 0 0 0 0 0 0 0 0 0 0 0 .4 0"/><feOffset dx="4.0" dy="4.0" in="blurOut2" result="blurOut3"/><feBlend in="SourceGraphic" in2="blurOut3" mode="normal"/></filter></defs><g><g id="A"><rect fill="#FEFECE" filter="url(#fsdsip590mxys)" height="50" rx="12.5" ry="12.5" style="stroke: #A80036; stroke-width: 1.5;" width="50" x="278.2991" y="87"/><line style="stroke: #A80036; stroke-width: 1.5;" x1="278.2991" x2="328.2991" y1="113.2969" y2="113.2969"/><text fill="#000000" font-family="sans-serif" font-size="14" lengthAdjust="spacingAndGlyphs" textLength="0" x="305.2991" y="104.9951"/></g><g id="B"><rect fill="#FEFECE" filter="url(#fsdsip590mxys)" height="50" rx="12.5" ry="12.5" style="stroke: #A80036; stroke-width: 1.5;" width="50" x="278.2991" y="214"/><line style="stroke: #A80036; stroke-width: 1.5;" x1="278.2991" x2="328.2991" y1="240.2969" y2="240.2969"/><text fill="#000000" font-family="sans-serif" font-size="14" lengthAdjust="spacingAndGlyphs" textLength="0" x="305.2991" y="231.9951"/></g><g id="C"><rect fill="#FEFECE" filter="url(#fsdsip590mxys)" height="50" rx="12.5" ry="12.5" style="stroke: #A80036; stroke-width: 1.5;" width="50" x="278.2991" y="341"/><line style="stroke: #A80036; stroke-width: 1.5;" x1="278.2991" x2="328.2991" y1="367.2969" y2="367.2969"/><text fill="#000000" font-family="sans-serif" font-size="14" lengthAdjust="spacingAndGlyphs" textLength="0" x="305.2991" y="358.9951"/></g><g id="D"><rect fill="#FEFECE" filter="url(#fsdsip590mxys)" height="50" rx="12.5" ry="12.5" style="stroke: #A80036; stroke-width: 1.5;" width="50" x="116.2991" y="468"/><line style="stroke: #A80036; stroke-width: 1.5;" x1="116.2991" x2="166.2991" y1="494.2969" y2="494.2969"/><text fill="#000000" font-family="sans-serif" font-size="14" lengthAdjust="spacingAndGlyphs" textLength="0" x="143.2991" y="485.9951"/></g><g id="E"><rect fill="#FEFECE" filter="url(#fsdsip590mxys)" height="50" rx="12.5" ry="12.5" style="stroke: #A80036; stroke-width: 1.5;" width="50" x="55.2986" y="595"/><line style="stroke: #A80036; stroke-width: 1.5;" x1="55.2986" x2="105.2986" y1="621.2969" y2="621.2969"/><text fill="#000000" font-family="sans-serif" font-size="14" lengthAdjust="spacingAndGlyphs" textLength="0" x="82.2986" y="612.9951"/></g><ellipse cx="303.2991" cy="16" fill="#000000" filter="url(#fsdsip590mxys)" rx="10" ry="10" style="stroke: none; stroke-width: 1.0;"/><ellipse cx="190.2991" cy="732" fill="none" filter="url(#fsdsip590mxys)" rx="10" ry="10" style="stroke: #000000; stroke-width: 1.0;"/><ellipse cx="190.7991" cy="732.5" fill="#000000" rx="6" ry="6" style="stroke: none; stroke-width: 1.0;"/><!--MD5=[ba0fdac9700f9825b754e67fda8ee1b2]
link *start to A--><path d="M303.2991,26.013 C303.2991,38.698 303.2991,62.409 303.2991,81.57 " fill="none" id="*start-to-A" style="stroke: #A80036; stroke-width: 1.0;"/><polygon fill="#A80036" points="303.2991,86.84,307.2991,77.84,303.2991,81.84,299.2991,77.84,303.2991,86.84" style="stroke: #A80036; stroke-width: 1.0;"/><!--MD5=[5e2eec62a50b26b6b0db6c12e4ee289c]
link A to B--><path d="M278.1651,135.865 C266.5771,149.26 256.5311,166.867 262.2991,184 C265.3721,193.13 270.6711,201.942 276.4581,209.706 " fill="none" id="A-to-B" style="stroke: #A80036; stroke-width: 1.0;"/><polygon fill="#A80036" points="279.7121,213.906,277.3637,204.3412,276.6505,209.9529,271.0388,209.2398,279.7121,213.906" style="stroke: #A80036; stroke-width: 1.0;"/><text fill="#000000" font-family="sans-serif" font-size="13" lengthAdjust="spacingAndGlyphs" textLength="34" x="263.2991" y="180.0669">put X</text><!--MD5=[2c777c0c38089c390787dfc0786ecb92]
link B to A--><path d="M303.2991,213.973 C303.2991,193.503 303.2991,164.021 303.2991,142.194 " fill="none" id="B-to-A" style="stroke: #A80036; stroke-width: 1.0;"/><polygon fill="#A80036" points="303.2991,137.101,299.2991,146.101,303.2991,142.101,307.2991,146.101,303.2991,137.101" style="stroke: #A80036; stroke-width: 1.0;"/><text fill="#000000" font-family="sans-serif" font-size="13" lengthAdjust="spacingAndGlyphs" textLength="35" x="304.2991" y="180.0669">put O</text><!--MD5=[cd25d8247324207f828a4db9f58ed69d]
link B to C--><path d="M303.2991,264.101 C303.2991,284.593 303.2991,314.076 303.2991,335.884 " fill="none" id="B-to-C" style="stroke: #A80036; stroke-width: 1.0;"/><polygon fill="#A80036" points="303.2991,340.973,307.2991,331.973,303.2991,335.973,299.2991,331.973,303.2991,340.973" style="stroke: #A80036; stroke-width: 1.0;"/><text fill="#000000" font-family="sans-serif" font-size="13" lengthAdjust="spacingAndGlyphs" textLength="90" x="304.2991" y="307.0669">[isCompleted]</text><!--MD5=[95ca888c4bb7ed1df160562281720a5c]
link C to D--><path d="M277.9861,386.531 C248.8591,409.005 201.1131,445.847 170.4561,469.502 " fill="none" id="C-to-D" style="stroke: #A80036; stroke-width: 1.0;"/><polygon fill="#A80036" points="166.4331,472.606,176.0022,470.2751,170.3918,469.5517,171.1152,463.9412,166.4331,472.606" style="stroke: #A80036; stroke-width: 1.0;"/><text fill="#000000" font-family="sans-serif" font-size="13" lengthAdjust="spacingAndGlyphs" textLength="33" x="233.2991" y="434.0669">put 0</text><!--MD5=[6a85fad97473f3ca89fe62758889412b]
link C to *end--><path d="M306.9401,391.164 C313.3491,441.318 322.3621,559.184 281.2991,645 C263.7651,681.6414 223.3421,710.6131 202.7871,723.5886 " fill="none" id="C-to-*end" style="stroke: #A80036; stroke-width: 1.0;"/><polygon fill="#A80036" points="198.4831,726.2545,208.2406,724.9159,202.7338,723.6217,204.0281,718.1149,198.4831,726.2545" style="stroke: #A80036; stroke-width: 1.0;"/><text fill="#000000" font-family="sans-serif" font-size="13" lengthAdjust="spacingAndGlyphs" textLength="85" x="308.2991" y="561.0669">[isTicTacToe]</text><!--MD5=[9ee2c6850258a89d754920901add40c0]
link D to E--><path d="M116.2611,497.059 C87.2564,502.091 40.7173,515.097 19.2986,548 C6,568.429 29.2284,589.294 50.7444,603.07 " fill="none" id="D-to-E" style="stroke: #A80036; stroke-width: 1.0;"/><polygon fill="#A80036" points="55.0134,605.728,49.4882,597.5749,50.7691,603.0849,45.2592,604.3658,55.0134,605.728" style="stroke: #A80036; stroke-width: 1.0;"/><text fill="#000000" font-family="sans-serif" font-size="13" lengthAdjust="spacingAndGlyphs" textLength="50" x="20.2986" y="561.0669">move X</text><!--MD5=[d9f0db18a21361db52f95f1c09405f86]
link E to D--><path d="M90.2107,594.747 C96.0361,580.904 103.7247,563.311 111.2986,548 C115.4311,539.646 120.2151,530.741 124.7321,522.621 " fill="none" id="E-to-D" style="stroke: #A80036; stroke-width: 1.0;"/><polygon fill="#A80036" points="127.2081,518.2,119.321,524.0986,124.7654,522.5627,126.3013,528.007,127.2081,518.2" style="stroke: #A80036; stroke-width: 1.0;"/><text fill="#000000" font-family="sans-serif" font-size="13" lengthAdjust="spacingAndGlyphs" textLength="51" x="112.2986" y="561.0669">move O</text><!--MD5=[51efe90a7f482fc138f2ff6aff84f914]
link D to *end--><path d="M155.6591,518.265 C160.4101,527.317 165.2551,537.861 168.2991,548 C186.4881,608.59 189.7041,684.7342 190.2251,716.2752 " fill="none" id="D-to-*end" style="stroke: #A80036; stroke-width: 1.0;"/><polygon fill="#A80036" points="190.2941,721.6318,194.1778,712.581,190.2297,716.6322,186.1785,712.6841,190.2941,721.6318" style="stroke: #A80036; stroke-width: 1.0;"/><text fill="#000000" font-family="sans-serif" font-size="13" lengthAdjust="spacingAndGlyphs" textLength="85" x="187.2991" y="624.5669">[isTicTacToe]</text><!--MD5=[b4ae64609a665d46448790142bade235]
link E to *end--><path d="M72.2907,645.1671 C68.9566,659.9961 67.7748,678.638 77.2986,692 C99.8079,723.5809 149.6651,729.8371 174.9521,730.913 " fill="none" id="E-to-*end" style="stroke: #A80036; stroke-width: 1.0;"/><polygon fill="#A80036" points="180.2451,731.0769,171.3728,726.8011,175.2475,730.9226,171.126,734.7973,180.2451,731.0769" style="stroke: #A80036; stroke-width: 1.0;"/><text fill="#000000" font-family="sans-serif" font-size="13" lengthAdjust="spacingAndGlyphs" textLength="85" x="78.2986" y="688.0669">[isTicTacToe]</text><!--MD5=[ce9c032d3ebd22da17d039895bfcd3fc]
@startuml
state A as " "
state B as " "
state C as " "
state D as " "
state E as " "
[*] - -> A
A - -> B: put X
B - -> A : put O
B - -> C : [isCompleted]
C - -> D : put 0
C - -> [*] : [isTicTacToe]
D - -> E : move X
E - -> D : move O
D - -> [*] : [isTicTacToe]
E - -> [*] : [isTicTacToe]
@enduml

PlantUML version 1.2020.20beta8(Unknown compile time)
(GPL source distribution)
Java Runtime: Java(TM) SE Runtime Environment
JVM: Java HotSpot(TM) 64-Bit Server VM
Default Encoding: UTF-8
Language: en
Country: US
--></g></svg>