<?xml version="1.0" encoding="UTF-8" standalone="no"?><svg xmlns="http://www.w3.org/2000/svg" xmlns:xlink="http://www.w3.org/1999/xlink" contentScriptType="application/ecmascript" contentStyleType="text/css" height="957px" preserveAspectRatio="none" style="width:1154px;height:957px;" version="1.1" viewBox="0 0 1154 957" width="1154px" zoomAndPan="magnify"><defs><filter height="300%" id="f1qoa4hqau8mq0" width="300%" x="-1" y="-1"><feGaussianBlur result="blurOut" stdDeviation="2.0"/><feColorMatrix in="blurOut" result="blurOut2" type="matrix" values="0 0 0 0 0 0 0 0 0 0 0 0 0 0 0 0 0 0 .4 0"/><feOffset dx="4.0" dy="4.0" in="blurOut2" result="blurOut3"/><feBlend in="SourceGraphic" in2="blurOut3" mode="normal"/></filter></defs><g><!--MD5=[36f719b1cbc3f26b5758ea249b208fb4]
class TicTacToe--><rect fill="#FEFECE" filter="url(#f1qoa4hqau8mq0)" height="48" id="TicTacToe" style="stroke: #A80036; stroke-width: 1.5;" width="93" x="594.5" y="7"/><ellipse cx="609.5" cy="23" fill="#ADD1B2" rx="11" ry="11" style="stroke: #A80036; stroke-width: 1.0;"/><path d="M611.8438,18.6719 C610.9063,18.2344 610.3125,18.0938 609.4375,18.0938 C606.8125,18.0938 604.8125,20.1719 604.8125,22.8906 L604.8125,24.0156 C604.8125,26.5938 606.9219,28.4844 609.8125,28.4844 C611.0313,28.4844 612.1875,28.1875 612.9375,27.6406 C613.5156,27.2344 613.8438,26.7813 613.8438,26.3906 C613.8438,25.9375 613.4531,25.5469 612.9844,25.5469 C612.7656,25.5469 612.5625,25.625 612.375,25.8125 C611.9219,26.2969 611.9219,26.2969 611.7344,26.3906 C611.3125,26.6563 610.625,26.7813 609.8594,26.7813 C607.8125,26.7813 606.5156,25.6875 606.5156,23.9844 L606.5156,22.8906 C606.5156,21.1094 607.7656,19.7969 609.5,19.7969 C610.0781,19.7969 610.6875,19.9531 611.1563,20.2031 C611.6406,20.4844 611.8125,20.7031 611.9063,21.1094 C611.9688,21.5156 612,21.6406 612.1406,21.7656 C612.2813,21.9063 612.5156,22.0156 612.7344,22.0156 C613,22.0156 613.2656,21.875 613.4375,21.6563 C613.5469,21.5 613.5781,21.3125 613.5781,20.8906 L613.5781,19.4688 C613.5781,19.0313 613.5625,18.9063 613.4688,18.75 C613.3125,18.4844 613.0313,18.3438 612.7344,18.3438 C612.4375,18.3438 612.2344,18.4375 612.0156,18.75 L611.8438,18.6719 Z " fill="#000000"/><text fill="#000000" font-family="sans-serif" font-size="12" lengthAdjust="spacingAndGlyphs" textLength="61" x="623.5" y="27.1543">TicTacToe</text><line style="stroke: #A80036; stroke-width: 1.5;" x1="595.5" x2="686.5" y1="39" y2="39"/><line style="stroke: #A80036; stroke-width: 1.5;" x1="595.5" x2="686.5" y1="47" y2="47"/><!--MD5=[2cb47ba637a0d19583e6199456f6ad0b]
class Player--><rect fill="#FEFECE" filter="url(#f1qoa4hqau8mq0)" height="48" id="Player" style="stroke: #A80036; stroke-width: 1.5;" width="68" x="525" y="225"/><ellipse cx="540" cy="241" fill="#ADD1B2" rx="11" ry="11" style="stroke: #A80036; stroke-width: 1.0;"/><path d="M542.3438,236.6719 C541.4063,236.2344 540.8125,236.0938 539.9375,236.0938 C537.3125,236.0938 535.3125,238.1719 535.3125,240.8906 L535.3125,242.0156 C535.3125,244.5938 537.4219,246.4844 540.3125,246.4844 C541.5313,246.4844 542.6875,246.1875 543.4375,245.6406 C544.0156,245.2344 544.3438,244.7813 544.3438,244.3906 C544.3438,243.9375 543.9531,243.5469 543.4844,243.5469 C543.2656,243.5469 543.0625,243.625 542.875,243.8125 C542.4219,244.2969 542.4219,244.2969 542.2344,244.3906 C541.8125,244.6563 541.125,244.7813 540.3594,244.7813 C538.3125,244.7813 537.0156,243.6875 537.0156,241.9844 L537.0156,240.8906 C537.0156,239.1094 538.2656,237.7969 540,237.7969 C540.5781,237.7969 541.1875,237.9531 541.6563,238.2031 C542.1406,238.4844 542.3125,238.7031 542.4063,239.1094 C542.4688,239.5156 542.5,239.6406 542.6406,239.7656 C542.7813,239.9063 543.0156,240.0156 543.2344,240.0156 C543.5,240.0156 543.7656,239.875 543.9375,239.6563 C544.0469,239.5 544.0781,239.3125 544.0781,238.8906 L544.0781,237.4688 C544.0781,237.0313 544.0625,236.9063 543.9688,236.75 C543.8125,236.4844 543.5313,236.3438 543.2344,236.3438 C542.9375,236.3438 542.7344,236.4375 542.5156,236.75 L542.3438,236.6719 Z " fill="#000000"/><text fill="#000000" font-family="sans-serif" font-size="12" lengthAdjust="spacingAndGlyphs" textLength="36" x="554" y="245.1543">Player</text><line style="stroke: #A80036; stroke-width: 1.5;" x1="526" x2="592" y1="257" y2="257"/><line style="stroke: #A80036; stroke-width: 1.5;" x1="526" x2="592" y1="265" y2="265"/><!--MD5=[9563755d011c5cec7ec66dc53565a59e]
class Board--><rect fill="#FEFECE" filter="url(#f1qoa4hqau8mq0)" height="48" id="Board" style="stroke: #A80036; stroke-width: 1.5;" width="68" x="930" y="334"/><ellipse cx="945" cy="350" fill="#ADD1B2" rx="11" ry="11" style="stroke: #A80036; stroke-width: 1.0;"/><path d="M947.3438,345.6719 C946.4063,345.2344 945.8125,345.0938 944.9375,345.0938 C942.3125,345.0938 940.3125,347.1719 940.3125,349.8906 L940.3125,351.0156 C940.3125,353.5938 942.4219,355.4844 945.3125,355.4844 C946.5313,355.4844 947.6875,355.1875 948.4375,354.6406 C949.0156,354.2344 949.3438,353.7813 949.3438,353.3906 C949.3438,352.9375 948.9531,352.5469 948.4844,352.5469 C948.2656,352.5469 948.0625,352.625 947.875,352.8125 C947.4219,353.2969 947.4219,353.2969 947.2344,353.3906 C946.8125,353.6563 946.125,353.7813 945.3594,353.7813 C943.3125,353.7813 942.0156,352.6875 942.0156,350.9844 L942.0156,349.8906 C942.0156,348.1094 943.2656,346.7969 945,346.7969 C945.5781,346.7969 946.1875,346.9531 946.6563,347.2031 C947.1406,347.4844 947.3125,347.7031 947.4063,348.1094 C947.4688,348.5156 947.5,348.6406 947.6406,348.7656 C947.7813,348.9063 948.0156,349.0156 948.2344,349.0156 C948.5,349.0156 948.7656,348.875 948.9375,348.6563 C949.0469,348.5 949.0781,348.3125 949.0781,347.8906 L949.0781,346.4688 C949.0781,346.0313 949.0625,345.9063 948.9688,345.75 C948.8125,345.4844 948.5313,345.3438 948.2344,345.3438 C947.9375,345.3438 947.7344,345.4375 947.5156,345.75 L947.3438,345.6719 Z " fill="#000000"/><text fill="#000000" font-family="sans-serif" font-size="12" lengthAdjust="spacingAndGlyphs" textLength="36" x="959" y="354.1543">Board</text><line style="stroke: #A80036; stroke-width: 1.5;" x1="931" x2="997" y1="366" y2="366"/><line style="stroke: #A80036; stroke-width: 1.5;" x1="931" x2="997" y1="374" y2="374"/><!--MD5=[dd91eae41778c45e12552e5329e240e8]
class Turn--><rect fill="#FEFECE" filter="url(#f1qoa4hqau8mq0)" height="48" id="Turn" style="stroke: #A80036; stroke-width: 1.5;" width="58" x="612" y="116"/><ellipse cx="627" cy="132" fill="#ADD1B2" rx="11" ry="11" style="stroke: #A80036; stroke-width: 1.0;"/><path d="M629.3438,127.6719 C628.4063,127.2344 627.8125,127.0938 626.9375,127.0938 C624.3125,127.0938 622.3125,129.1719 622.3125,131.8906 L622.3125,133.0156 C622.3125,135.5938 624.4219,137.4844 627.3125,137.4844 C628.5313,137.4844 629.6875,137.1875 630.4375,136.6406 C631.0156,136.2344 631.3438,135.7813 631.3438,135.3906 C631.3438,134.9375 630.9531,134.5469 630.4844,134.5469 C630.2656,134.5469 630.0625,134.625 629.875,134.8125 C629.4219,135.2969 629.4219,135.2969 629.2344,135.3906 C628.8125,135.6563 628.125,135.7813 627.3594,135.7813 C625.3125,135.7813 624.0156,134.6875 624.0156,132.9844 L624.0156,131.8906 C624.0156,130.1094 625.2656,128.7969 627,128.7969 C627.5781,128.7969 628.1875,128.9531 628.6563,129.2031 C629.1406,129.4844 629.3125,129.7031 629.4063,130.1094 C629.4688,130.5156 629.5,130.6406 629.6406,130.7656 C629.7813,130.9063 630.0156,131.0156 630.2344,131.0156 C630.5,131.0156 630.7656,130.875 630.9375,130.6563 C631.0469,130.5 631.0781,130.3125 631.0781,129.8906 L631.0781,128.4688 C631.0781,128.0313 631.0625,127.9063 630.9688,127.75 C630.8125,127.4844 630.5313,127.3438 630.2344,127.3438 C629.9375,127.3438 629.7344,127.4375 629.5156,127.75 L629.3438,127.6719 Z " fill="#000000"/><text fill="#000000" font-family="sans-serif" font-size="12" lengthAdjust="spacingAndGlyphs" textLength="26" x="641" y="136.1543">Turn</text><line style="stroke: #A80036; stroke-width: 1.5;" x1="613" x2="669" y1="148" y2="148"/><line style="stroke: #A80036; stroke-width: 1.5;" x1="613" x2="669" y1="156" y2="156"/><!--MD5=[e05bacf3ff4416a0580578814d41bbf6]
class Piece--><rect fill="#FEFECE" filter="url(#f1qoa4hqau8mq0)" height="48" id="Piece" style="stroke: #A80036; stroke-width: 1.5;" width="64" x="438" y="677"/><ellipse cx="453" cy="693" fill="#ADD1B2" rx="11" ry="11" style="stroke: #A80036; stroke-width: 1.0;"/><path d="M455.3438,688.6719 C454.4063,688.2344 453.8125,688.0938 452.9375,688.0938 C450.3125,688.0938 448.3125,690.1719 448.3125,692.8906 L448.3125,694.0156 C448.3125,696.5938 450.4219,698.4844 453.3125,698.4844 C454.5313,698.4844 455.6875,698.1875 456.4375,697.6406 C457.0156,697.2344 457.3438,696.7813 457.3438,696.3906 C457.3438,695.9375 456.9531,695.5469 456.4844,695.5469 C456.2656,695.5469 456.0625,695.625 455.875,695.8125 C455.4219,696.2969 455.4219,696.2969 455.2344,696.3906 C454.8125,696.6563 454.125,696.7813 453.3594,696.7813 C451.3125,696.7813 450.0156,695.6875 450.0156,693.9844 L450.0156,692.8906 C450.0156,691.1094 451.2656,689.7969 453,689.7969 C453.5781,689.7969 454.1875,689.9531 454.6563,690.2031 C455.1406,690.4844 455.3125,690.7031 455.4063,691.1094 C455.4688,691.5156 455.5,691.6406 455.6406,691.7656 C455.7813,691.9063 456.0156,692.0156 456.2344,692.0156 C456.5,692.0156 456.7656,691.875 456.9375,691.6563 C457.0469,691.5 457.0781,691.3125 457.0781,690.8906 L457.0781,689.4688 C457.0781,689.0313 457.0625,688.9063 456.9688,688.75 C456.8125,688.4844 456.5313,688.3438 456.2344,688.3438 C455.9375,688.3438 455.7344,688.4375 455.5156,688.75 L455.3438,688.6719 Z " fill="#000000"/><text fill="#000000" font-family="sans-serif" font-size="12" lengthAdjust="spacingAndGlyphs" textLength="32" x="467" y="697.1543">Piece</text><line style="stroke: #A80036; stroke-width: 1.5;" x1="439" x2="501" y1="709" y2="709"/><line style="stroke: #A80036; stroke-width: 1.5;" x1="439" x2="501" y1="717" y2="717"/><!--MD5=[0992d3fdc9d3d7c02b735131bb70871d]
class Goal--><rect fill="#FEFECE" filter="url(#f1qoa4hqau8mq0)" height="48" id="Goal" style="stroke: #A80036; stroke-width: 1.5;" width="59" x="529.5" y="334"/><ellipse cx="544.5" cy="350" fill="#ADD1B2" rx="11" ry="11" style="stroke: #A80036; stroke-width: 1.0;"/><path d="M546.8438,345.6719 C545.9063,345.2344 545.3125,345.0938 544.4375,345.0938 C541.8125,345.0938 539.8125,347.1719 539.8125,349.8906 L539.8125,351.0156 C539.8125,353.5938 541.9219,355.4844 544.8125,355.4844 C546.0313,355.4844 547.1875,355.1875 547.9375,354.6406 C548.5156,354.2344 548.8438,353.7813 548.8438,353.3906 C548.8438,352.9375 548.4531,352.5469 547.9844,352.5469 C547.7656,352.5469 547.5625,352.625 547.375,352.8125 C546.9219,353.2969 546.9219,353.2969 546.7344,353.3906 C546.3125,353.6563 545.625,353.7813 544.8594,353.7813 C542.8125,353.7813 541.5156,352.6875 541.5156,350.9844 L541.5156,349.8906 C541.5156,348.1094 542.7656,346.7969 544.5,346.7969 C545.0781,346.7969 545.6875,346.9531 546.1563,347.2031 C546.6406,347.4844 546.8125,347.7031 546.9063,348.1094 C546.9688,348.5156 547,348.6406 547.1406,348.7656 C547.2813,348.9063 547.5156,349.0156 547.7344,349.0156 C548,349.0156 548.2656,348.875 548.4375,348.6563 C548.5469,348.5 548.5781,348.3125 548.5781,347.8906 L548.5781,346.4688 C548.5781,346.0313 548.5625,345.9063 548.4688,345.75 C548.3125,345.4844 548.0313,345.3438 547.7344,345.3438 C547.4375,345.3438 547.2344,345.4375 547.0156,345.75 L546.8438,345.6719 Z " fill="#000000"/><text fill="#000000" font-family="sans-serif" font-size="12" lengthAdjust="spacingAndGlyphs" textLength="27" x="558.5" y="354.1543">Goal</text><line style="stroke: #A80036; stroke-width: 1.5;" x1="530.5" x2="587.5" y1="366" y2="366"/><line style="stroke: #A80036; stroke-width: 1.5;" x1="530.5" x2="587.5" y1="374" y2="374"/><!--MD5=[18eee71c88ab61f27581b8cbdd3ef5ee]
class Color--><rect fill="#FEFECE" filter="url(#f1qoa4hqau8mq0)" height="48" id="Color" style="stroke: #A80036; stroke-width: 1.5;" width="64" x="100" y="786"/><ellipse cx="115" cy="802" fill="#ADD1B2" rx="11" ry="11" style="stroke: #A80036; stroke-width: 1.0;"/><path d="M117.3438,797.6719 C116.4063,797.2344 115.8125,797.0938 114.9375,797.0938 C112.3125,797.0938 110.3125,799.1719 110.3125,801.8906 L110.3125,803.0156 C110.3125,805.5938 112.4219,807.4844 115.3125,807.4844 C116.5313,807.4844 117.6875,807.1875 118.4375,806.6406 C119.0156,806.2344 119.3438,805.7813 119.3438,805.3906 C119.3438,804.9375 118.9531,804.5469 118.4844,804.5469 C118.2656,804.5469 118.0625,804.625 117.875,804.8125 C117.4219,805.2969 117.4219,805.2969 117.2344,805.3906 C116.8125,805.6563 116.125,805.7813 115.3594,805.7813 C113.3125,805.7813 112.0156,804.6875 112.0156,802.9844 L112.0156,801.8906 C112.0156,800.1094 113.2656,798.7969 115,798.7969 C115.5781,798.7969 116.1875,798.9531 116.6563,799.2031 C117.1406,799.4844 117.3125,799.7031 117.4063,800.1094 C117.4688,800.5156 117.5,800.6406 117.6406,800.7656 C117.7813,800.9063 118.0156,801.0156 118.2344,801.0156 C118.5,801.0156 118.7656,800.875 118.9375,800.6563 C119.0469,800.5 119.0781,800.3125 119.0781,799.8906 L119.0781,798.4688 C119.0781,798.0313 119.0625,797.9063 118.9688,797.75 C118.8125,797.4844 118.5313,797.3438 118.2344,797.3438 C117.9375,797.3438 117.7344,797.4375 117.5156,797.75 L117.3438,797.6719 Z " fill="#000000"/><text fill="#000000" font-family="sans-serif" font-size="12" lengthAdjust="spacingAndGlyphs" textLength="32" x="129" y="806.1543">Color</text><line style="stroke: #A80036; stroke-width: 1.5;" x1="101" x2="163" y1="818" y2="818"/><line style="stroke: #A80036; stroke-width: 1.5;" x1="101" x2="163" y1="826" y2="826"/><!--MD5=[f8e7078f77c005d15b486c0c98deb1e6]
class Action--><rect fill="#FEFECE" filter="url(#f1qoa4hqau8mq0)" height="48" id="Action" style="stroke: #A80036; stroke-width: 1.5;" width="69" x="825.5" y="334"/><ellipse cx="840.5" cy="350" fill="#ADD1B2" rx="11" ry="11" style="stroke: #A80036; stroke-width: 1.0;"/><path d="M842.8438,345.6719 C841.9063,345.2344 841.3125,345.0938 840.4375,345.0938 C837.8125,345.0938 835.8125,347.1719 835.8125,349.8906 L835.8125,351.0156 C835.8125,353.5938 837.9219,355.4844 840.8125,355.4844 C842.0313,355.4844 843.1875,355.1875 843.9375,354.6406 C844.5156,354.2344 844.8438,353.7813 844.8438,353.3906 C844.8438,352.9375 844.4531,352.5469 843.9844,352.5469 C843.7656,352.5469 843.5625,352.625 843.375,352.8125 C842.9219,353.2969 842.9219,353.2969 842.7344,353.3906 C842.3125,353.6563 841.625,353.7813 840.8594,353.7813 C838.8125,353.7813 837.5156,352.6875 837.5156,350.9844 L837.5156,349.8906 C837.5156,348.1094 838.7656,346.7969 840.5,346.7969 C841.0781,346.7969 841.6875,346.9531 842.1563,347.2031 C842.6406,347.4844 842.8125,347.7031 842.9063,348.1094 C842.9688,348.5156 843,348.6406 843.1406,348.7656 C843.2813,348.9063 843.5156,349.0156 843.7344,349.0156 C844,349.0156 844.2656,348.875 844.4375,348.6563 C844.5469,348.5 844.5781,348.3125 844.5781,347.8906 L844.5781,346.4688 C844.5781,346.0313 844.5625,345.9063 844.4688,345.75 C844.3125,345.4844 844.0313,345.3438 843.7344,345.3438 C843.4375,345.3438 843.2344,345.4375 843.0156,345.75 L842.8438,345.6719 Z " fill="#000000"/><text fill="#000000" font-family="sans-serif" font-size="12" lengthAdjust="spacingAndGlyphs" textLength="37" x="854.5" y="354.1543">Action</text><line style="stroke: #A80036; stroke-width: 1.5;" x1="826.5" x2="893.5" y1="366" y2="366"/><line style="stroke: #A80036; stroke-width: 1.5;" x1="826.5" x2="893.5" y1="374" y2="374"/><!--MD5=[852878fd701cdbe445b24ff36590dddf]
class PutAction--><rect fill="#FEFECE" filter="url(#f1qoa4hqau8mq0)" height="48" id="PutAction" style="stroke: #A80036; stroke-width: 1.5;" width="86" x="721" y="443"/><ellipse cx="736" cy="459" fill="#ADD1B2" rx="11" ry="11" style="stroke: #A80036; stroke-width: 1.0;"/><path d="M738.3438,454.6719 C737.4063,454.2344 736.8125,454.0938 735.9375,454.0938 C733.3125,454.0938 731.3125,456.1719 731.3125,458.8906 L731.3125,460.0156 C731.3125,462.5938 733.4219,464.4844 736.3125,464.4844 C737.5313,464.4844 738.6875,464.1875 739.4375,463.6406 C740.0156,463.2344 740.3438,462.7813 740.3438,462.3906 C740.3438,461.9375 739.9531,461.5469 739.4844,461.5469 C739.2656,461.5469 739.0625,461.625 738.875,461.8125 C738.4219,462.2969 738.4219,462.2969 738.2344,462.3906 C737.8125,462.6563 737.125,462.7813 736.3594,462.7813 C734.3125,462.7813 733.0156,461.6875 733.0156,459.9844 L733.0156,458.8906 C733.0156,457.1094 734.2656,455.7969 736,455.7969 C736.5781,455.7969 737.1875,455.9531 737.6563,456.2031 C738.1406,456.4844 738.3125,456.7031 738.4063,457.1094 C738.4688,457.5156 738.5,457.6406 738.6406,457.7656 C738.7813,457.9063 739.0156,458.0156 739.2344,458.0156 C739.5,458.0156 739.7656,457.875 739.9375,457.6563 C740.0469,457.5 740.0781,457.3125 740.0781,456.8906 L740.0781,455.4688 C740.0781,455.0313 740.0625,454.9063 739.9688,454.75 C739.8125,454.4844 739.5313,454.3438 739.2344,454.3438 C738.9375,454.3438 738.7344,454.4375 738.5156,454.75 L738.3438,454.6719 Z " fill="#000000"/><text fill="#000000" font-family="sans-serif" font-size="12" lengthAdjust="spacingAndGlyphs" textLength="54" x="750" y="463.1543">PutAction</text><line style="stroke: #A80036; stroke-width: 1.5;" x1="722" x2="806" y1="475" y2="475"/><line style="stroke: #A80036; stroke-width: 1.5;" x1="722" x2="806" y1="483" y2="483"/><!--MD5=[9c968d98fb6f96ce23d8c3c92f03353c]
class MoveAction--><rect fill="#FEFECE" filter="url(#f1qoa4hqau8mq0)" height="48" id="MoveAction" style="stroke: #A80036; stroke-width: 1.5;" width="102" x="913" y="443"/><ellipse cx="928" cy="459" fill="#ADD1B2" rx="11" ry="11" style="stroke: #A80036; stroke-width: 1.0;"/><path d="M930.3438,454.6719 C929.4063,454.2344 928.8125,454.0938 927.9375,454.0938 C925.3125,454.0938 923.3125,456.1719 923.3125,458.8906 L923.3125,460.0156 C923.3125,462.5938 925.4219,464.4844 928.3125,464.4844 C929.5313,464.4844 930.6875,464.1875 931.4375,463.6406 C932.0156,463.2344 932.3438,462.7813 932.3438,462.3906 C932.3438,461.9375 931.9531,461.5469 931.4844,461.5469 C931.2656,461.5469 931.0625,461.625 930.875,461.8125 C930.4219,462.2969 930.4219,462.2969 930.2344,462.3906 C929.8125,462.6563 929.125,462.7813 928.3594,462.7813 C926.3125,462.7813 925.0156,461.6875 925.0156,459.9844 L925.0156,458.8906 C925.0156,457.1094 926.2656,455.7969 928,455.7969 C928.5781,455.7969 929.1875,455.9531 929.6563,456.2031 C930.1406,456.4844 930.3125,456.7031 930.4063,457.1094 C930.4688,457.5156 930.5,457.6406 930.6406,457.7656 C930.7813,457.9063 931.0156,458.0156 931.2344,458.0156 C931.5,458.0156 931.7656,457.875 931.9375,457.6563 C932.0469,457.5 932.0781,457.3125 932.0781,456.8906 L932.0781,455.4688 C932.0781,455.0313 932.0625,454.9063 931.9688,454.75 C931.8125,454.4844 931.5313,454.3438 931.2344,454.3438 C930.9375,454.3438 930.7344,454.4375 930.5156,454.75 L930.3438,454.6719 Z " fill="#000000"/><text fill="#000000" font-family="sans-serif" font-size="12" lengthAdjust="spacingAndGlyphs" textLength="70" x="942" y="463.1543">MoveAction</text><line style="stroke: #A80036; stroke-width: 1.5;" x1="914" x2="1014" y1="475" y2="475"/><line style="stroke: #A80036; stroke-width: 1.5;" x1="914" x2="1014" y1="483" y2="483"/><!--MD5=[b203f6b098b8dffe494a95d9c500f8e2]
class X--><rect fill="#FEFECE" filter="url(#f1qoa4hqau8mq0)" height="48" id="X" style="stroke: #A80036; stroke-width: 1.5;" width="40" x="74" y="895"/><ellipse cx="89" cy="911" fill="#ADD1B2" rx="11" ry="11" style="stroke: #A80036; stroke-width: 1.0;"/><path d="M91.3438,906.6719 C90.4063,906.2344 89.8125,906.0938 88.9375,906.0938 C86.3125,906.0938 84.3125,908.1719 84.3125,910.8906 L84.3125,912.0156 C84.3125,914.5938 86.4219,916.4844 89.3125,916.4844 C90.5313,916.4844 91.6875,916.1875 92.4375,915.6406 C93.0156,915.2344 93.3438,914.7813 93.3438,914.3906 C93.3438,913.9375 92.9531,913.5469 92.4844,913.5469 C92.2656,913.5469 92.0625,913.625 91.875,913.8125 C91.4219,914.2969 91.4219,914.2969 91.2344,914.3906 C90.8125,914.6563 90.125,914.7813 89.3594,914.7813 C87.3125,914.7813 86.0156,913.6875 86.0156,911.9844 L86.0156,910.8906 C86.0156,909.1094 87.2656,907.7969 89,907.7969 C89.5781,907.7969 90.1875,907.9531 90.6563,908.2031 C91.1406,908.4844 91.3125,908.7031 91.4063,909.1094 C91.4688,909.5156 91.5,909.6406 91.6406,909.7656 C91.7813,909.9063 92.0156,910.0156 92.2344,910.0156 C92.5,910.0156 92.7656,909.875 92.9375,909.6563 C93.0469,909.5 93.0781,909.3125 93.0781,908.8906 L93.0781,907.4688 C93.0781,907.0313 93.0625,906.9063 92.9688,906.75 C92.8125,906.4844 92.5313,906.3438 92.2344,906.3438 C91.9375,906.3438 91.7344,906.4375 91.5156,906.75 L91.3438,906.6719 Z " fill="#000000"/><text fill="#000000" font-family="sans-serif" font-size="12" lengthAdjust="spacingAndGlyphs" textLength="8" x="103" y="915.1543">X</text><line style="stroke: #A80036; stroke-width: 1.5;" x1="75" x2="113" y1="927" y2="927"/><line style="stroke: #A80036; stroke-width: 1.5;" x1="75" x2="113" y1="935" y2="935"/><!--MD5=[255014859fcd18787a2ae9f2a405ae60]
class O--><rect fill="#FEFECE" filter="url(#f1qoa4hqau8mq0)" height="48" id="O" style="stroke: #A80036; stroke-width: 1.5;" width="42" x="149" y="895"/><ellipse cx="164" cy="911" fill="#ADD1B2" rx="11" ry="11" style="stroke: #A80036; stroke-width: 1.0;"/><path d="M166.3438,906.6719 C165.4063,906.2344 164.8125,906.0938 163.9375,906.0938 C161.3125,906.0938 159.3125,908.1719 159.3125,910.8906 L159.3125,912.0156 C159.3125,914.5938 161.4219,916.4844 164.3125,916.4844 C165.5313,916.4844 166.6875,916.1875 167.4375,915.6406 C168.0156,915.2344 168.3438,914.7813 168.3438,914.3906 C168.3438,913.9375 167.9531,913.5469 167.4844,913.5469 C167.2656,913.5469 167.0625,913.625 166.875,913.8125 C166.4219,914.2969 166.4219,914.2969 166.2344,914.3906 C165.8125,914.6563 165.125,914.7813 164.3594,914.7813 C162.3125,914.7813 161.0156,913.6875 161.0156,911.9844 L161.0156,910.8906 C161.0156,909.1094 162.2656,907.7969 164,907.7969 C164.5781,907.7969 165.1875,907.9531 165.6563,908.2031 C166.1406,908.4844 166.3125,908.7031 166.4063,909.1094 C166.4688,909.5156 166.5,909.6406 166.6406,909.7656 C166.7813,909.9063 167.0156,910.0156 167.2344,910.0156 C167.5,910.0156 167.7656,909.875 167.9375,909.6563 C168.0469,909.5 168.0781,909.3125 168.0781,908.8906 L168.0781,907.4688 C168.0781,907.0313 168.0625,906.9063 167.9688,906.75 C167.8125,906.4844 167.5313,906.3438 167.2344,906.3438 C166.9375,906.3438 166.7344,906.4375 166.5156,906.75 L166.3438,906.6719 Z " fill="#000000"/><text fill="#000000" font-family="sans-serif" font-size="12" lengthAdjust="spacingAndGlyphs" textLength="10" x="178" y="915.1543">O</text><line style="stroke: #A80036; stroke-width: 1.5;" x1="150" x2="190" y1="927" y2="927"/><line style="stroke: #A80036; stroke-width: 1.5;" x1="150" x2="190" y1="935" y2="935"/><!--MD5=[5655ee3e2a0d028d03fe20f829576392]
class Square--><rect fill="#FEFECE" filter="url(#f1qoa4hqau8mq0)" height="48" id="Square" style="stroke: #A80036; stroke-width: 1.5;" width="75" x="926.5" y="568"/><ellipse cx="941.5" cy="584" fill="#ADD1B2" rx="11" ry="11" style="stroke: #A80036; stroke-width: 1.0;"/><path d="M943.8438,579.6719 C942.9063,579.2344 942.3125,579.0938 941.4375,579.0938 C938.8125,579.0938 936.8125,581.1719 936.8125,583.8906 L936.8125,585.0156 C936.8125,587.5938 938.9219,589.4844 941.8125,589.4844 C943.0313,589.4844 944.1875,589.1875 944.9375,588.6406 C945.5156,588.2344 945.8438,587.7813 945.8438,587.3906 C945.8438,586.9375 945.4531,586.5469 944.9844,586.5469 C944.7656,586.5469 944.5625,586.625 944.375,586.8125 C943.9219,587.2969 943.9219,587.2969 943.7344,587.3906 C943.3125,587.6563 942.625,587.7813 941.8594,587.7813 C939.8125,587.7813 938.5156,586.6875 938.5156,584.9844 L938.5156,583.8906 C938.5156,582.1094 939.7656,580.7969 941.5,580.7969 C942.0781,580.7969 942.6875,580.9531 943.1563,581.2031 C943.6406,581.4844 943.8125,581.7031 943.9063,582.1094 C943.9688,582.5156 944,582.6406 944.1406,582.7656 C944.2813,582.9063 944.5156,583.0156 944.7344,583.0156 C945,583.0156 945.2656,582.875 945.4375,582.6563 C945.5469,582.5 945.5781,582.3125 945.5781,581.8906 L945.5781,580.4688 C945.5781,580.0313 945.5625,579.9063 945.4688,579.75 C945.3125,579.4844 945.0313,579.3438 944.7344,579.3438 C944.4375,579.3438 944.2344,579.4375 944.0156,579.75 L943.8438,579.6719 Z " fill="#000000"/><text fill="#000000" font-family="sans-serif" font-size="12" lengthAdjust="spacingAndGlyphs" textLength="43" x="955.5" y="588.1543">Square</text><line style="stroke: #A80036; stroke-width: 1.5;" x1="927.5" x2="1000.5" y1="600" y2="600"/><line style="stroke: #A80036; stroke-width: 1.5;" x1="927.5" x2="1000.5" y1="608" y2="608"/><!--MD5=[8c7d7abc12e214c3cc12c9ab70edee11]
class Coordinate--><rect fill="#FEFECE" filter="url(#f1qoa4hqau8mq0)" height="48" id="Coordinate" style="stroke: #A80036; stroke-width: 1.5;" width="98" x="915" y="677"/><ellipse cx="930" cy="693" fill="#ADD1B2" rx="11" ry="11" style="stroke: #A80036; stroke-width: 1.0;"/><path d="M932.3438,688.6719 C931.4063,688.2344 930.8125,688.0938 929.9375,688.0938 C927.3125,688.0938 925.3125,690.1719 925.3125,692.8906 L925.3125,694.0156 C925.3125,696.5938 927.4219,698.4844 930.3125,698.4844 C931.5313,698.4844 932.6875,698.1875 933.4375,697.6406 C934.0156,697.2344 934.3438,696.7813 934.3438,696.3906 C934.3438,695.9375 933.9531,695.5469 933.4844,695.5469 C933.2656,695.5469 933.0625,695.625 932.875,695.8125 C932.4219,696.2969 932.4219,696.2969 932.2344,696.3906 C931.8125,696.6563 931.125,696.7813 930.3594,696.7813 C928.3125,696.7813 927.0156,695.6875 927.0156,693.9844 L927.0156,692.8906 C927.0156,691.1094 928.2656,689.7969 930,689.7969 C930.5781,689.7969 931.1875,689.9531 931.6563,690.2031 C932.1406,690.4844 932.3125,690.7031 932.4063,691.1094 C932.4688,691.5156 932.5,691.6406 932.6406,691.7656 C932.7813,691.9063 933.0156,692.0156 933.2344,692.0156 C933.5,692.0156 933.7656,691.875 933.9375,691.6563 C934.0469,691.5 934.0781,691.3125 934.0781,690.8906 L934.0781,689.4688 C934.0781,689.0313 934.0625,688.9063 933.9688,688.75 C933.8125,688.4844 933.5313,688.3438 933.2344,688.3438 C932.9375,688.3438 932.7344,688.4375 932.5156,688.75 L932.3438,688.6719 Z " fill="#000000"/><text fill="#000000" font-family="sans-serif" font-size="12" lengthAdjust="spacingAndGlyphs" textLength="66" x="944" y="697.1543">Coordinate</text><line style="stroke: #A80036; stroke-width: 1.5;" x1="916" x2="1012" y1="709" y2="709"/><line style="stroke: #A80036; stroke-width: 1.5;" x1="916" x2="1012" y1="717" y2="717"/><!--MD5=[05aedcff764caeeb5d443618a4d90de7]
class Row--><rect fill="#FEFECE" filter="url(#f1qoa4hqau8mq0)" height="48" id="Row" style="stroke: #A80036; stroke-width: 1.5;" width="57" x="299.5" y="443"/><ellipse cx="314.5" cy="459" fill="#ADD1B2" rx="11" ry="11" style="stroke: #A80036; stroke-width: 1.0;"/><path d="M316.8438,454.6719 C315.9063,454.2344 315.3125,454.0938 314.4375,454.0938 C311.8125,454.0938 309.8125,456.1719 309.8125,458.8906 L309.8125,460.0156 C309.8125,462.5938 311.9219,464.4844 314.8125,464.4844 C316.0313,464.4844 317.1875,464.1875 317.9375,463.6406 C318.5156,463.2344 318.8438,462.7813 318.8438,462.3906 C318.8438,461.9375 318.4531,461.5469 317.9844,461.5469 C317.7656,461.5469 317.5625,461.625 317.375,461.8125 C316.9219,462.2969 316.9219,462.2969 316.7344,462.3906 C316.3125,462.6563 315.625,462.7813 314.8594,462.7813 C312.8125,462.7813 311.5156,461.6875 311.5156,459.9844 L311.5156,458.8906 C311.5156,457.1094 312.7656,455.7969 314.5,455.7969 C315.0781,455.7969 315.6875,455.9531 316.1563,456.2031 C316.6406,456.4844 316.8125,456.7031 316.9063,457.1094 C316.9688,457.5156 317,457.6406 317.1406,457.7656 C317.2813,457.9063 317.5156,458.0156 317.7344,458.0156 C318,458.0156 318.2656,457.875 318.4375,457.6563 C318.5469,457.5 318.5781,457.3125 318.5781,456.8906 L318.5781,455.4688 C318.5781,455.0313 318.5625,454.9063 318.4688,454.75 C318.3125,454.4844 318.0313,454.3438 317.7344,454.3438 C317.4375,454.3438 317.2344,454.4375 317.0156,454.75 L316.8438,454.6719 Z " fill="#000000"/><text fill="#000000" font-family="sans-serif" font-size="12" lengthAdjust="spacingAndGlyphs" textLength="25" x="328.5" y="463.1543">Row</text><line style="stroke: #A80036; stroke-width: 1.5;" x1="300.5" x2="355.5" y1="475" y2="475"/><line style="stroke: #A80036; stroke-width: 1.5;" x1="300.5" x2="355.5" y1="483" y2="483"/><!--MD5=[e06ef809dd6be8ce79b58fe0a1161eb8]
class Column--><rect fill="#FEFECE" filter="url(#f1qoa4hqau8mq0)" height="48" id="Column" style="stroke: #A80036; stroke-width: 1.5;" width="76" x="392" y="443"/><ellipse cx="407" cy="459" fill="#ADD1B2" rx="11" ry="11" style="stroke: #A80036; stroke-width: 1.0;"/><path d="M409.3438,454.6719 C408.4063,454.2344 407.8125,454.0938 406.9375,454.0938 C404.3125,454.0938 402.3125,456.1719 402.3125,458.8906 L402.3125,460.0156 C402.3125,462.5938 404.4219,464.4844 407.3125,464.4844 C408.5313,464.4844 409.6875,464.1875 410.4375,463.6406 C411.0156,463.2344 411.3438,462.7813 411.3438,462.3906 C411.3438,461.9375 410.9531,461.5469 410.4844,461.5469 C410.2656,461.5469 410.0625,461.625 409.875,461.8125 C409.4219,462.2969 409.4219,462.2969 409.2344,462.3906 C408.8125,462.6563 408.125,462.7813 407.3594,462.7813 C405.3125,462.7813 404.0156,461.6875 404.0156,459.9844 L404.0156,458.8906 C404.0156,457.1094 405.2656,455.7969 407,455.7969 C407.5781,455.7969 408.1875,455.9531 408.6563,456.2031 C409.1406,456.4844 409.3125,456.7031 409.4063,457.1094 C409.4688,457.5156 409.5,457.6406 409.6406,457.7656 C409.7813,457.9063 410.0156,458.0156 410.2344,458.0156 C410.5,458.0156 410.7656,457.875 410.9375,457.6563 C411.0469,457.5 411.0781,457.3125 411.0781,456.8906 L411.0781,455.4688 C411.0781,455.0313 411.0625,454.9063 410.9688,454.75 C410.8125,454.4844 410.5313,454.3438 410.2344,454.3438 C409.9375,454.3438 409.7344,454.4375 409.5156,454.75 L409.3438,454.6719 Z " fill="#000000"/><text fill="#000000" font-family="sans-serif" font-size="12" lengthAdjust="spacingAndGlyphs" textLength="44" x="421" y="463.1543">Column</text><line style="stroke: #A80036; stroke-width: 1.5;" x1="393" x2="467" y1="475" y2="475"/><line style="stroke: #A80036; stroke-width: 1.5;" x1="393" x2="467" y1="483" y2="483"/><!--MD5=[2dff8a3d4bbb6c59757151578181d35d]
class MainDiagonal--><rect fill="#FEFECE" filter="url(#f1qoa4hqau8mq0)" height="48" id="MainDiagonal" style="stroke: #A80036; stroke-width: 1.5;" width="111" x="503.5" y="443"/><ellipse cx="518.5" cy="459" fill="#ADD1B2" rx="11" ry="11" style="stroke: #A80036; stroke-width: 1.0;"/><path d="M520.8438,454.6719 C519.9063,454.2344 519.3125,454.0938 518.4375,454.0938 C515.8125,454.0938 513.8125,456.1719 513.8125,458.8906 L513.8125,460.0156 C513.8125,462.5938 515.9219,464.4844 518.8125,464.4844 C520.0313,464.4844 521.1875,464.1875 521.9375,463.6406 C522.5156,463.2344 522.8438,462.7813 522.8438,462.3906 C522.8438,461.9375 522.4531,461.5469 521.9844,461.5469 C521.7656,461.5469 521.5625,461.625 521.375,461.8125 C520.9219,462.2969 520.9219,462.2969 520.7344,462.3906 C520.3125,462.6563 519.625,462.7813 518.8594,462.7813 C516.8125,462.7813 515.5156,461.6875 515.5156,459.9844 L515.5156,458.8906 C515.5156,457.1094 516.7656,455.7969 518.5,455.7969 C519.0781,455.7969 519.6875,455.9531 520.1563,456.2031 C520.6406,456.4844 520.8125,456.7031 520.9063,457.1094 C520.9688,457.5156 521,457.6406 521.1406,457.7656 C521.2813,457.9063 521.5156,458.0156 521.7344,458.0156 C522,458.0156 522.2656,457.875 522.4375,457.6563 C522.5469,457.5 522.5781,457.3125 522.5781,456.8906 L522.5781,455.4688 C522.5781,455.0313 522.5625,454.9063 522.4688,454.75 C522.3125,454.4844 522.0313,454.3438 521.7344,454.3438 C521.4375,454.3438 521.2344,454.4375 521.0156,454.75 L520.8438,454.6719 Z " fill="#000000"/><text fill="#000000" font-family="sans-serif" font-size="12" lengthAdjust="spacingAndGlyphs" textLength="79" x="532.5" y="463.1543">MainDiagonal</text><line style="stroke: #A80036; stroke-width: 1.5;" x1="504.5" x2="613.5" y1="475" y2="475"/><line style="stroke: #A80036; stroke-width: 1.5;" x1="504.5" x2="613.5" y1="483" y2="483"/><!--MD5=[0f6df31fde49cef09278e2483512ca7d]
class InvertedDiagonal--><rect fill="#FEFECE" filter="url(#f1qoa4hqau8mq0)" height="48" id="InvertedDiagonal" style="stroke: #A80036; stroke-width: 1.5;" width="134" x="130" y="443"/><ellipse cx="145" cy="459" fill="#ADD1B2" rx="11" ry="11" style="stroke: #A80036; stroke-width: 1.0;"/><path d="M147.3438,454.6719 C146.4063,454.2344 145.8125,454.0938 144.9375,454.0938 C142.3125,454.0938 140.3125,456.1719 140.3125,458.8906 L140.3125,460.0156 C140.3125,462.5938 142.4219,464.4844 145.3125,464.4844 C146.5313,464.4844 147.6875,464.1875 148.4375,463.6406 C149.0156,463.2344 149.3438,462.7813 149.3438,462.3906 C149.3438,461.9375 148.9531,461.5469 148.4844,461.5469 C148.2656,461.5469 148.0625,461.625 147.875,461.8125 C147.4219,462.2969 147.4219,462.2969 147.2344,462.3906 C146.8125,462.6563 146.125,462.7813 145.3594,462.7813 C143.3125,462.7813 142.0156,461.6875 142.0156,459.9844 L142.0156,458.8906 C142.0156,457.1094 143.2656,455.7969 145,455.7969 C145.5781,455.7969 146.1875,455.9531 146.6563,456.2031 C147.1406,456.4844 147.3125,456.7031 147.4063,457.1094 C147.4688,457.5156 147.5,457.6406 147.6406,457.7656 C147.7813,457.9063 148.0156,458.0156 148.2344,458.0156 C148.5,458.0156 148.7656,457.875 148.9375,457.6563 C149.0469,457.5 149.0781,457.3125 149.0781,456.8906 L149.0781,455.4688 C149.0781,455.0313 149.0625,454.9063 148.9688,454.75 C148.8125,454.4844 148.5313,454.3438 148.2344,454.3438 C147.9375,454.3438 147.7344,454.4375 147.5156,454.75 L147.3438,454.6719 Z " fill="#000000"/><text fill="#000000" font-family="sans-serif" font-size="12" lengthAdjust="spacingAndGlyphs" textLength="102" x="159" y="463.1543">InvertedDiagonal</text><line style="stroke: #A80036; stroke-width: 1.5;" x1="131" x2="263" y1="475" y2="475"/><line style="stroke: #A80036; stroke-width: 1.5;" x1="131" x2="263" y1="483" y2="483"/><!--MD5=[434cd2fe8549537c128785c8ce0a3fa2]
link TicTacToe to Player--><path codeLine="1" d="M619.7866,65.3828 C619.7866,65.3828 600.878,99.011 594,116 C581.348,147.252 571.952,184.517 566.099,211.47 " fill="none" id="TicTacToe-Player" style="stroke: #A80036; stroke-width: 1.0;"/><polygon fill="#A80036" points="563.362,224.538,569.1216,216.5488,564.3867,219.6441,561.2914,214.9093,563.362,224.538" style="stroke: #A80036; stroke-width: 1.0;"/><line style="stroke: #A80036; stroke-width: 1.0;" x1="564.3867" x2="566.0265" y1="219.6441" y2="211.8135"/><polygon fill="#A80036" points="625.984,55.107,619.46,58.1791,619.7866,65.3828,626.3106,62.3107,625.984,55.107" style="stroke: #A80036; stroke-width: 1.0;"/><text fill="#000000" font-family="sans-serif" font-size="13" lengthAdjust="spacingAndGlyphs" textLength="8" x="555.4502" y="213.8303">2</text><!--MD5=[a737d2231371e146ba098899a67f3b67]
link TicTacToe to Board--><path codeLine="2" d="M672.4289,63.6246 C672.4289,63.6246 869.747,262.163 931.642,324.442 " fill="none" id="TicTacToe-Board" style="stroke: #A80036; stroke-width: 1.0;"/><polygon fill="#A80036" points="940.931,333.788,937.4248,324.5844,937.4067,330.2412,931.7499,330.2232,940.931,333.788" style="stroke: #A80036; stroke-width: 1.0;"/><line style="stroke: #A80036; stroke-width: 1.0;" x1="937.4067" x2="931.7665" y1="330.2412" y2="324.567"/><polygon fill="#A80036" points="663.97,55.113,665.3622,62.1884,672.4289,63.6246,671.0366,56.5492,663.97,55.113" style="stroke: #A80036; stroke-width: 1.0;"/><!--MD5=[02ea7f29950e23bda8c82d72bcbd4b5e]
link TicTacToe to Turn--><path codeLine="3" d="M641,67.217 C641,67.217 641,91.502 641,102.563 " fill="none" id="TicTacToe-Turn" style="stroke: #A80036; stroke-width: 1.0;"/><polygon fill="#A80036" points="641,115.828,645,106.828,641,110.828,637,106.828,641,115.828" style="stroke: #A80036; stroke-width: 1.0;"/><line style="stroke: #A80036; stroke-width: 1.0;" x1="641" x2="641" y1="110.828" y2="102.828"/><polygon fill="#A80036" points="641,55.217,637,61.217,641,67.217,645,61.217,641,55.217" style="stroke: #A80036; stroke-width: 1.0;"/><!--MD5=[d81713d91ad05be3b975338c4816ee0b]
link Turn to Player--><path codeLine="5" d="M623.207,164.217 C610.528,180.763 593.433,203.07 580.07,220.506 " fill="none" id="Turn-to-Player" style="stroke: #A80036; stroke-width: 1.0;"/><polygon fill="#A80036" points="576.758,224.828,585.4075,220.1177,579.7994,220.8594,579.0577,215.2514,576.758,224.828" style="stroke: #A80036; stroke-width: 1.0;"/><text fill="#000000" font-family="sans-serif" font-size="13" lengthAdjust="spacingAndGlyphs" textLength="8" x="572.2835" y="213.796">2</text><!--MD5=[c1f7e88598f78d9459764ed93737eb14]
link Player to Board--><path codeLine="7" d="M593.162,255.974 C656.863,267.583 797.679,295.476 912,334 C916.328,335.458 920.79,337.141 925.196,338.919 " fill="none" id="Player-to-Board" style="stroke: #A80036; stroke-width: 1.0;"/><polygon fill="#A80036" points="929.947,340.879,923.1527,333.749,925.3249,338.9722,920.1017,341.1444,929.947,340.879" style="stroke: #A80036; stroke-width: 1.0;"/><!--MD5=[3ada97fffb5bcc4da390db27b64fa26e]
link Player to Piece--><path codeLine="8" d="M512.7242,250.5138 C512.7242,250.5138 77,268.583 77,357 C77,357 77,357 77,593 C77,664.396 321.529,689.734 424.816,697.252 " fill="none" id="Player-Piece" style="stroke: #A80036; stroke-width: 1.0;"/><polygon fill="#A80036" points="437.839,698.159,429.139,693.5426,432.8511,697.8112,428.5826,701.5233,437.839,698.159" style="stroke: #A80036; stroke-width: 1.0;"/><line style="stroke: #A80036; stroke-width: 1.0;" x1="432.8511" x2="424.8705" y1="697.8112" y2="697.255"/><polygon fill="#FFFFFF" points="524.722,250.283,518.6462,246.3991,512.7242,250.5138,518.8,254.3976,524.722,250.283" style="stroke: #A80036; stroke-width: 1.0;"/><text fill="#000000" font-family="sans-serif" font-size="13" lengthAdjust="spacingAndGlyphs" textLength="24" x="405.9728" y="693.3957">0..3</text><!--MD5=[1571e4e0b7cdbae74b04c97a95677c54]
link Player to Goal--><path codeLine="9" d="M559,285.217 C559,285.217 559,309.502 559,320.563 " fill="none" id="Player-Goal" style="stroke: #A80036; stroke-width: 1.0;"/><polygon fill="#A80036" points="559,333.828,563,324.828,559,328.828,555,324.828,559,333.828" style="stroke: #A80036; stroke-width: 1.0;"/><line style="stroke: #A80036; stroke-width: 1.0;" x1="559" x2="559" y1="328.828" y2="320.828"/><polygon fill="#FFFFFF" points="559,273.217,555,279.217,559,285.217,563,279.217,559,273.217" style="stroke: #A80036; stroke-width: 1.0;"/><!--MD5=[ebf52a6f230ff8b0d594dd9ce4cd7c5b]
link Player to Color--><path codeLine="10" d="M512.8256,249.1884 C512.8256,249.1884 6,254.409 6,357 C6,357 6,357 6,702 C6,746.027 51.2491,775.712 87.5148,792.433 " fill="none" id="Player-Color" style="stroke: #A80036; stroke-width: 1.0;"/><polygon fill="#A80036" points="99.8789,797.81,93.2205,790.5529,95.2936,795.8162,90.0304,797.8893,99.8789,797.81" style="stroke: #A80036; stroke-width: 1.0;"/><line style="stroke: #A80036; stroke-width: 1.0;" x1="95.2936" x2="87.9572" y1="795.8162" y2="792.6255"/><polygon fill="#A80036" points="524.825,249.311,518.8662,245.2499,512.8256,249.1884,518.7844,253.2495,524.825,249.311" style="stroke: #A80036; stroke-width: 1.0;"/><!--MD5=[68ab7a71f8552a80779fd7b46f32fc4f]
reverse link Action to PutAction--><path codeLine="13" d="M825.711,397.218 C812.033,412.463 796.733,429.516 784.79,442.828 " fill="none" id="Action-backto-PutAction" style="stroke: #A80036; stroke-width: 1.0;"/><polygon fill="none" points="820.603,392.429,839.169,382.217,831.024,401.779,820.603,392.429" style="stroke: #A80036; stroke-width: 1.0;"/><!--MD5=[48d67b7b46648ab6daeb4e900513da2f]
reverse link Action to MoveAction--><path codeLine="14" d="M896.679,396.737 C911.615,412.104 928.403,429.376 941.478,442.828 " fill="none" id="Action-backto-MoveAction" style="stroke: #A80036; stroke-width: 1.0;"/><polygon fill="none" points="891.487,401.438,882.566,382.217,901.526,391.68,891.487,401.438" style="stroke: #A80036; stroke-width: 1.0;"/><!--MD5=[2f378bb2f56593d68624f1790be1dbac]
link Piece to Color--><path codeLine="16" d="M426.4564,715.784 C426.4564,715.784 241.777,774.248 176.971,794.764 " fill="none" id="Piece-Color" style="stroke: #A80036; stroke-width: 1.0;"/><polygon fill="#A80036" points="164.383,798.749,174.1705,799.8468,169.1499,797.2402,171.7565,792.2197,164.383,798.749" style="stroke: #A80036; stroke-width: 1.0;"/><line style="stroke: #A80036; stroke-width: 1.0;" x1="169.1499" x2="176.777" y1="797.2402" y2="794.825"/><polygon fill="#A80036" points="437.897,712.163,430.9697,710.16,426.4564,715.784,433.3837,717.7871,437.897,712.163" style="stroke: #A80036; stroke-width: 1.0;"/><!--MD5=[cadd997a6c0d1b409cb2c707bfea899e]
reverse link Color to X--><path codeLine="18" d="M117.047,853.1046 C112.002,867.3088 106.559,882.637 102.2293,894.8279 " fill="none" id="Color-backto-X" style="stroke: #A80036; stroke-width: 1.0;"/><polygon fill="none" points="110.465,850.7215,123.755,834.217,123.658,855.4068,110.465,850.7215" style="stroke: #A80036; stroke-width: 1.0;"/><!--MD5=[da3122694a19f792a32b14ff12c4d304]
reverse link Color to O--><path codeLine="19" d="M146.953,853.1046 C151.998,867.3088 157.441,882.637 161.771,894.8279 " fill="none" id="Color-backto-O" style="stroke: #A80036; stroke-width: 1.0;"/><polygon fill="none" points="140.342,855.4068,140.245,834.217,153.535,850.7215,140.342,855.4068" style="stroke: #A80036; stroke-width: 1.0;"/><!--MD5=[54c4a35b40d33fcdb73798b37710015d]
link Goal to PutAction--><path codeLine="21" d="M588.523,367.904 C616.625,376.991 659.608,392.509 694,412 C707.797,419.819 721.859,430.122 733.725,439.631 " fill="none" id="Goal-to-PutAction" style="stroke: #A80036; stroke-width: 1.0; stroke-dasharray: 7.0,7.0;"/><polygon fill="#A80036" points="737.662,442.821,733.1892,434.0463,733.7778,439.6725,728.1517,440.2611,737.662,442.821" style="stroke: #A80036; stroke-width: 1.0;"/><text fill="#000000" font-family="sans-serif" font-size="13" lengthAdjust="spacingAndGlyphs" textLength="8" x="721.8879" y="431.7872">3</text><!--MD5=[8f805d0aa28b26faa3c8ac5f922b5186]
link Goal to MoveAction--><path codeLine="22" d="M588.781,366.868 C656.102,384.654 820.91,428.196 907.985,451.201 " fill="none" id="Goal-to-MoveAction" style="stroke: #A80036; stroke-width: 1.0; stroke-dasharray: 7.0,7.0;"/><polygon fill="#A80036" points="912.839,452.483,905.1592,446.3169,908.0049,451.2059,903.1158,454.0515,912.839,452.483" style="stroke: #A80036; stroke-width: 1.0;"/><text fill="#000000" font-family="sans-serif" font-size="13" lengthAdjust="spacingAndGlyphs" textLength="7" x="898.1523" y="446.4631">*</text><!--MD5=[15df82f68831714e43f722f58194f411]
link Goal to Square--><path codeLine="23" d="M579.313,382.398 C605.44,411.277 653.39,460.316 703,491 C773.963,534.891 867.351,564.937 921.022,579.934 " fill="none" id="Goal-to-Square" style="stroke: #A80036; stroke-width: 1.0; stroke-dasharray: 7.0,7.0;"/><polygon fill="#A80036" points="926.09,581.338,918.4856,575.0792,921.2717,580.0024,916.3485,582.7885,926.09,581.338" style="stroke: #A80036; stroke-width: 1.0;"/><text fill="#000000" font-family="sans-serif" font-size="13" lengthAdjust="spacingAndGlyphs" textLength="8" x="910.6248" y="575.1816">3</text><!--MD5=[4ad96441c8a01d959d4bf4f2a5e1a798]
link Board to Square--><path codeLine="25" d="M1009.941,364.3301 C1009.941,364.3301 1117.49,393.036 1134,443 C1147.63,484.248 1143.35,509.002 1111,538 C1084.05,562.164 1045.25,575.537 1014.28,582.804 " fill="none" id="Board-Square" style="stroke: #A80036; stroke-width: 1.0;"/><polygon fill="#A80036" points="1001.549,585.558,1011.1926,587.5584,1006.4353,584.4977,1009.496,579.7404,1001.549,585.558" style="stroke: #A80036; stroke-width: 1.0;"/><line style="stroke: #A80036; stroke-width: 1.0;" x1="1006.4353" x2="1014.255" y1="584.4977" y2="582.81"/><polygon fill="#A80036" points="998.103,362.365,1003.367,367.2935,1009.941,364.3301,1004.677,359.4015,998.103,362.365" style="stroke: #A80036; stroke-width: 1.0;"/><text fill="#000000" font-family="sans-serif" font-size="13" lengthAdjust="spacingAndGlyphs" textLength="24" x="1009.4459" y="580.4135">3x3</text><!--MD5=[d1718f8040beedd4df7f7517ac9b645a]
link Square to Coordinate--><path codeLine="26" d="M964,628.217 C964,628.217 964,652.502 964,663.563 " fill="none" id="Square-Coordinate" style="stroke: #A80036; stroke-width: 1.0;"/><polygon fill="#A80036" points="964,676.828,968,667.828,964,671.828,960,667.828,964,676.828" style="stroke: #A80036; stroke-width: 1.0;"/><line style="stroke: #A80036; stroke-width: 1.0;" x1="964" x2="964" y1="671.828" y2="663.828"/><polygon fill="#A80036" points="964,616.217,960,622.217,964,628.217,968,622.217,964,616.217" style="stroke: #A80036; stroke-width: 1.0;"/><!--MD5=[f6467046f93aba88bed66e3f7374a456]
link Square to Piece--><path codeLine="27" d="M925.1345,623.0466 C925.1345,623.0466 895.395,641.381 880,647 C753.849,693.041 593.085,700.093 515.692,700.554 " fill="none" id="Square-Piece" style="stroke: #A80036; stroke-width: 1.0;"/><polygon fill="#A80036" points="502.238,700.571,511.2433,704.5591,507.238,700.5644,511.2327,696.5591,502.238,700.571" style="stroke: #A80036; stroke-width: 1.0;"/><line style="stroke: #A80036; stroke-width: 1.0;" x1="507.238" x2="515.238" y1="700.5644" y2="700.555"/><polygon fill="#FFFFFF" points="934.998,616.212,927.7881,616.3414,925.1345,623.0466,932.3444,622.9171,934.998,616.212" style="stroke: #A80036; stroke-width: 1.0;"/><text fill="#000000" font-family="sans-serif" font-size="13" lengthAdjust="spacingAndGlyphs" textLength="24" x="510.1179" y="696.2374">0..1</text><!--MD5=[5dd37025bd56d3ce0dc94ae780f62769]
link Action to Piece--><path codeLine="29" d="M858.879,382.314 C856.426,410.661 848.642,458.71 824,491 C739.857,601.259 579.464,664.558 507.077,688.655 " fill="none" id="Action-to-Piece" style="stroke: #A80036; stroke-width: 1.0; stroke-dasharray: 7.0,7.0;"/><polygon fill="#A80036" points="502.02,690.322,511.8199,691.3026,506.7685,688.7563,509.3148,683.7049,502.02,690.322" style="stroke: #A80036; stroke-width: 1.0;"/><!--MD5=[d5b732a636ecb7f30d2b5d18fc14c0cd]
link Action to Square--><path codeLine="30" d="M894.613,374.763 C943.685,397.272 1028.02,436.623 1032,443 C1056.87,482.824 1020.87,533.251 992.5,563.772 " fill="none" id="Action-to-Square" style="stroke: #A80036; stroke-width: 1.0; stroke-dasharray: 7.0,7.0;"/><polygon fill="#A80036" points="988.731,567.76,997.8197,563.9659,992.1651,564.1259,992.0051,558.4713,988.731,567.76" style="stroke: #A80036; stroke-width: 1.0;"/><text fill="#000000" font-family="sans-serif" font-size="13" lengthAdjust="spacingAndGlyphs" textLength="39" x="1042" y="471.5669">target</text><!--MD5=[0e6c3ab9e6f64e017acb955460568e7c]
link MoveAction to Square--><path codeLine="31" d="M964,491.135 C964,511.494 964,541.191 964,562.908 " fill="none" id="MoveAction-to-Square" style="stroke: #A80036; stroke-width: 1.0; stroke-dasharray: 7.0,7.0;"/><polygon fill="#A80036" points="964,567.968,968,558.968,964,562.968,960,558.968,964,567.968" style="stroke: #A80036; stroke-width: 1.0;"/><text fill="#000000" font-family="sans-serif" font-size="13" lengthAdjust="spacingAndGlyphs" textLength="35" x="965" y="534.0669">origin</text><!--MD5=[cc08ae77311d3850838d7f60cf979d27]
reverse link Goal to Row--><path codeLine="33" d="M511.078,380.168 C473.595,396.868 420.258,420.943 374,443 C368.358,445.69 362.363,448.629 356.628,451.479 " fill="none" id="Goal-backto-Row" style="stroke: #A80036; stroke-width: 1.0;"/><polygon fill="none" points="508.245,373.767,529.365,372.046,513.928,386.562,508.245,373.767" style="stroke: #A80036; stroke-width: 1.0;"/><!--MD5=[21350569656573e18760c9f22b4a0078]
reverse link Goal to Column--><path codeLine="34" d="M515.521,395.064 C496.502,410.839 474.746,428.885 457.936,442.828 " fill="none" id="Goal-backto-Column" style="stroke: #A80036; stroke-width: 1.0;"/><polygon fill="none" points="511.146,389.598,531.009,382.217,520.084,400.374,511.146,389.598" style="stroke: #A80036; stroke-width: 1.0;"/><!--MD5=[a1bc088bb2b052fba23f5b19d584ba88]
reverse link Goal to MainDiagonal--><path codeLine="35" d="M559,402.578 C559,416.362 559,431.057 559,442.828 " fill="none" id="Goal-backto-MainDiagonal" style="stroke: #A80036; stroke-width: 1.0;"/><polygon fill="none" points="552,402.217,559,382.217,566,402.217,552,402.217" style="stroke: #A80036; stroke-width: 1.0;"/><!--MD5=[29f9a0939f51e848196471c67d635130]
reverse link Goal to InvertedDiagonal--><path codeLine="36" d="M510.182,373.43 C446.718,392.188 335.581,425.038 264.191,446.14 " fill="none" id="Goal-backto-InvertedDiagonal" style="stroke: #A80036; stroke-width: 1.0;"/><polygon fill="none" points="508.212,366.713,529.376,367.756,512.181,380.138,508.212,366.713" style="stroke: #A80036; stroke-width: 1.0;"/><!--MD5=[f104553f01f7b7ca77720c46b3402b60]
@startuml
TicTacToe *-down-> "2" Player
TicTacToe *-down-> Board
TicTacToe *-down-> Turn
 
Turn -down-> "2" Player

Player -down-> Board
Player o-down-> "0..3" Piece
Player o-down-> Goal
Player *-down-> Color


Action <|-down- PutAction
Action <|-down- MoveAction

Piece *-down-> Color

Color <|-down- X
Color <|-down- O

Goal ..> "3" PutAction
Goal ..> "*" MoveAction
Goal ..> "3" Square

Board *-down-> "3x3" Square
Square *-down-> Coordinate
Square o-down-> "0..1" Piece

Action .down.> Piece
Action .down.> Square : target
MoveAction .down.> Square : origin

Goal <|-down- Row
Goal <|-down- Column
Goal <|-down- MainDiagonal
Goal <|-down- InvertedDiagonal
@enduml

PlantUML version 1.2020.20beta8(Unknown compile time)
(GPL source distribution)
Java Runtime: Java(TM) SE Runtime Environment
JVM: Java HotSpot(TM) 64-Bit Server VM
Default Encoding: UTF-8
Language: en
Country: US
--></g></svg>