<?xml version="1.0" encoding="UTF-8" standalone="no"?><svg xmlns="http://www.w3.org/2000/svg" xmlns:xlink="http://www.w3.org/1999/xlink" contentScriptType="application/ecmascript" contentStyleType="text/css" height="800px" preserveAspectRatio="none" style="width:551px;height:800px;" version="1.1" viewBox="0 0 551 800" width="551px" zoomAndPan="magnify"><defs><filter height="300%" id="fus33ooclgi7e" width="300%" x="-1" y="-1"><feGaussianBlur result="blurOut" stdDeviation="2.0"/><feColorMatrix in="blurOut" result="blurOut2" type="matrix" values="0 0 0 0 0 0 0 0 0 0 0 0 0 0 0 0 0 0 .4 0"/><feOffset dx="4.0" dy="4.0" in="blurOut2" result="blurOut3"/><feBlend in="SourceGraphic" in2="blurOut3" mode="normal"/></filter></defs><g><g id="A"><rect fill="#FEFECE" filter="url(#fus33ooclgi7e)" height="50" rx="12.5" ry="12.5" style="stroke:#A80036;stroke-width:1.5;" width="83" x="166.6772" y="87"/><line style="stroke:#A80036;stroke-width:1.5;" x1="166.6772" x2="249.6772" y1="113.2969" y2="113.2969"/><text fill="#000000" font-family="sans-serif" font-size="14" lengthAdjust="spacing" textLength="63" x="176.6772" y="104.9951">IN_GAME</text></g><g id="B"><rect fill="#FEFECE" filter="url(#fus33ooclgi7e)" height="50" rx="12.5" ry="12.5" style="stroke:#A80036;stroke-width:1.5;" width="50" x="183.1772" y="214"/><line style="stroke:#A80036;stroke-width:1.5;" x1="183.1772" x2="233.1772" y1="240.2969" y2="240.2969"/><text fill="#000000" font-family="sans-serif" font-size="14" lengthAdjust="spacing" textLength="0" x="210.1772" y="231.9951"/></g><g id="C"><rect fill="#FEFECE" filter="url(#fus33ooclgi7e)" height="50" rx="12.5" ry="12.5" style="stroke:#A80036;stroke-width:1.5;" width="50" x="70.177" y="641"/><line style="stroke:#A80036;stroke-width:1.5;" x1="70.177" x2="120.177" y1="667.2969" y2="667.2969"/><text fill="#000000" font-family="sans-serif" font-size="14" lengthAdjust="spacing" textLength="0" x="97.177" y="658.9951"/></g><g id="D"><rect fill="#FEFECE" filter="url(#fus33ooclgi7e)" height="50" rx="12.5" ry="12.5" style="stroke:#A80036;stroke-width:1.5;" width="50" x="21.1769" y="481"/><line style="stroke:#A80036;stroke-width:1.5;" x1="21.1769" x2="71.1769" y1="507.2969" y2="507.2969"/><text fill="#000000" font-family="sans-serif" font-size="14" lengthAdjust="spacing" textLength="0" x="48.1769" y="498.9951"/></g><g id="E"><rect fill="#FEFECE" filter="url(#fus33ooclgi7e)" height="50" rx="12.5" ry="12.5" style="stroke:#A80036;stroke-width:1.5;" width="50" x="389.1772" y="561"/><line style="stroke:#A80036;stroke-width:1.5;" x1="389.1772" x2="439.1772" y1="587.2969" y2="587.2969"/><text fill="#000000" font-family="sans-serif" font-size="14" lengthAdjust="spacing" textLength="0" x="416.1772" y="578.9951"/></g><polygon fill="#FEFECE" filter="url(#fus33ooclgi7e)" points="208.1772,341,220.1772,353,208.1772,365,196.1772,353,208.1772,341" style="stroke:#A80036;stroke-width:1.5;"/><ellipse cx="208.1772" cy="16" fill="#000000" filter="url(#fus33ooclgi7e)" rx="10" ry="10" style="stroke:none;stroke-width:1.0;"/><ellipse cx="262.1772" cy="778" filter="url(#fus33ooclgi7e)" rx="10" ry="10" style="stroke:#000000;stroke-width:1.0;fill:none;"/><ellipse cx="262.6772" cy="778.5" fill="#000000" rx="6" ry="6" style="stroke:none;stroke-width:1.0;"/><!--MD5=[ba0fdac9700f9825b754e67fda8ee1b2]
link *start to A--><path d="M208.1772,26.013 C208.1772,38.698 208.1772,62.409 208.1772,81.57 " fill="none" id="*start-to-A" style="stroke:#A80036;stroke-width:1.0;"/><polygon fill="#A80036" points="208.1772,86.84,212.1772,77.84,208.1772,81.84,204.1772,77.84,208.1772,86.84" style="stroke:#A80036;stroke-width:1.0;"/><!--MD5=[5e2eec62a50b26b6b0db6c12e4ee289c]
link A to B--><path d="M208.1772,137.101 C208.1772,157.593 208.1772,187.076 208.1772,208.884 " fill="none" id="A-to-B" style="stroke:#A80036;stroke-width:1.0;"/><polygon fill="#A80036" points="208.1772,213.973,212.1772,204.973,208.1772,208.973,204.1772,204.973,208.1772,213.973" style="stroke:#A80036;stroke-width:1.0;"/><text fill="#000000" font-family="sans-serif" font-size="13" lengthAdjust="spacing" textLength="219" x="209.1772" y="180.0669">Current turn player requests Redo</text><!--MD5=[422745d42cbca4f6ecc2b1bb02aec555]
link B to if--><path d="M208.1772,264.027 C208.1772,285.579 208.1772,316.634 208.1772,335.501 " fill="none" id="B-to-if" style="stroke:#A80036;stroke-width:1.0;"/><polygon fill="#A80036" points="208.1772,340.941,212.1772,331.941,208.1772,335.941,204.1772,331.941,208.1772,340.941" style="stroke:#A80036;stroke-width:1.0;"/><text fill="#000000" font-family="sans-serif" font-size="13" lengthAdjust="spacing" textLength="192" x="209.1772" y="307.0669">System shows updated board</text><!--MD5=[f4e621062d4e211fc384cf8c6b6df496]
link if to D--><path d="M199.9682,357.107 C185.2652,362.942 153.9452,376.628 132.1772,395 C104.2734,418.55 79.4333,452.468 63.7116,476.401 " fill="none" id="if-to-D" style="stroke:#A80036;stroke-width:1.0;"/><polygon fill="#A80036" points="60.8834,480.749,69.1445,475.3867,63.6102,476.558,62.4389,471.0238,60.8834,480.749" style="stroke:#A80036;stroke-width:1.0;"/><text fill="#000000" font-family="sans-serif" font-size="13" lengthAdjust="spacing" textLength="66" x="219.6772" y="408.0669">[redoable]</text><path d="M137.1772,417.1328 L137.1772,442.1328 L364.1772,442.1328 L364.1772,427.1328 L354.1772,417.1328 L137.1772,417.1328 " fill="#FBFB77" filter="url(#fus33ooclgi7e)" style="stroke:#A80036;stroke-width:1.0;"/><path d="M354.1772,417.1328 L354.1772,427.1328 L364.1772,427.1328 L354.1772,417.1328 " fill="#FBFB77" style="stroke:#A80036;stroke-width:1.0;"/><text fill="#000000" font-family="sans-serif" font-size="13" lengthAdjust="spacing" textLength="206" x="143.1772" y="434.1997">undo has been made previously</text><!--MD5=[fbcf4d8b63b0d06d3e3c8b74b14e3ec9]
link if to E--><path d="M218.5292,355.062 C251.7592,358.685 354.8612,371.641 377.1772,395 C418.8062,438.576 420.2692,514.336 417.4102,555.807 " fill="none" id="if-to-E" style="stroke:#A80036;stroke-width:1.0;"/><polygon fill="#A80036" points="417.0232,560.935,421.6906,552.2624,417.4003,555.9492,413.7134,551.6589,417.0232,560.935" style="stroke:#A80036;stroke-width:1.0;"/><!--MD5=[be418e527c743f4eb8fec3865420733b]
link D to C--><path d="M30.4581,531.217 C18.4472,553.023 6,585.473 19.1769,611 C28.8814,629.8 48.4892,643.48 65.3573,652.367 " fill="none" id="D-to-C" style="stroke:#A80036;stroke-width:1.0;"/><polygon fill="#A80036" points="70.0318,654.746,63.8261,647.0981,65.576,652.4775,60.1966,654.2274,70.0318,654.746" style="stroke:#A80036;stroke-width:1.0;"/><text fill="#000000" font-family="sans-serif" font-size="13" lengthAdjust="spacing" textLength="351" x="20.1769" y="590.5669">System shows Menu with Play, Undo and Redo options</text><!--MD5=[6a85fad97473f3ca89fe62758889412b]
link C to *end--><path d="M105.216,691.1791 C112.7507,706.5883 124.4692,725.8681 140.1772,738 C172.8992,763.273 222.4482,772.4075 247.1172,775.5144 " fill="none" id="C-to-*end" style="stroke:#A80036;stroke-width:1.0;"/><polygon fill="#A80036" points="252.2702,776.1203,243.7993,771.096,247.3044,775.536,242.8644,779.0412,252.2702,776.1203" style="stroke:#A80036;stroke-width:1.0;"/><text fill="#000000" font-family="sans-serif" font-size="13" lengthAdjust="spacing" textLength="230" x="141.1772" y="734.0669">System allows Play, Undo and Redo</text><!--MD5=[b4ae64609a665d46448790142bade235]
link E to *end--><path d="M414.8102,611.205 C414.3392,644.085 408.5762,702.7905 376.1772,738 C349.8402,766.6207 301.6222,774.2399 277.2012,776.2667 " fill="none" id="E-to-*end" style="stroke:#A80036;stroke-width:1.0;"/><polygon fill="#A80036" points="272.0892,776.6372,281.3548,779.9762,277.0761,776.2758,280.7765,771.9971,272.0892,776.6372" style="stroke:#A80036;stroke-width:1.0;"/><text fill="#000000" font-family="sans-serif" font-size="13" lengthAdjust="spacing" textLength="124" x="416.1772" y="655.5669">System allows Play</text><text fill="#000000" font-family="sans-serif" font-size="13" lengthAdjust="spacing" textLength="130" x="413.1772" y="670.6997">System allows Redo</text><text fill="#000000" font-family="sans-serif" font-size="13" lengthAdjust="spacing" textLength="130" x="413.1772" y="685.8325">System allows Undo</text><!--MD5=[865d784c318f84ad3dd4cb6062110648]
@startuml
state A as "IN_GAME"
state B as " "
state C as " "
state D as " "
state E as " "
state if <<choice>>

[*] - -> A
A - -> B: Current turn player requests Redo
B - -> if: System shows updated board
if - -> D: [redoable]
note on link
    undo has been made previously
end note
if - -> E
D - -> C: System shows Menu with Play, Undo and Redo options
C - -> [*]: System allows Play, Undo and Redo
E - -> [*]:  System allows Play\nSystem allows Redo\nSystem allows Undo
@enduml

PlantUML version 1.2021.4beta3(Unknown compile time)
(GPL source distribution)
Java Runtime: Java(TM) SE Runtime Environment
JVM: Java HotSpot(TM) 64-Bit Server VM
Default Encoding: UTF-8
Language: en
Country: US
--></g></svg>