<?xml version="1.0" encoding="UTF-8" standalone="no"?><svg xmlns="http://www.w3.org/2000/svg" xmlns:xlink="http://www.w3.org/1999/xlink" contentScriptType="application/ecmascript" contentStyleType="text/css" height="565px" preserveAspectRatio="none" style="width:275px;height:565px;" version="1.1" viewBox="0 0 275 565" width="275px" zoomAndPan="magnify"><defs><filter height="300%" id="ffy392mhkatpl" width="300%" x="-1" y="-1"><feGaussianBlur result="blurOut" stdDeviation="2.0"/><feColorMatrix in="blurOut" result="blurOut2" type="matrix" values="0 0 0 0 0 0 0 0 0 0 0 0 0 0 0 0 0 0 .4 0"/><feOffset dx="4.0" dy="4.0" in="blurOut2" result="blurOut3"/><feBlend in="SourceGraphic" in2="blurOut3" mode="normal"/></filter></defs><g><!--MD5=[f4e70ef68289585296b9045165e58692]
cluster controllers--><polygon fill="#FFFFFF" filter="url(#ffy392mhkatpl)" points="16,459.5,111,459.5,118,481.7969,148,481.7969,148,558.5,16,558.5,16,459.5" style="stroke:#000000;stroke-width:1.5;"/><line style="stroke:#000000;stroke-width:1.5;" x1="16" x2="118" y1="481.7969" y2="481.7969"/><text fill="#000000" font-family="sans-serif" font-size="14" font-weight="bold" lengthAdjust="spacing" textLength="89" x="20" y="474.4951">controllers</text><!--MD5=[e2a75efa8a0f57c2afae8bf75386f79c]
cluster views--><polygon fill="#FFFFFF" filter="url(#ffy392mhkatpl)" points="28,170.5,79,170.5,86,192.7969,258,192.7969,258,388.5,28,388.5,28,170.5" style="stroke:#000000;stroke-width:1.5;"/><line style="stroke:#000000;stroke-width:1.5;" x1="28" x2="86" y1="192.7969" y2="192.7969"/><text fill="#000000" font-family="sans-serif" font-size="14" font-weight="bold" lengthAdjust="spacing" textLength="45" x="32" y="185.4951">views</text><rect fill="#FEFECE" filter="url(#ffy392mhkatpl)" height="47.9375" style="stroke:#A80036;stroke-width:1.5;" width="100" x="32" y="494.5"/><text fill="#000000" font-family="sans-serif" font-size="12" lengthAdjust="spacing" textLength="81" x="41.5" y="507.6387">exitController</text><text fill="#000000" font-family="sans-serif" font-size="12" lengthAdjust="spacing" textLength="86" x="39" y="521.6074">:PlayController</text><line style="stroke:#A80036;stroke-width:1.5;" x1="33" x2="131" y1="526.4375" y2="526.4375"/><rect fill="#FEFECE" filter="url(#ffy392mhkatpl)" height="33.9688" style="stroke:#A80036;stroke-width:1.5;" width="66" x="46" y="205.5"/><text fill="#000000" font-family="sans-serif" font-size="12" lengthAdjust="spacing" textLength="52" x="53" y="218.6387">PlayView</text><line style="stroke:#A80036;stroke-width:1.5;" x1="47" x2="111" y1="223.4688" y2="223.4688"/><rect fill="#FEFECE" filter="url(#ffy392mhkatpl)" height="33.9688" style="stroke:#A80036;stroke-width:1.5;" width="75" x="44.5" y="338.5"/><text fill="#000000" font-family="sans-serif" font-size="12" lengthAdjust="spacing" textLength="61" x="51.5" y="351.6387">MenuView</text><line style="stroke:#A80036;stroke-width:1.5;" x1="45.5" x2="118.5" y1="356.4688" y2="356.4688"/><!--MD5=[fb2f237e4154b78a31e896754c8f6e24]
entity Playerr--><ellipse cx="79" cy="14" fill="#FEFECE" filter="url(#ffy392mhkatpl)" rx="8" ry="8" style="stroke:#A80036;stroke-width:1.5;"/><path d="M79,22 L79,49 M66,30 L92,30 M79,49 L66,64 M79,49 L92,64 " fill="none" filter="url(#ffy392mhkatpl)" style="stroke:#A80036;stroke-width:1.5;"/><text fill="#000000" font-family="sans-serif" font-size="14" lengthAdjust="spacing" textLength="44" x="57" y="82.4951">Player</text><!--MD5=[0b62945baee8d22da13b207ab2370f57]
link Playerr to PlayView--><path codeLine="23" d="M79,85.824 C79,121.431 79,172.226 79,200.482 " fill="none" id="Playerr-to-PlayView" style="stroke:#A80036;stroke-width:1.0;"/><polygon fill="#A80036" points="79,205.487,83,196.487,79,200.487,75,196.487,79,205.487" style="stroke:#A80036;stroke-width:1.0;"/><path d="M84,120.5 L84,145.5 L139,145.5 L139,130.5 L129,120.5 L84,120.5 " fill="#FBFB77" filter="url(#ffy392mhkatpl)" style="stroke:#A80036;stroke-width:1.0;"/><path d="M129,120.5 L129,130.5 L139,130.5 L129,120.5 " fill="#FBFB77" style="stroke:#A80036;stroke-width:1.0;"/><text fill="#000000" font-family="sans-serif" font-size="13" lengthAdjust="spacing" textLength="34" x="90" y="137.5669">exit()</text><!--MD5=[784b7cd0a72be97acc3c01f2ec880361]
link PlayView to MenuView--><path codeLine="27" d="M79.3679,239.563 C79.9054,263.036 80.9067,306.76 81.5074,332.988 " fill="none" id="PlayView-to-MenuView" style="stroke:#A80036;stroke-width:1.0;stroke-dasharray:7.0,7.0;"/><polygon fill="#A80036" points="81.6291,338.305,85.4223,329.2159,81.5148,333.3063,77.4244,329.3988,81.6291,338.305" style="stroke:#A80036;stroke-width:1.0;"/><path d="M86,274.5 L86,299.5 L235,299.5 L235,284.5 L225,274.5 L86,274.5 " fill="#FBFB77" filter="url(#ffy392mhkatpl)" style="stroke:#A80036;stroke-width:1.0;"/><path d="M225,274.5 L225,284.5 L235,284.5 L225,274.5 " fill="#FBFB77" style="stroke:#A80036;stroke-width:1.0;"/><text fill="#000000" font-family="sans-serif" font-size="13" lengthAdjust="spacing" textLength="128" x="92" y="291.5669">write(exitController)</text><!--MD5=[e067ccc00e917b2dc2de08ea966bf1ed]
link MenuView to ExitController--><path codeLine="31" d="M82,372.526 C82,399.705 82,455.183 82,489.0785 " fill="none" id="MenuView-to-ExitController" style="stroke:#A80036;stroke-width:1.0;stroke-dasharray:7.0,7.0;"/><polygon fill="#A80036" points="82,494.3255,86,485.3255,82,489.3255,78,485.3255,82,494.3255" style="stroke:#A80036;stroke-width:1.0;"/><path d="M87,409.5 L87,434.5 L142,434.5 L142,419.5 L132,409.5 L87,409.5 " fill="#FBFB77" filter="url(#ffy392mhkatpl)" style="stroke:#A80036;stroke-width:1.0;"/><path d="M132,409.5 L132,419.5 L142,419.5 L132,409.5 " fill="#FBFB77" style="stroke:#A80036;stroke-width:1.0;"/><text fill="#000000" font-family="sans-serif" font-size="13" lengthAdjust="spacing" textLength="34" x="93" y="426.5669">exit()</text><!--MD5=[3fe21ba2c7a484c99aa53da98984a2fc]
@startuml
allow_mixing

actor :Player: as Playerr

package controllers  {
    object "exitController\n:PlayController" as ExitController{

    }
 }


package views {

    object PlayView{

    }

    object MenuView {

    }
 }

Playerr - -> PlayView
note on link
    exit()
end note
PlayView ..> MenuView
note on link
    write(exitController)
end note
MenuView ..> ExitController
note on link
    exit()
end note
@enduml

PlantUML version 1.2021.4beta3(Unknown compile time)
(GPL source distribution)
Java Runtime: Java(TM) SE Runtime Environment
JVM: Java HotSpot(TM) 64-Bit Server VM
Default Encoding: UTF-8
Language: en
Country: US
--></g></svg>