<?xml version="1.0" encoding="UTF-8" standalone="no"?><svg xmlns="http://www.w3.org/2000/svg" xmlns:xlink="http://www.w3.org/1999/xlink" contentScriptType="application/ecmascript" contentStyleType="text/css" height="175px" preserveAspectRatio="none" style="width:208px;height:175px;" version="1.1" viewBox="0 0 208 175" width="208px" zoomAndPan="magnify"><defs><filter height="300%" id="fivdw4dkvzcdm" width="300%" x="-1" y="-1"><feGaussianBlur result="blurOut" stdDeviation="2.0"/><feColorMatrix in="blurOut" result="blurOut2" type="matrix" values="0 0 0 0 0 0 0 0 0 0 0 0 0 0 0 0 0 0 .4 0"/><feOffset dx="4.0" dy="4.0" in="blurOut2" result="blurOut3"/><feBlend in="SourceGraphic" in2="blurOut3" mode="normal"/></filter></defs><g><!--MD5=[de2effd8dc5bf946a609466312d0f75f]
entity Player--><ellipse cx="28" cy="53.5" fill="#FEFECE" filter="url(#fivdw4dkvzcdm)" rx="8" ry="8" style="stroke: #A80036; stroke-width: 1.5;"/><path d="M28,61.5 L28,88.5 M15,69.5 L41,69.5 M28,88.5 L15,103.5 M28,88.5 L41,103.5 " fill="none" filter="url(#fivdw4dkvzcdm)" style="stroke: #A80036; stroke-width: 1.5;"/><text fill="#000000" font-family="sans-serif" font-size="14" lengthAdjust="spacingAndGlyphs" textLength="44" x="6" y="121.9951">Player</text><ellipse cx="153.663" cy="20.5236" fill="#FEFECE" filter="url(#fivdw4dkvzcdm)" rx="29.163" ry="14.5236" style="stroke: #A80036; stroke-width: 1.5;"/><text fill="#000000" font-family="sans-serif" font-size="14" lengthAdjust="spacingAndGlyphs" textLength="37" x="135.163" y="25.1721">Start</text><ellipse cx="153.5061" cy="84.5236" fill="#FEFECE" filter="url(#fivdw4dkvzcdm)" rx="23.5061" ry="14.5236" style="stroke: #A80036; stroke-width: 1.5;"/><text fill="#000000" font-family="sans-serif" font-size="14" lengthAdjust="spacingAndGlyphs" textLength="29" x="139.0061" y="89.1721">Play</text><ellipse cx="153.3051" cy="148.5236" fill="#FEFECE" filter="url(#fivdw4dkvzcdm)" rx="43.3051" ry="14.5236" style="stroke: #A80036; stroke-width: 1.5;"/><text fill="#000000" font-family="sans-serif" font-size="14" lengthAdjust="spacingAndGlyphs" textLength="57" x="124.8051" y="153.1721">Resume</text><!--MD5=[39353cd92ba960c69c4d2a9385fee2c7]
link Player to Start--><path d="M50.2304,73.498 C71.8641,62.287 105.3776,44.92 128.094,33.148 " fill="none" id="Player-to-Start" style="stroke: #A80036; stroke-width: 1.0;"/><polygon fill="#A80036" points="132.769,30.725,122.9379,31.3167,128.3302,33.0265,126.6204,38.4188,132.769,30.725" style="stroke: #A80036; stroke-width: 1.0;"/><!--MD5=[9a505df3ac87f02537cb93af365c2474]
link Player to Play--><path d="M50.2304,84.5 C70.7892,84.5 102.0766,84.5 124.63,84.5 " fill="none" id="Player-to-Play" style="stroke: #A80036; stroke-width: 1.0;"/><polygon fill="#A80036" points="129.876,84.5,120.876,80.5,124.876,84.5,120.876,88.5,129.876,84.5" style="stroke: #A80036; stroke-width: 1.0;"/><!--MD5=[5fec2ab2a197ce562aec9d83f689b0ce]
link Player to Resume--><path d="M50.2304,95.502 C70.7052,106.1124 101.821,122.2372 124.353,133.9139 " fill="none" id="Player-to-Resume" style="stroke: #A80036; stroke-width: 1.0;"/><polygon fill="#A80036" points="129.024,136.3344,122.8729,128.6425,124.5845,134.0343,119.1927,135.7458,129.024,136.3344" style="stroke: #A80036; stroke-width: 1.0;"/><!--MD5=[116462af4d4a26cc8232ad0009b148d8]
@startuml
left to right direction
actor Player
usecase Start
usecase Play
usecase Resume

Player - -> Start
Player - -> Play
Player - -> Resume
@enduml

PlantUML version 1.2020.20beta10(Unknown compile time)
(GPL source distribution)
Java Runtime: Java(TM) SE Runtime Environment
JVM: Java HotSpot(TM) 64-Bit Server VM
Default Encoding: UTF-8
Language: en
Country: US
--></g></svg>