<?xml version="1.0" encoding="UTF-8" standalone="no"?><svg xmlns="http://www.w3.org/2000/svg" xmlns:xlink="http://www.w3.org/1999/xlink" contentScriptType="application/ecmascript" contentStyleType="text/css" height="303px" preserveAspectRatio="none" style="width:236px;height:303px;" version="1.1" viewBox="0 0 236 303" width="236px" zoomAndPan="magnify"><defs><filter height="300%" id="f16akvib4m383a" width="300%" x="-1" y="-1"><feGaussianBlur result="blurOut" stdDeviation="2.0"/><feColorMatrix in="blurOut" result="blurOut2" type="matrix" values="0 0 0 0 0 0 0 0 0 0 0 0 0 0 0 0 0 0 .4 0"/><feOffset dx="4.0" dy="4.0" in="blurOut2" result="blurOut3"/><feBlend in="SourceGraphic" in2="blurOut3" mode="normal"/></filter></defs><g><!--MD5=[de2effd8dc5bf946a609466312d0f75f]
entity Player--><ellipse cx="28" cy="117.5" fill="#FEFECE" filter="url(#f16akvib4m383a)" rx="8" ry="8" style="stroke: #A80036; stroke-width: 1.5;"/><path d="M28,125.5 L28,152.5 M15,133.5 L41,133.5 M28,152.5 L15,167.5 M28,152.5 L41,167.5 " fill="none" filter="url(#f16akvib4m383a)" style="stroke: #A80036; stroke-width: 1.5;"/><text fill="#000000" font-family="sans-serif" font-size="14" lengthAdjust="spacingAndGlyphs" textLength="44" x="6" y="185.9951">Player</text><ellipse cx="167.663" cy="20.5236" fill="#FEFECE" filter="url(#f16akvib4m383a)" rx="29.163" ry="14.5236" style="stroke: #A80036; stroke-width: 1.5;"/><text fill="#000000" font-family="sans-serif" font-size="14" lengthAdjust="spacingAndGlyphs" textLength="37" x="149.163" y="25.1721">Start</text><ellipse cx="167.4472" cy="84.5236" fill="#FEFECE" filter="url(#f16akvib4m383a)" rx="57.4472" ry="14.5236" style="stroke: #A80036; stroke-width: 1.5;"/><text fill="#000000" font-family="sans-serif" font-size="14" lengthAdjust="spacingAndGlyphs" textLength="77" x="128.9472" y="89.1721">Movement</text><ellipse cx="167.4558" cy="148.5236" fill="#FEFECE" filter="url(#f16akvib4m383a)" rx="28.4558" ry="14.5236" style="stroke: #A80036; stroke-width: 1.5;"/><text fill="#000000" font-family="sans-serif" font-size="14" lengthAdjust="spacingAndGlyphs" textLength="36" x="149.4558" y="153.1721">Undo</text><ellipse cx="167.663" cy="212.5236" fill="#FEFECE" filter="url(#f16akvib4m383a)" rx="29.163" ry="14.5236" style="stroke: #A80036; stroke-width: 1.5;"/><text fill="#000000" font-family="sans-serif" font-size="14" lengthAdjust="spacingAndGlyphs" textLength="37" x="149.163" y="217.1721">Redo</text><ellipse cx="167.3051" cy="276.5236" fill="#FEFECE" filter="url(#f16akvib4m383a)" rx="43.3051" ry="14.5236" style="stroke: #A80036; stroke-width: 1.5;"/><text fill="#000000" font-family="sans-serif" font-size="14" lengthAdjust="spacingAndGlyphs" textLength="57" x="138.8051" y="281.1721">Resume</text><!--MD5=[39353cd92ba960c69c4d2a9385fee2c7]
link Player to Start--><path d="M50.0024,118.362 C65.1129,98.112 86.8412,71.717 110,52.5 C119.329,44.759 130.789,37.875 140.945,32.494 " fill="none" id="Player-to-Start" style="stroke: #A80036; stroke-width: 1.0;"/><polygon fill="#A80036" points="145.506,30.13,135.6747,30.718,141.0663,32.4298,139.3544,37.8214,145.506,30.13" style="stroke: #A80036; stroke-width: 1.0;"/><!--MD5=[1e5622e419e61827803d8907ecf40cdc]
link Player to Movement--><path d="M50.183,138.64 C72.5931,128.209 108.229,111.623 134.156,99.555 " fill="none" id="Player-to-Movement" style="stroke: #A80036; stroke-width: 1.0;"/><polygon fill="#A80036" points="138.879,97.356,129.0316,97.5277,134.346,99.466,132.4077,104.7804,138.879,97.356" style="stroke: #A80036; stroke-width: 1.0;"/><!--MD5=[0380c48cc03698e9c08b2a5affc527cb]
link Player to Undo--><path d="M50.183,148.5 C72.5001,148.5 107.933,148.5 133.833,148.5 " fill="none" id="Player-to-Undo" style="stroke: #A80036; stroke-width: 1.0;"/><polygon fill="#A80036" points="138.879,148.5,129.879,144.5,133.879,148.5,129.879,152.5,138.879,148.5" style="stroke: #A80036; stroke-width: 1.0;"/><!--MD5=[714833a1def7c2d3f9278f33fd9da27b]
link Player to Redo--><path d="M50.183,158.36 C74.5788,169.715 114.648,188.365 140.804,200.5395 " fill="none" id="Player-to-Redo" style="stroke: #A80036; stroke-width: 1.0;"/><polygon fill="#A80036" points="145.519,202.7341,139.0475,195.3098,140.986,200.6242,135.6716,202.5626,145.519,202.7341" style="stroke: #A80036; stroke-width: 1.0;"/><!--MD5=[5fec2ab2a197ce562aec9d83f689b0ce]
link Player to Resume--><path d="M50.0024,178.638 C65.1129,198.8883 86.8412,225.2835 110,244.5 C117.979,251.1204 127.517,257.1141 136.464,262.0768 " fill="none" id="Player-to-Resume" style="stroke: #A80036; stroke-width: 1.0;"/><polygon fill="#A80036" points="141.36,264.7252,135.3466,256.9253,136.962,262.3466,131.5408,263.962,141.36,264.7252" style="stroke: #A80036; stroke-width: 1.0;"/><!--MD5=[2ed9e24b24bde8306a0d41fe08652ecf]
@startuml
left to right direction
actor Player
usecase Start
usecase Movement
usecase Undo
usecase Redo
usecase Resume

Player - -> Start
Player - -> Movement
Player - -> Undo
Player - -> Redo
Player - -> Resume
@enduml

PlantUML version 1.2020.20beta10(Unknown compile time)
(GPL source distribution)
Java Runtime: Java(TM) SE Runtime Environment
JVM: Java HotSpot(TM) 64-Bit Server VM
Default Encoding: UTF-8
Language: en
Country: US
--></g></svg>