<?xml version="1.0" encoding="UTF-8" standalone="no"?><svg xmlns="http://www.w3.org/2000/svg" xmlns:xlink="http://www.w3.org/1999/xlink" contentScriptType="application/ecmascript" contentStyleType="text/css" height="592px" preserveAspectRatio="none" style="width:1141px;height:592px;" version="1.1" viewBox="0 0 1141 592" width="1141px" zoomAndPan="magnify"><defs><filter height="300%" id="f5z7ol0dasxsm" width="300%" x="-1" y="-1"><feGaussianBlur result="blurOut" stdDeviation="2.0"/><feColorMatrix in="blurOut" result="blurOut2" type="matrix" values="0 0 0 0 0 0 0 0 0 0 0 0 0 0 0 0 0 0 .4 0"/><feOffset dx="4.0" dy="4.0" in="blurOut2" result="blurOut3"/><feBlend in="SourceGraphic" in2="blurOut3" mode="normal"/></filter></defs><g><!--MD5=[e2a75efa8a0f57c2afae8bf75386f79c]
cluster views--><polygon fill="#FFFFFF" filter="url(#f5z7ol0dasxsm)" points="245.5,6,296.5,6,303.5,28.2969,923.5,28.2969,923.5,481,245.5,481,245.5,6" style="stroke:#000000;stroke-width:1.5;"/><line style="stroke:#000000;stroke-width:1.5;" x1="245.5" x2="303.5" y1="28.2969" y2="28.2969"/><text fill="#000000" font-family="sans-serif" font-size="14" font-weight="bold" lengthAdjust="spacing" textLength="45" x="249.5" y="20.9951">views</text><!--MD5=[5563f2eac69cd97c311bb50067a34021]
class views.BoardView--><rect codeLine="8" fill="#FEFECE" filter="url(#f5z7ol0dasxsm)" height="60.8047" id="views.BoardView" style="stroke:#A80036;stroke-width:1.5;" width="144" x="567.5" y="270"/><ellipse cx="603.65" cy="286" fill="#ADD1B2" rx="11" ry="11" style="stroke:#A80036;stroke-width:1.0;"/><path d="M605.9938,281.6719 C605.0563,281.2344 604.4625,281.0938 603.5875,281.0938 C600.9625,281.0938 598.9625,283.1719 598.9625,285.8906 L598.9625,287.0156 C598.9625,289.5938 601.0719,291.4844 603.9625,291.4844 C605.1813,291.4844 606.3375,291.1875 607.0875,290.6406 C607.6656,290.2344 607.9938,289.7813 607.9938,289.3906 C607.9938,288.9375 607.6031,288.5469 607.1344,288.5469 C606.9156,288.5469 606.7125,288.625 606.525,288.8125 C606.0719,289.2969 606.0719,289.2969 605.8844,289.3906 C605.4625,289.6563 604.775,289.7813 604.0094,289.7813 C601.9625,289.7813 600.6656,288.6875 600.6656,286.9844 L600.6656,285.8906 C600.6656,284.1094 601.9156,282.7969 603.65,282.7969 C604.2281,282.7969 604.8375,282.9531 605.3063,283.2031 C605.7906,283.4844 605.9625,283.7031 606.0563,284.1094 C606.1188,284.5156 606.15,284.6406 606.2906,284.7656 C606.4313,284.9063 606.6656,285.0156 606.8844,285.0156 C607.15,285.0156 607.4156,284.875 607.5875,284.6563 C607.6969,284.5 607.7281,284.3125 607.7281,283.8906 L607.7281,282.4688 C607.7281,282.0313 607.7125,281.9063 607.6188,281.75 C607.4625,281.4844 607.1813,281.3438 606.8844,281.3438 C606.5875,281.3438 606.3844,281.4375 606.1656,281.75 L605.9938,281.6719 Z " fill="#000000"/><text fill="#000000" font-family="sans-serif" font-size="12" lengthAdjust="spacing" textLength="65" x="622.35" y="290.1543">BoardView</text><line style="stroke:#A80036;stroke-width:1.5;" x1="568.5" x2="710.5" y1="302" y2="302"/><line style="stroke:#A80036;stroke-width:1.5;" x1="568.5" x2="710.5" y1="310" y2="310"/><polygon fill="#4177AF" points="578.5,317,574.5,323,582.5,323" style="stroke:#1963A0;stroke-width:1.0;"/><text fill="#000000" font-family="sans-serif" font-size="11" lengthAdjust="spacing" textLength="118" x="587.5" y="324.2104">write(StartController)</text><!--MD5=[52a75152711b30ce05e31727f0039306]
class views.ErrorView--><rect codeLine="12" fill="#FEFECE" filter="url(#f5z7ol0dasxsm)" height="60.8047" id="views.ErrorView" style="stroke:#A80036;stroke-width:1.5;" width="98" x="809.5" y="397.5"/><ellipse cx="827.65" cy="413.5" fill="#ADD1B2" rx="11" ry="11" style="stroke:#A80036;stroke-width:1.0;"/><path d="M829.9938,409.1719 C829.0563,408.7344 828.4625,408.5938 827.5875,408.5938 C824.9625,408.5938 822.9625,410.6719 822.9625,413.3906 L822.9625,414.5156 C822.9625,417.0938 825.0719,418.9844 827.9625,418.9844 C829.1813,418.9844 830.3375,418.6875 831.0875,418.1406 C831.6656,417.7344 831.9938,417.2813 831.9938,416.8906 C831.9938,416.4375 831.6031,416.0469 831.1344,416.0469 C830.9156,416.0469 830.7125,416.125 830.525,416.3125 C830.0719,416.7969 830.0719,416.7969 829.8844,416.8906 C829.4625,417.1563 828.775,417.2813 828.0094,417.2813 C825.9625,417.2813 824.6656,416.1875 824.6656,414.4844 L824.6656,413.3906 C824.6656,411.6094 825.9156,410.2969 827.65,410.2969 C828.2281,410.2969 828.8375,410.4531 829.3063,410.7031 C829.7906,410.9844 829.9625,411.2031 830.0563,411.6094 C830.1188,412.0156 830.15,412.1406 830.2906,412.2656 C830.4313,412.4063 830.6656,412.5156 830.8844,412.5156 C831.15,412.5156 831.4156,412.375 831.5875,412.1563 C831.6969,412 831.7281,411.8125 831.7281,411.3906 L831.7281,409.9688 C831.7281,409.5313 831.7125,409.4063 831.6188,409.25 C831.4625,408.9844 831.1813,408.8438 830.8844,408.8438 C830.5875,408.8438 830.3844,408.9375 830.1656,409.25 L829.9938,409.1719 Z " fill="#000000"/><text fill="#000000" font-family="sans-serif" font-size="12" lengthAdjust="spacing" textLength="59" x="842.35" y="417.6543">ErrorView</text><line style="stroke:#A80036;stroke-width:1.5;" x1="810.5" x2="906.5" y1="429.5" y2="429.5"/><line style="stroke:#A80036;stroke-width:1.5;" x1="810.5" x2="906.5" y1="437.5" y2="437.5"/><polygon fill="#4177AF" points="820.5,444.5,816.5,450.5,824.5,450.5" style="stroke:#1963A0;stroke-width:1.0;"/><text fill="#000000" font-family="sans-serif" font-size="11" lengthAdjust="spacing" textLength="72" x="829.5" y="451.7104">writeln(Error)</text><!--MD5=[15992c3de3db46d2901aebcad9c61d0d]
class views.PlayView--><rect codeLine="16" fill="#FEFECE" filter="url(#f5z7ol0dasxsm)" height="60.8047" id="views.PlayView" style="stroke:#A80036;stroke-width:1.5;" width="136" x="712.5" y="149"/><ellipse cx="750.9" cy="165" fill="#ADD1B2" rx="11" ry="11" style="stroke:#A80036;stroke-width:1.0;"/><path d="M753.2438,160.6719 C752.3063,160.2344 751.7125,160.0938 750.8375,160.0938 C748.2125,160.0938 746.2125,162.1719 746.2125,164.8906 L746.2125,166.0156 C746.2125,168.5938 748.3219,170.4844 751.2125,170.4844 C752.4313,170.4844 753.5875,170.1875 754.3375,169.6406 C754.9156,169.2344 755.2438,168.7813 755.2438,168.3906 C755.2438,167.9375 754.8531,167.5469 754.3844,167.5469 C754.1656,167.5469 753.9625,167.625 753.775,167.8125 C753.3219,168.2969 753.3219,168.2969 753.1344,168.3906 C752.7125,168.6563 752.025,168.7813 751.2594,168.7813 C749.2125,168.7813 747.9156,167.6875 747.9156,165.9844 L747.9156,164.8906 C747.9156,163.1094 749.1656,161.7969 750.9,161.7969 C751.4781,161.7969 752.0875,161.9531 752.5563,162.2031 C753.0406,162.4844 753.2125,162.7031 753.3063,163.1094 C753.3688,163.5156 753.4,163.6406 753.5406,163.7656 C753.6813,163.9063 753.9156,164.0156 754.1344,164.0156 C754.4,164.0156 754.6656,163.875 754.8375,163.6563 C754.9469,163.5 754.9781,163.3125 754.9781,162.8906 L754.9781,161.4688 C754.9781,161.0313 754.9625,160.9063 754.8688,160.75 C754.7125,160.4844 754.4313,160.3438 754.1344,160.3438 C753.8375,160.3438 753.6344,160.4375 753.4156,160.75 L753.2438,160.6719 Z " fill="#000000"/><text fill="#000000" font-family="sans-serif" font-size="12" lengthAdjust="spacing" textLength="52" x="770.1" y="169.1543">PlayView</text><line style="stroke:#A80036;stroke-width:1.5;" x1="713.5" x2="847.5" y1="181" y2="181"/><line style="stroke:#A80036;stroke-width:1.5;" x1="713.5" x2="847.5" y1="189" y2="189"/><polygon fill="#4177AF" points="723.5,196,719.5,202,727.5,202" style="stroke:#1963A0;stroke-width:1.0;"/><text fill="#000000" font-family="sans-serif" font-size="11" lengthAdjust="spacing" textLength="110" x="732.5" y="203.2104">play(PlayController)</text><!--MD5=[efe083823ff420907f2c8e105cba547e]
class views.ResumeView--><rect codeLine="20" fill="#FEFECE" filter="url(#f5z7ol0dasxsm)" height="60.8047" id="views.ResumeView" style="stroke:#A80036;stroke-width:1.5;" width="233" x="262" y="270"/><ellipse cx="335.75" cy="286" fill="#ADD1B2" rx="11" ry="11" style="stroke:#A80036;stroke-width:1.0;"/><path d="M338.0938,281.6719 C337.1563,281.2344 336.5625,281.0938 335.6875,281.0938 C333.0625,281.0938 331.0625,283.1719 331.0625,285.8906 L331.0625,287.0156 C331.0625,289.5938 333.1719,291.4844 336.0625,291.4844 C337.2813,291.4844 338.4375,291.1875 339.1875,290.6406 C339.7656,290.2344 340.0938,289.7813 340.0938,289.3906 C340.0938,288.9375 339.7031,288.5469 339.2344,288.5469 C339.0156,288.5469 338.8125,288.625 338.625,288.8125 C338.1719,289.2969 338.1719,289.2969 337.9844,289.3906 C337.5625,289.6563 336.875,289.7813 336.1094,289.7813 C334.0625,289.7813 332.7656,288.6875 332.7656,286.9844 L332.7656,285.8906 C332.7656,284.1094 334.0156,282.7969 335.75,282.7969 C336.3281,282.7969 336.9375,282.9531 337.4063,283.2031 C337.8906,283.4844 338.0625,283.7031 338.1563,284.1094 C338.2188,284.5156 338.25,284.6406 338.3906,284.7656 C338.5313,284.9063 338.7656,285.0156 338.9844,285.0156 C339.25,285.0156 339.5156,284.875 339.6875,284.6563 C339.7969,284.5 339.8281,284.3125 339.8281,283.8906 L339.8281,282.4688 C339.8281,282.0313 339.8125,281.9063 339.7188,281.75 C339.5625,281.4844 339.2813,281.3438 338.9844,281.3438 C338.6875,281.3438 338.4844,281.4375 338.2656,281.75 L338.0938,281.6719 Z " fill="#000000"/><text fill="#000000" font-family="sans-serif" font-size="12" lengthAdjust="spacing" textLength="77" x="356.25" y="290.1543">ResumeView</text><line style="stroke:#A80036;stroke-width:1.5;" x1="263" x2="494" y1="302" y2="302"/><line style="stroke:#A80036;stroke-width:1.5;" x1="263" x2="494" y1="310" y2="310"/><polygon fill="#4177AF" points="273,317,269,323,277,323" style="stroke:#1963A0;stroke-width:1.0;"/><text fill="#000000" font-family="sans-serif" font-size="11" lengthAdjust="spacing" textLength="207" x="282" y="324.2104">resume(ResumeController): boolean</text><!--MD5=[eba1bc73714f08f0da8dc05a139be9c1]
class views.StartView--><rect codeLine="24" fill="#FEFECE" filter="url(#f5z7ol0dasxsm)" height="60.8047" id="views.StartView" style="stroke:#A80036;stroke-width:1.5;" width="141" x="536" y="149"/><ellipse cx="574.4" cy="165" fill="#ADD1B2" rx="11" ry="11" style="stroke:#A80036;stroke-width:1.0;"/><path d="M576.7438,160.6719 C575.8063,160.2344 575.2125,160.0938 574.3375,160.0938 C571.7125,160.0938 569.7125,162.1719 569.7125,164.8906 L569.7125,166.0156 C569.7125,168.5938 571.8219,170.4844 574.7125,170.4844 C575.9313,170.4844 577.0875,170.1875 577.8375,169.6406 C578.4156,169.2344 578.7438,168.7813 578.7438,168.3906 C578.7438,167.9375 578.3531,167.5469 577.8844,167.5469 C577.6656,167.5469 577.4625,167.625 577.275,167.8125 C576.8219,168.2969 576.8219,168.2969 576.6344,168.3906 C576.2125,168.6563 575.525,168.7813 574.7594,168.7813 C572.7125,168.7813 571.4156,167.6875 571.4156,165.9844 L571.4156,164.8906 C571.4156,163.1094 572.6656,161.7969 574.4,161.7969 C574.9781,161.7969 575.5875,161.9531 576.0563,162.2031 C576.5406,162.4844 576.7125,162.7031 576.8063,163.1094 C576.8688,163.5156 576.9,163.6406 577.0406,163.7656 C577.1813,163.9063 577.4156,164.0156 577.6344,164.0156 C577.9,164.0156 578.1656,163.875 578.3375,163.6563 C578.4469,163.5 578.4781,163.3125 578.4781,162.8906 L578.4781,161.4688 C578.4781,161.0313 578.4625,160.9063 578.3688,160.75 C578.2125,160.4844 577.9313,160.3438 577.6344,160.3438 C577.3375,160.3438 577.1344,160.4375 576.9156,160.75 L576.7438,160.6719 Z " fill="#000000"/><text fill="#000000" font-family="sans-serif" font-size="12" lengthAdjust="spacing" textLength="57" x="593.6" y="169.1543">StartView</text><line style="stroke:#A80036;stroke-width:1.5;" x1="537" x2="676" y1="181" y2="181"/><line style="stroke:#A80036;stroke-width:1.5;" x1="537" x2="676" y1="189" y2="189"/><polygon fill="#4177AF" points="547,196,543,202,551,202" style="stroke:#1963A0;stroke-width:1.0;"/><text fill="#000000" font-family="sans-serif" font-size="11" lengthAdjust="spacing" textLength="115" x="556" y="203.2104">start(StartController)</text><!--MD5=[625ef0ab1f49174a2477f77f78895d5e]
class views.MovementView--><rect codeLine="28" fill="#FEFECE" filter="url(#f5z7ol0dasxsm)" height="60.8047" id="views.MovementView" style="stroke:#A80036;stroke-width:1.5;" width="124" x="783.5" y="270"/><ellipse cx="798.5" cy="286" fill="#ADD1B2" rx="11" ry="11" style="stroke:#A80036;stroke-width:1.0;"/><path d="M800.8438,281.6719 C799.9063,281.2344 799.3125,281.0938 798.4375,281.0938 C795.8125,281.0938 793.8125,283.1719 793.8125,285.8906 L793.8125,287.0156 C793.8125,289.5938 795.9219,291.4844 798.8125,291.4844 C800.0313,291.4844 801.1875,291.1875 801.9375,290.6406 C802.5156,290.2344 802.8438,289.7813 802.8438,289.3906 C802.8438,288.9375 802.4531,288.5469 801.9844,288.5469 C801.7656,288.5469 801.5625,288.625 801.375,288.8125 C800.9219,289.2969 800.9219,289.2969 800.7344,289.3906 C800.3125,289.6563 799.625,289.7813 798.8594,289.7813 C796.8125,289.7813 795.5156,288.6875 795.5156,286.9844 L795.5156,285.8906 C795.5156,284.1094 796.7656,282.7969 798.5,282.7969 C799.0781,282.7969 799.6875,282.9531 800.1563,283.2031 C800.6406,283.4844 800.8125,283.7031 800.9063,284.1094 C800.9688,284.5156 801,284.6406 801.1406,284.7656 C801.2813,284.9063 801.5156,285.0156 801.7344,285.0156 C802,285.0156 802.2656,284.875 802.4375,284.6563 C802.5469,284.5 802.5781,284.3125 802.5781,283.8906 L802.5781,282.4688 C802.5781,282.0313 802.5625,281.9063 802.4688,281.75 C802.3125,281.4844 802.0313,281.3438 801.7344,281.3438 C801.4375,281.3438 801.2344,281.4375 801.0156,281.75 L800.8438,281.6719 Z " fill="#000000"/><text fill="#000000" font-family="sans-serif" font-size="12" lengthAdjust="spacing" textLength="92" x="812.5" y="290.1543">MovementView</text><line style="stroke:#A80036;stroke-width:1.5;" x1="784.5" x2="906.5" y1="302" y2="302"/><line style="stroke:#A80036;stroke-width:1.5;" x1="784.5" x2="906.5" y1="310" y2="310"/><polygon fill="#4177AF" points="794.5,317,790.5,323,798.5,323" style="stroke:#1963A0;stroke-width:1.0;"/><text fill="#000000" font-family="sans-serif" font-size="11" lengthAdjust="spacing" textLength="51" x="803.5" y="324.2104">interact()</text><!--MD5=[17c5bd0e327a2997366869d748d685d5]
class views.ColorView--><rect codeLine="32" fill="#FEFECE" filter="url(#f5z7ol0dasxsm)" height="60.8047" id="views.ColorView" style="stroke:#A80036;stroke-width:1.5;" width="93" x="517" y="397.5"/><ellipse cx="532" cy="413.5" fill="#ADD1B2" rx="11" ry="11" style="stroke:#A80036;stroke-width:1.0;"/><path d="M534.3438,409.1719 C533.4063,408.7344 532.8125,408.5938 531.9375,408.5938 C529.3125,408.5938 527.3125,410.6719 527.3125,413.3906 L527.3125,414.5156 C527.3125,417.0938 529.4219,418.9844 532.3125,418.9844 C533.5313,418.9844 534.6875,418.6875 535.4375,418.1406 C536.0156,417.7344 536.3438,417.2813 536.3438,416.8906 C536.3438,416.4375 535.9531,416.0469 535.4844,416.0469 C535.2656,416.0469 535.0625,416.125 534.875,416.3125 C534.4219,416.7969 534.4219,416.7969 534.2344,416.8906 C533.8125,417.1563 533.125,417.2813 532.3594,417.2813 C530.3125,417.2813 529.0156,416.1875 529.0156,414.4844 L529.0156,413.3906 C529.0156,411.6094 530.2656,410.2969 532,410.2969 C532.5781,410.2969 533.1875,410.4531 533.6563,410.7031 C534.1406,410.9844 534.3125,411.2031 534.4063,411.6094 C534.4688,412.0156 534.5,412.1406 534.6406,412.2656 C534.7813,412.4063 535.0156,412.5156 535.2344,412.5156 C535.5,412.5156 535.7656,412.375 535.9375,412.1563 C536.0469,412 536.0781,411.8125 536.0781,411.3906 L536.0781,409.9688 C536.0781,409.5313 536.0625,409.4063 535.9688,409.25 C535.8125,408.9844 535.5313,408.8438 535.2344,408.8438 C534.9375,408.8438 534.7344,408.9375 534.5156,409.25 L534.3438,409.1719 Z " fill="#000000"/><text fill="#000000" font-family="sans-serif" font-size="12" lengthAdjust="spacing" textLength="61" x="546" y="417.6543">ColorView</text><line style="stroke:#A80036;stroke-width:1.5;" x1="518" x2="609" y1="429.5" y2="429.5"/><line style="stroke:#A80036;stroke-width:1.5;" x1="518" x2="609" y1="437.5" y2="437.5"/><polygon fill="#4177AF" points="528,444.5,524,450.5,532,450.5" style="stroke:#1963A0;stroke-width:1.0;"/><text fill="#000000" font-family="sans-serif" font-size="11" lengthAdjust="spacing" textLength="65" x="537" y="451.7104">write(Color)</text><!--MD5=[692bbdbc7ace692555185cdf9d0c2e06]
class views.Message--><rect codeLine="36" fill="#FEFECE" filter="url(#f5z7ol0dasxsm)" height="73.6094" id="views.Message" style="stroke:#A80036;stroke-width:1.5;" width="87" x="395" y="391"/><ellipse cx="410" cy="407" fill="#EB937F" rx="11" ry="11" style="stroke:#A80036;stroke-width:1.0;"/><path d="M408.7969,407.875 L410.25,407.875 L410.25,407.9844 C410.25,408.3906 410.2813,408.5469 410.3594,408.7031 C410.5156,408.9531 410.7969,409.1094 411.0938,409.1094 C411.3438,409.1094 411.6094,408.9688 411.7656,408.75 C411.8906,408.5938 411.9219,408.4375 411.9219,407.9844 L411.9219,406.0625 C411.9219,405.9063 411.9219,405.8594 411.9063,405.7031 C411.8438,405.2344 411.5313,404.9219 411.0781,404.9219 C410.8281,404.9219 410.5625,405.0625 410.3906,405.2813 C410.2813,405.4531 410.25,405.6094 410.25,406.0625 L410.25,406.1875 L408.7969,406.1875 L408.7969,403.7813 L412.7813,403.7813 L412.7813,404.6406 C412.7813,405.0469 412.8125,405.2188 412.8906,405.375 C413.0625,405.625 413.3438,405.7813 413.625,405.7813 C413.8906,405.7813 414.1563,405.6406 414.3281,405.4219 C414.4375,405.25 414.4688,405.1094 414.4688,404.6406 L414.4688,402.0938 L406.8438,402.0938 C406.4063,402.0938 406.2813,402.1094 406.125,402.2031 C405.875,402.3594 405.7188,402.6563 405.7188,402.9375 C405.7188,403.2188 405.8594,403.4688 406.0781,403.6406 C406.2344,403.75 406.4219,403.7813 406.8438,403.7813 L407.0938,403.7813 L407.0938,410.2969 L406.8438,410.2969 C406.4375,410.2969 406.2813,410.3125 406.125,410.4219 C405.875,410.5938 405.7188,410.8594 405.7188,411.1563 C405.7188,411.4219 405.8594,411.6719 406.0781,411.8281 C406.2188,411.9531 406.4531,412 406.8438,412 L414.8438,412 L414.8438,409.4219 C414.8438,408.9844 414.8125,408.8438 414.7344,408.6875 C414.5625,408.4375 414.2813,408.2813 414,408.2813 C413.7344,408.2813 413.4688,408.3906 413.2969,408.6406 C413.1875,408.7969 413.1563,408.9375 413.1563,409.4219 L413.1563,410.2969 L408.7969,410.2969 L408.7969,407.875 Z " fill="#000000"/><text fill="#000000" font-family="sans-serif" font-size="12" lengthAdjust="spacing" textLength="55" x="424" y="411.1543">Message</text><line style="stroke:#A80036;stroke-width:1.5;" x1="396" x2="481" y1="423" y2="423"/><line style="stroke:#A80036;stroke-width:1.5;" x1="396" x2="481" y1="431" y2="431"/><polygon fill="#4177AF" points="406,438,402,444,410,444" style="stroke:#1963A0;stroke-width:1.0;"/><text fill="#000000" font-family="sans-serif" font-size="11" lengthAdjust="spacing" textLength="46" x="415" y="445.2104">writeln()</text><polygon fill="#4177AF" points="406,450.8047,402,456.8047,410,456.8047" style="stroke:#1963A0;stroke-width:1.0;"/><text fill="#000000" font-family="sans-serif" font-size="11" lengthAdjust="spacing" textLength="36" x="415" y="458.0151">write()</text><!--MD5=[947e6c573c2f2818382a8a631176de9a]
class views.PlayerView--><rect codeLine="41" fill="#FEFECE" filter="url(#f5z7ol0dasxsm)" height="48" id="views.PlayerView" style="stroke:#A80036;stroke-width:1.5;" width="97" x="558" y="41"/><ellipse cx="573" cy="57" fill="#ADD1B2" rx="11" ry="11" style="stroke:#A80036;stroke-width:1.0;"/><path d="M575.3438,52.6719 C574.4063,52.2344 573.8125,52.0938 572.9375,52.0938 C570.3125,52.0938 568.3125,54.1719 568.3125,56.8906 L568.3125,58.0156 C568.3125,60.5938 570.4219,62.4844 573.3125,62.4844 C574.5313,62.4844 575.6875,62.1875 576.4375,61.6406 C577.0156,61.2344 577.3438,60.7813 577.3438,60.3906 C577.3438,59.9375 576.9531,59.5469 576.4844,59.5469 C576.2656,59.5469 576.0625,59.625 575.875,59.8125 C575.4219,60.2969 575.4219,60.2969 575.2344,60.3906 C574.8125,60.6563 574.125,60.7813 573.3594,60.7813 C571.3125,60.7813 570.0156,59.6875 570.0156,57.9844 L570.0156,56.8906 C570.0156,55.1094 571.2656,53.7969 573,53.7969 C573.5781,53.7969 574.1875,53.9531 574.6563,54.2031 C575.1406,54.4844 575.3125,54.7031 575.4063,55.1094 C575.4688,55.5156 575.5,55.6406 575.6406,55.7656 C575.7813,55.9063 576.0156,56.0156 576.2344,56.0156 C576.5,56.0156 576.7656,55.875 576.9375,55.6563 C577.0469,55.5 577.0781,55.3125 577.0781,54.8906 L577.0781,53.4688 C577.0781,53.0313 577.0625,52.9063 576.9688,52.75 C576.8125,52.4844 576.5313,52.3438 576.2344,52.3438 C575.9375,52.3438 575.7344,52.4375 575.5156,52.75 L575.3438,52.6719 Z " fill="#000000"/><text fill="#000000" font-family="sans-serif" font-size="12" lengthAdjust="spacing" textLength="65" x="587" y="61.1543">PlayerView</text><line style="stroke:#A80036;stroke-width:1.5;" x1="559" x2="654" y1="73" y2="73"/><line style="stroke:#A80036;stroke-width:1.5;" x1="559" x2="654" y1="81" y2="81"/><!--MD5=[086790dd88b6dc20f42fdfbd3a0210ab]
class views.CoordinateView--><rect codeLine="45" fill="#FEFECE" filter="url(#f5z7ol0dasxsm)" height="60.8047" id="views.CoordinateView" style="stroke:#A80036;stroke-width:1.5;" width="129" x="645" y="397.5"/><ellipse cx="660.9" cy="413.5" fill="#ADD1B2" rx="11" ry="11" style="stroke:#A80036;stroke-width:1.0;"/><path d="M663.2438,409.1719 C662.3063,408.7344 661.7125,408.5938 660.8375,408.5938 C658.2125,408.5938 656.2125,410.6719 656.2125,413.3906 L656.2125,414.5156 C656.2125,417.0938 658.3219,418.9844 661.2125,418.9844 C662.4313,418.9844 663.5875,418.6875 664.3375,418.1406 C664.9156,417.7344 665.2438,417.2813 665.2438,416.8906 C665.2438,416.4375 664.8531,416.0469 664.3844,416.0469 C664.1656,416.0469 663.9625,416.125 663.775,416.3125 C663.3219,416.7969 663.3219,416.7969 663.1344,416.8906 C662.7125,417.1563 662.025,417.2813 661.2594,417.2813 C659.2125,417.2813 657.9156,416.1875 657.9156,414.4844 L657.9156,413.3906 C657.9156,411.6094 659.1656,410.2969 660.9,410.2969 C661.4781,410.2969 662.0875,410.4531 662.5563,410.7031 C663.0406,410.9844 663.2125,411.2031 663.3063,411.6094 C663.3688,412.0156 663.4,412.1406 663.5406,412.2656 C663.6813,412.4063 663.9156,412.5156 664.1344,412.5156 C664.4,412.5156 664.6656,412.375 664.8375,412.1563 C664.9469,412 664.9781,411.8125 664.9781,411.3906 L664.9781,409.9688 C664.9781,409.5313 664.9625,409.4063 664.8688,409.25 C664.7125,408.9844 664.4313,408.8438 664.1344,408.8438 C663.8375,408.8438 663.6344,408.9375 663.4156,409.25 L663.2438,409.1719 Z " fill="#000000"/><text fill="#000000" font-family="sans-serif" font-size="12" lengthAdjust="spacing" textLength="95" x="675.1" y="417.6543">CoordinateView</text><line style="stroke:#A80036;stroke-width:1.5;" x1="646" x2="773" y1="429.5" y2="429.5"/><line style="stroke:#A80036;stroke-width:1.5;" x1="646" x2="773" y1="437.5" y2="437.5"/><polygon fill="#4177AF" points="656,444.5,652,450.5,660,450.5" style="stroke:#1963A0;stroke-width:1.0;"/><text fill="#000000" font-family="sans-serif" font-size="11" lengthAdjust="spacing" textLength="103" x="665" y="451.7104">read(): Coordinate</text><!--MD5=[8c7d7abc12e214c3cc12c9ab70edee11]
class Coordinate--><rect codeLine="1" fill="#FEFECE" filter="url(#f5z7ol0dasxsm)" height="53.9375" id="Coordinate" style="stroke:#A80036;stroke-width:1.5;" width="98" x="292.5" y="525"/><ellipse cx="307.5" cy="543.9688" fill="#ADD1B2" rx="11" ry="11" style="stroke:#A80036;stroke-width:1.0;"/><path d="M309.8438,539.6406 C308.9063,539.2031 308.3125,539.0625 307.4375,539.0625 C304.8125,539.0625 302.8125,541.1406 302.8125,543.8594 L302.8125,544.9844 C302.8125,547.5625 304.9219,549.4531 307.8125,549.4531 C309.0313,549.4531 310.1875,549.1563 310.9375,548.6094 C311.5156,548.2031 311.8438,547.75 311.8438,547.3594 C311.8438,546.9063 311.4531,546.5156 310.9844,546.5156 C310.7656,546.5156 310.5625,546.5938 310.375,546.7813 C309.9219,547.2656 309.9219,547.2656 309.7344,547.3594 C309.3125,547.625 308.625,547.75 307.8594,547.75 C305.8125,547.75 304.5156,546.6563 304.5156,544.9531 L304.5156,543.8594 C304.5156,542.0781 305.7656,540.7656 307.5,540.7656 C308.0781,540.7656 308.6875,540.9219 309.1563,541.1719 C309.6406,541.4531 309.8125,541.6719 309.9063,542.0781 C309.9688,542.4844 310,542.6094 310.1406,542.7344 C310.2813,542.875 310.5156,542.9844 310.7344,542.9844 C311,542.9844 311.2656,542.8438 311.4375,542.625 C311.5469,542.4688 311.5781,542.2813 311.5781,541.8594 L311.5781,540.4375 C311.5781,540 311.5625,539.875 311.4688,539.7188 C311.3125,539.4531 311.0313,539.3125 310.7344,539.3125 C310.4375,539.3125 310.2344,539.4063 310.0156,539.7188 L309.8438,539.6406 Z " fill="#000000"/><text fill="#000000" font-family="sans-serif" font-size="12" lengthAdjust="spacing" textLength="37" x="336" y="541.1387">types.</text><text fill="#000000" font-family="sans-serif" font-size="12" lengthAdjust="spacing" textLength="66" x="321.5" y="555.1074">Coordinate</text><line style="stroke:#A80036;stroke-width:1.5;" x1="293.5" x2="389.5" y1="562.9375" y2="562.9375"/><line style="stroke:#A80036;stroke-width:1.5;" x1="293.5" x2="389.5" y1="570.9375" y2="570.9375"/><!--MD5=[b8cfd8c4119a3b0a7a46bfc5fc780f85]
class Error--><rect codeLine="2" fill="#FEFECE" filter="url(#f5z7ol0dasxsm)" height="53.9375" id="Error" style="stroke:#A80036;stroke-width:1.5;" width="69" x="952" y="525"/><ellipse cx="967" cy="543.9688" fill="#EB937F" rx="11" ry="11" style="stroke:#A80036;stroke-width:1.0;"/><path d="M965.7969,544.8438 L967.25,544.8438 L967.25,544.9531 C967.25,545.3594 967.2813,545.5156 967.3594,545.6719 C967.5156,545.9219 967.7969,546.0781 968.0938,546.0781 C968.3438,546.0781 968.6094,545.9375 968.7656,545.7188 C968.8906,545.5625 968.9219,545.4063 968.9219,544.9531 L968.9219,543.0313 C968.9219,542.875 968.9219,542.8281 968.9063,542.6719 C968.8438,542.2031 968.5313,541.8906 968.0781,541.8906 C967.8281,541.8906 967.5625,542.0313 967.3906,542.25 C967.2813,542.4219 967.25,542.5781 967.25,543.0313 L967.25,543.1563 L965.7969,543.1563 L965.7969,540.75 L969.7813,540.75 L969.7813,541.6094 C969.7813,542.0156 969.8125,542.1875 969.8906,542.3438 C970.0625,542.5938 970.3438,542.75 970.625,542.75 C970.8906,542.75 971.1563,542.6094 971.3281,542.3906 C971.4375,542.2188 971.4688,542.0781 971.4688,541.6094 L971.4688,539.0625 L963.8438,539.0625 C963.4063,539.0625 963.2813,539.0781 963.125,539.1719 C962.875,539.3281 962.7188,539.625 962.7188,539.9063 C962.7188,540.1875 962.8594,540.4375 963.0781,540.6094 C963.2344,540.7188 963.4219,540.75 963.8438,540.75 L964.0938,540.75 L964.0938,547.2656 L963.8438,547.2656 C963.4375,547.2656 963.2813,547.2813 963.125,547.3906 C962.875,547.5625 962.7188,547.8281 962.7188,548.125 C962.7188,548.3906 962.8594,548.6406 963.0781,548.7969 C963.2188,548.9219 963.4531,548.9688 963.8438,548.9688 L971.8438,548.9688 L971.8438,546.3906 C971.8438,545.9531 971.8125,545.8125 971.7344,545.6563 C971.5625,545.4063 971.2813,545.25 971,545.25 C970.7344,545.25 970.4688,545.3594 970.2969,545.6094 C970.1875,545.7656 970.1563,545.9063 970.1563,546.3906 L970.1563,547.2656 L965.7969,547.2656 L965.7969,544.8438 Z " fill="#000000"/><text fill="#000000" font-family="sans-serif" font-size="12" lengthAdjust="spacing" textLength="37" x="981" y="541.1387">types.</text><text fill="#000000" font-family="sans-serif" font-size="12" lengthAdjust="spacing" textLength="30" x="984.5" y="555.1074">Error</text><line style="stroke:#A80036;stroke-width:1.5;" x1="953" x2="1020" y1="562.9375" y2="562.9375"/><line style="stroke:#A80036;stroke-width:1.5;" x1="953" x2="1020" y1="570.9375" y2="570.9375"/><!--MD5=[18eee71c88ab61f27581b8cbdd3ef5ee]
class Color--><rect codeLine="3" fill="#FEFECE" filter="url(#f5z7ol0dasxsm)" height="53.9375" id="Color" style="stroke:#A80036;stroke-width:1.5;" width="69" x="177" y="525"/><ellipse cx="192" cy="543.9688" fill="#EB937F" rx="11" ry="11" style="stroke:#A80036;stroke-width:1.0;"/><path d="M190.7969,544.8438 L192.25,544.8438 L192.25,544.9531 C192.25,545.3594 192.2813,545.5156 192.3594,545.6719 C192.5156,545.9219 192.7969,546.0781 193.0938,546.0781 C193.3438,546.0781 193.6094,545.9375 193.7656,545.7188 C193.8906,545.5625 193.9219,545.4063 193.9219,544.9531 L193.9219,543.0313 C193.9219,542.875 193.9219,542.8281 193.9063,542.6719 C193.8438,542.2031 193.5313,541.8906 193.0781,541.8906 C192.8281,541.8906 192.5625,542.0313 192.3906,542.25 C192.2813,542.4219 192.25,542.5781 192.25,543.0313 L192.25,543.1563 L190.7969,543.1563 L190.7969,540.75 L194.7813,540.75 L194.7813,541.6094 C194.7813,542.0156 194.8125,542.1875 194.8906,542.3438 C195.0625,542.5938 195.3438,542.75 195.625,542.75 C195.8906,542.75 196.1563,542.6094 196.3281,542.3906 C196.4375,542.2188 196.4688,542.0781 196.4688,541.6094 L196.4688,539.0625 L188.8438,539.0625 C188.4063,539.0625 188.2813,539.0781 188.125,539.1719 C187.875,539.3281 187.7188,539.625 187.7188,539.9063 C187.7188,540.1875 187.8594,540.4375 188.0781,540.6094 C188.2344,540.7188 188.4219,540.75 188.8438,540.75 L189.0938,540.75 L189.0938,547.2656 L188.8438,547.2656 C188.4375,547.2656 188.2813,547.2813 188.125,547.3906 C187.875,547.5625 187.7188,547.8281 187.7188,548.125 C187.7188,548.3906 187.8594,548.6406 188.0781,548.7969 C188.2188,548.9219 188.4531,548.9688 188.8438,548.9688 L196.8438,548.9688 L196.8438,546.3906 C196.8438,545.9531 196.8125,545.8125 196.7344,545.6563 C196.5625,545.4063 196.2813,545.25 196,545.25 C195.7344,545.25 195.4688,545.3594 195.2969,545.6094 C195.1875,545.7656 195.1563,545.9063 195.1563,546.3906 L195.1563,547.2656 L190.7969,547.2656 L190.7969,544.8438 Z " fill="#000000"/><text fill="#000000" font-family="sans-serif" font-size="12" lengthAdjust="spacing" textLength="37" x="206" y="541.1387">types.</text><text fill="#000000" font-family="sans-serif" font-size="12" lengthAdjust="spacing" textLength="32" x="208.5" y="555.1074">Color</text><line style="stroke:#A80036;stroke-width:1.5;" x1="178" x2="245" y1="562.9375" y2="562.9375"/><line style="stroke:#A80036;stroke-width:1.5;" x1="178" x2="245" y1="570.9375" y2="570.9375"/><!--MD5=[47c371471411cfedeee61b1a5bdaee47]
class StartController--><rect codeLine="4" fill="#FEFECE" filter="url(#f5z7ol0dasxsm)" height="53.9375" id="StartController" style="stroke:#A80036;stroke-width:1.5;" width="119" x="943" y="401"/><ellipse cx="958" cy="419.9688" fill="#ADD1B2" rx="11" ry="11" style="stroke:#A80036;stroke-width:1.0;"/><path d="M960.3438,415.6406 C959.4063,415.2031 958.8125,415.0625 957.9375,415.0625 C955.3125,415.0625 953.3125,417.1406 953.3125,419.8594 L953.3125,420.9844 C953.3125,423.5625 955.4219,425.4531 958.3125,425.4531 C959.5313,425.4531 960.6875,425.1563 961.4375,424.6094 C962.0156,424.2031 962.3438,423.75 962.3438,423.3594 C962.3438,422.9063 961.9531,422.5156 961.4844,422.5156 C961.2656,422.5156 961.0625,422.5938 960.875,422.7813 C960.4219,423.2656 960.4219,423.2656 960.2344,423.3594 C959.8125,423.625 959.125,423.75 958.3594,423.75 C956.3125,423.75 955.0156,422.6563 955.0156,420.9531 L955.0156,419.8594 C955.0156,418.0781 956.2656,416.7656 958,416.7656 C958.5781,416.7656 959.1875,416.9219 959.6563,417.1719 C960.1406,417.4531 960.3125,417.6719 960.4063,418.0781 C960.4688,418.4844 960.5,418.6094 960.6406,418.7344 C960.7813,418.875 961.0156,418.9844 961.2344,418.9844 C961.5,418.9844 961.7656,418.8438 961.9375,418.625 C962.0469,418.4688 962.0781,418.2813 962.0781,417.8594 L962.0781,416.4375 C962.0781,416 962.0625,415.875 961.9688,415.7188 C961.8125,415.4531 961.5313,415.3125 961.2344,415.3125 C960.9375,415.3125 960.7344,415.4063 960.5156,415.7188 L960.3438,415.6406 Z " fill="#000000"/><text fill="#000000" font-family="sans-serif" font-size="12" lengthAdjust="spacing" textLength="68" x="981.5" y="417.1387">controllers.</text><text fill="#000000" font-family="sans-serif" font-size="12" lengthAdjust="spacing" textLength="87" x="972" y="431.1074">StartController</text><line style="stroke:#A80036;stroke-width:1.5;" x1="944" x2="1061" y1="438.9375" y2="438.9375"/><line style="stroke:#A80036;stroke-width:1.5;" x1="944" x2="1061" y1="446.9375" y2="446.9375"/><!--MD5=[cc8600b868f8dfab2c8d497bce62f90a]
class PlayController--><rect codeLine="5" fill="#FEFECE" filter="url(#f5z7ol0dasxsm)" height="53.9375" id="PlayController" style="stroke:#A80036;stroke-width:1.5;" width="114" x="1013.5" y="273.5"/><ellipse cx="1028.5" cy="292.4688" fill="#ADD1B2" rx="11" ry="11" style="stroke:#A80036;stroke-width:1.0;"/><path d="M1030.8438,288.1406 C1029.9063,287.7031 1029.3125,287.5625 1028.4375,287.5625 C1025.8125,287.5625 1023.8125,289.6406 1023.8125,292.3594 L1023.8125,293.4844 C1023.8125,296.0625 1025.9219,297.9531 1028.8125,297.9531 C1030.0313,297.9531 1031.1875,297.6563 1031.9375,297.1094 C1032.5156,296.7031 1032.8438,296.25 1032.8438,295.8594 C1032.8438,295.4063 1032.4531,295.0156 1031.9844,295.0156 C1031.7656,295.0156 1031.5625,295.0938 1031.375,295.2813 C1030.9219,295.7656 1030.9219,295.7656 1030.7344,295.8594 C1030.3125,296.125 1029.625,296.25 1028.8594,296.25 C1026.8125,296.25 1025.5156,295.1563 1025.5156,293.4531 L1025.5156,292.3594 C1025.5156,290.5781 1026.7656,289.2656 1028.5,289.2656 C1029.0781,289.2656 1029.6875,289.4219 1030.1563,289.6719 C1030.6406,289.9531 1030.8125,290.1719 1030.9063,290.5781 C1030.9688,290.9844 1031,291.1094 1031.1406,291.2344 C1031.2813,291.375 1031.5156,291.4844 1031.7344,291.4844 C1032,291.4844 1032.2656,291.3438 1032.4375,291.125 C1032.5469,290.9688 1032.5781,290.7813 1032.5781,290.3594 L1032.5781,288.9375 C1032.5781,288.5 1032.5625,288.375 1032.4688,288.2188 C1032.3125,287.9531 1032.0313,287.8125 1031.7344,287.8125 C1031.4375,287.8125 1031.2344,287.9063 1031.0156,288.2188 L1030.8438,288.1406 Z " fill="#000000"/><text fill="#000000" font-family="sans-serif" font-size="12" lengthAdjust="spacing" textLength="68" x="1049.5" y="289.6387">controllers.</text><text fill="#000000" font-family="sans-serif" font-size="12" lengthAdjust="spacing" textLength="82" x="1042.5" y="303.6074">PlayController</text><line style="stroke:#A80036;stroke-width:1.5;" x1="1014.5" x2="1126.5" y1="311.4375" y2="311.4375"/><line style="stroke:#A80036;stroke-width:1.5;" x1="1014.5" x2="1126.5" y1="319.4375" y2="319.4375"/><!--MD5=[1a47bbf44ccee225df9b18c5b6629853]
class ResumeController--><rect codeLine="6" fill="#FEFECE" filter="url(#f5z7ol0dasxsm)" height="53.9375" id="ResumeController" style="stroke:#A80036;stroke-width:1.5;" width="139" x="7" y="401"/><ellipse cx="22" cy="419.9688" fill="#ADD1B2" rx="11" ry="11" style="stroke:#A80036;stroke-width:1.0;"/><path d="M24.3438,415.6406 C23.4063,415.2031 22.8125,415.0625 21.9375,415.0625 C19.3125,415.0625 17.3125,417.1406 17.3125,419.8594 L17.3125,420.9844 C17.3125,423.5625 19.4219,425.4531 22.3125,425.4531 C23.5313,425.4531 24.6875,425.1563 25.4375,424.6094 C26.0156,424.2031 26.3438,423.75 26.3438,423.3594 C26.3438,422.9063 25.9531,422.5156 25.4844,422.5156 C25.2656,422.5156 25.0625,422.5938 24.875,422.7813 C24.4219,423.2656 24.4219,423.2656 24.2344,423.3594 C23.8125,423.625 23.125,423.75 22.3594,423.75 C20.3125,423.75 19.0156,422.6563 19.0156,420.9531 L19.0156,419.8594 C19.0156,418.0781 20.2656,416.7656 22,416.7656 C22.5781,416.7656 23.1875,416.9219 23.6563,417.1719 C24.1406,417.4531 24.3125,417.6719 24.4063,418.0781 C24.4688,418.4844 24.5,418.6094 24.6406,418.7344 C24.7813,418.875 25.0156,418.9844 25.2344,418.9844 C25.5,418.9844 25.7656,418.8438 25.9375,418.625 C26.0469,418.4688 26.0781,418.2813 26.0781,417.8594 L26.0781,416.4375 C26.0781,416 26.0625,415.875 25.9688,415.7188 C25.8125,415.4531 25.5313,415.3125 25.2344,415.3125 C24.9375,415.3125 24.7344,415.4063 24.5156,415.7188 L24.3438,415.6406 Z " fill="#000000"/><text fill="#000000" font-family="sans-serif" font-size="12" lengthAdjust="spacing" textLength="68" x="55.5" y="417.1387">controllers.</text><text fill="#000000" font-family="sans-serif" font-size="12" lengthAdjust="spacing" textLength="107" x="36" y="431.1074">ResumeController</text><line style="stroke:#A80036;stroke-width:1.5;" x1="8" x2="145" y1="438.9375" y2="438.9375"/><line style="stroke:#A80036;stroke-width:1.5;" x1="8" x2="145" y1="446.9375" y2="446.9375"/><!--MD5=[67c5dbc5f258340ee2b7aaadfd6765aa]
link views.PlayerView to views.StartView--><path codeLine="49" d="M606.5,101.038 C606.5,101.038 606.5,124.562 606.5,135.634 " fill="none" id="views.PlayerView-views.StartView" style="stroke:#A80036;stroke-width:1.0;"/><polygon fill="#A80036" points="606.5,148.65,610.5,139.65,606.5,143.65,602.5,139.65,606.5,148.65" style="stroke:#A80036;stroke-width:1.0;"/><line style="stroke:#A80036;stroke-width:1.0;" x1="606.5" x2="606.5" y1="143.65" y2="135.65"/><polygon fill="#A80036" points="606.5,89.038,602.5,95.038,606.5,101.038,610.5,95.038,606.5,89.038" style="stroke:#A80036;stroke-width:1.0;"/><!--MD5=[9911ff4f94ad66318e9363318070f9b5]
link views.PlayerView to views.PlayView--><path codeLine="50" d="M652.2081,95.5535 C652.2081,95.5535 700.707,126.91 723.436,141.605 " fill="none" id="views.PlayerView-views.PlayView" style="stroke:#A80036;stroke-width:1.0;"/><polygon fill="#A80036" points="734.655,148.859,729.269,140.6134,730.4562,146.1442,724.9253,147.3315,734.655,148.859" style="stroke:#A80036;stroke-width:1.0;"/><line style="stroke:#A80036;stroke-width:1.0;" x1="730.4562" x2="723.7375" y1="146.1442" y2="141.8"/><polygon fill="#A80036" points="642.131,89.038,644.9978,95.6548,652.2081,95.5535,649.3414,88.9367,642.131,89.038" style="stroke:#A80036;stroke-width:1.0;"/><!--MD5=[ebea6b3e947d8b3c55735d694b4eb772]
link views.PlayerView to views.ResumeView--><path codeLine="51" d="M572.2445,97.3387 C572.2445,97.3387 535.535,131.847 518.5,149 C482.013,185.739 441.912,229.18 414.015,259.923 " fill="none" id="views.PlayerView-views.ResumeView" style="stroke:#A80036;stroke-width:1.0;"/><polygon fill="#A80036" points="405.045,269.834,414.0499,265.845,408.4,266.1268,408.1183,260.4769,405.045,269.834" style="stroke:#A80036;stroke-width:1.0;"/><line style="stroke:#A80036;stroke-width:1.0;" x1="408.4" x2="413.7685" y1="266.1268" y2="260.195"/><polygon fill="#A80036" points="581.048,89.184,573.928,90.3269,572.2445,97.3387,579.3645,96.1958,581.048,89.184" style="stroke:#A80036;stroke-width:1.0;"/><!--MD5=[8507262084d539f4882e2752de5479e8]
link views.StartView to views.Message--><path codeLine="52" d="M587.336,210.23 C576.198,227.599 561.948,249.974 549.5,270 C532.76,296.93 530.429,304.847 512.5,331 C499.666,349.721 484.51,369.708 471.268,386.571 " fill="none" id="views.StartView-to-views.Message" style="stroke:#A80036;stroke-width:1.0;stroke-dasharray:7.0,7.0;"/><polygon fill="#A80036" points="467.945,390.788,476.6569,386.1943,471.0395,386.8606,470.3731,381.2432,467.945,390.788" style="stroke:#A80036;stroke-width:1.0;"/><!--MD5=[1b8a73df775c8bac903591bf669c8c66]
link views.StartView to views.BoardView--><path codeLine="53" d="M614.742,210.222 C619.31,226.692 625.014,247.264 629.796,264.508 " fill="none" id="views.StartView-to-views.BoardView" style="stroke:#A80036;stroke-width:1.0;stroke-dasharray:7.0,7.0;"/><polygon fill="#A80036" points="631.249,269.745,632.6995,260.0035,629.9134,264.9267,624.9902,262.1406,631.249,269.745" style="stroke:#A80036;stroke-width:1.0;"/><!--MD5=[93bed1ef04018f79b273cd77ea9f0db2]
link views.StartView to StartController--><path codeLine="54" d="M677.449,204.754 C683.202,206.577 688.939,208.348 694.5,210 C796.181,240.209 843.319,202.934 925.5,270 C965.068,302.291 985.883,359.939 995.506,395.675 " fill="none" id="views.StartView-to-StartController" style="stroke:#A80036;stroke-width:1.0;"/><polygon fill="#A80036" points="996.845,400.783,998.4311,391.0627,995.5766,395.9466,990.6927,393.0921,996.845,400.783" style="stroke:#A80036;stroke-width:1.0;"/><!--MD5=[ebadaef8e2bbd4ba1e726984e015cfbe]
link views.BoardView to views.ColorView--><path codeLine="55" d="M621.489,331.242 C610.226,349.841 595.687,373.848 583.985,393.172 " fill="none" id="views.BoardView-to-views.ColorView" style="stroke:#A80036;stroke-width:1.0;stroke-dasharray:7.0,7.0;"/><polygon fill="#A80036" points="581.382,397.472,589.4654,391.8454,583.9719,393.195,582.6222,387.7015,581.382,397.472" style="stroke:#A80036;stroke-width:1.0;"/><!--MD5=[095a9e8630f04b2395f4481b19b8906e]
link views.BoardView to views.Message--><path codeLine="56" d="M592.12,331.083 C560.241,350.987 518.356,377.14 486.374,397.108 " fill="none" id="views.BoardView-to-views.Message" style="stroke:#A80036;stroke-width:1.0;stroke-dasharray:7.0,7.0;"/><polygon fill="#A80036" points="482.128,399.76,491.8805,398.3858,486.369,397.1117,487.6432,391.6002,482.128,399.76" style="stroke:#A80036;stroke-width:1.0;"/><!--MD5=[f9d7272086e8e62f4b793c0eb33c0b4b]
link views.PlayView to views.Message--><path codeLine="57" d="M778.404,210.133 C774.387,244.16 762.672,299.345 728.5,331 C651.315,402.5 596.624,350.542 499.5,391 C495.249,392.771 490.935,394.794 486.67,396.958 " fill="none" id="views.PlayView-to-views.Message" style="stroke:#A80036;stroke-width:1.0;stroke-dasharray:7.0,7.0;"/><polygon fill="#A80036" points="482.065,399.356,491.8949,398.7454,486.4994,397.046,488.1988,391.6504,482.065,399.356" style="stroke:#A80036;stroke-width:1.0;"/><!--MD5=[a9b9099bd570987dc5af9f0e9221dc51]
link views.PlayView to views.BoardView--><path codeLine="58" d="M745.283,210.222 C725.011,227.331 699.494,248.866 678.601,266.5 " fill="none" id="views.PlayView-to-views.BoardView" style="stroke:#A80036;stroke-width:1.0;stroke-dasharray:7.0,7.0;"/><polygon fill="#A80036" points="674.756,269.745,684.2141,266.9984,678.5775,266.5207,679.0552,260.884,674.756,269.745" style="stroke:#A80036;stroke-width:1.0;"/><!--MD5=[5def075edf52364bac0be7f62eb4aa14]
link views.PlayView to views.MovementView--><path codeLine="59" d="M796.735,210.222 C805.809,226.834 817.162,247.619 826.63,264.953 " fill="none" id="views.PlayView-to-views.MovementView" style="stroke:#A80036;stroke-width:1.0;stroke-dasharray:7.0,7.0;"/><polygon fill="#A80036" points="829.247,269.745,828.4431,259.929,826.8501,265.3569,821.4222,263.764,829.247,269.745" style="stroke:#A80036;stroke-width:1.0;"/><!--MD5=[bc8a2baa650750752d6e88c509172a1c]
link views.MovementView to views.ErrorView--><path codeLine="60" d="M848.581,331.242 C850.475,349.528 852.911,373.043 854.895,392.194 " fill="none" id="views.MovementView-to-views.ErrorView" style="stroke:#A80036;stroke-width:1.0;stroke-dasharray:7.0,7.0;"/><polygon fill="#A80036" points="855.441,397.472,858.4916,388.1075,854.9254,392.4987,850.5342,388.9325,855.441,397.472" style="stroke:#A80036;stroke-width:1.0;"/><!--MD5=[43dd04138dcca8bbc729df36fdc1a987]
link views.ResumeView to views.Message--><path codeLine="61" d="M392.719,331.242 C400.511,347.541 410.289,367.993 418.806,385.807 " fill="none" id="views.ResumeView-to-views.Message" style="stroke:#A80036;stroke-width:1.0;stroke-dasharray:7.0,7.0;"/><polygon fill="#A80036" points="421.172,390.755,420.9009,380.9099,419.0163,386.2436,413.6826,384.359,421.172,390.755" style="stroke:#A80036;stroke-width:1.0;"/><!--MD5=[8d2fcd9f8b54ab010933e46bca6b06e9]
link views.ResumeView to ResumeController--><path codeLine="62" d="M307.313,331.083 C257.899,351.617 192.484,378.801 143.914,398.985 " fill="none" id="views.ResumeView-to-ResumeController" style="stroke:#A80036;stroke-width:1.0;"/><polygon fill="#A80036" points="139.268,400.916,149.1139,401.1563,143.8852,398.9974,146.0441,393.7687,139.268,400.916" style="stroke:#A80036;stroke-width:1.0;"/><!--MD5=[27a8688df1a7e86c1bc534b33dd7c1a1]
link views.BoardView to Coordinate--><path codeLine="63" d="M567.424,319.069 C474.355,342.094 323.298,380.755 315.5,391 C286.952,428.503 306.885,485.4164 324.084,520.2912 " fill="none" id="views.BoardView-to-Coordinate" style="stroke:#A80036;stroke-width:1.0;stroke-dasharray:7.0,7.0;"/><polygon fill="#A80036" points="326.379,524.8516,325.9051,515.0141,324.1308,520.3855,318.7594,518.6112,326.379,524.8516" style="stroke:#A80036;stroke-width:1.0;"/><!--MD5=[b764f77f6244594f93a2b8a31497368e]
link views.MovementView to Coordinate--><path codeLine="64" d="M783.471,318.094 C765.777,322.567 746.434,327.212 728.5,331 C573.653,363.704 492.281,282.039 377.5,391 C342.565,424.164 338.082,483.3717 339.059,519.7172 " fill="none" id="views.MovementView-to-Coordinate" style="stroke:#A80036;stroke-width:1.0;stroke-dasharray:7.0,7.0;"/><polygon fill="#A80036" points="339.24,524.9079,342.9241,515.7741,339.0659,519.9109,334.929,516.0527,339.24,524.9079" style="stroke:#A80036;stroke-width:1.0;"/><!--MD5=[58ce7257e9fedcdfac65620a403e3cb0]
link views.BoardView to StartController--><path codeLine="65" d="M711.529,321.551 C769.441,338.303 852.552,363.772 923.5,391 C929.779,393.41 936.27,396.073 942.708,398.829 " fill="none" id="views.BoardView-to-StartController" style="stroke:#A80036;stroke-width:1.0;stroke-dasharray:7.0,7.0;"/><polygon fill="#A80036" points="947.616,400.952,940.943,393.7083,943.0267,398.9674,937.7676,401.0512,947.616,400.952" style="stroke:#A80036;stroke-width:1.0;"/><!--MD5=[a52d604b77424a58e07034fe9d0c7f45]
link views.BoardView to Color--><path codeLine="66" d="M567.364,318.565 C469.181,342.023 304.337,382.323 293.5,391 C252.279,424.005 229.728,483.2643 219.174,519.6626 " fill="none" id="views.BoardView-to-Color" style="stroke:#A80036;stroke-width:1.0;stroke-dasharray:7.0,7.0;"/><polygon fill="#A80036" points="217.703,524.8611,224.0023,517.2902,219.0643,520.05,216.3045,515.112,217.703,524.8611" style="stroke:#A80036;stroke-width:1.0;"/><!--MD5=[339a50df6252398807c660c3d38a675e]
link views.MovementView to Error--><path codeLine="67" d="M907.751,316.791 C970.033,333.499 1059.4,361.798 1079.5,391 C1104.19,426.88 1100.05,450.598 1079.5,489 C1068.14,510.2243 1045.95,525.4377 1026.1,535.4818 " fill="none" id="views.MovementView-to-Error" style="stroke:#A80036;stroke-width:1.0;stroke-dasharray:7.0,7.0;"/><polygon fill="#A80036" points="1021.37,537.7982,1031.212,537.4296,1025.8599,535.5979,1027.6915,530.2458,1021.37,537.7982" style="stroke:#A80036;stroke-width:1.0;"/><!--MD5=[4874983008fa1a0e6fd69efc7cf96bbe]
link views.ErrorView to Error--><path codeLine="68" d="M889.485,458.533 C909.323,477.441 934.989,501.9039 954.939,520.9182 " fill="none" id="views.ErrorView-to-Error" style="stroke:#A80036;stroke-width:1.0;stroke-dasharray:7.0,7.0;"/><polygon fill="#A80036" points="958.849,524.6452,955.0944,515.5401,955.2298,521.1953,949.5746,521.3307,958.849,524.6452" style="stroke:#A80036;stroke-width:1.0;"/><!--MD5=[13fa1849fb47ff0ddb9bf29562c915bb]
link views.PlayView to PlayController--><path codeLine="69" d="M848.859,208.551 C898.928,229.096 966.106,256.662 1013.33,276.042 " fill="none" id="views.PlayView-PlayController" style="stroke:#A80036;stroke-width:1.0;"/><!--MD5=[dd562b49b70ad482277daba60c47d936]
link views.ColorView to Color--><path codeLine="70" d="M538.869,458.713 C527.967,469.948 514.269,481.758 499.5,489 C408.572,533.5873 371.966,497.497 274.5,525 C266.767,527.1821 258.704,530.036 251.03,533.0517 " fill="none" id="views.ColorView-to-Color" style="stroke:#A80036;stroke-width:1.0;stroke-dasharray:7.0,7.0;"/><polygon fill="#A80036" points="246.308,534.9457,256.1502,535.3076,250.9486,533.0843,253.1719,527.8826,246.308,534.9457" style="stroke:#A80036;stroke-width:1.0;"/><!--MD5=[ab0ec5f63c56da24f261b966745afc63]
link views.CoordinateView to Coordinate--><path codeLine="71" d="M675.598,458.76 C661.543,469.726 644.554,481.3314 627.5,489 C551.373,523.2327 455.165,539.0622 396.004,546.0103 " fill="none" id="views.CoordinateView-to-Coordinate" style="stroke:#A80036;stroke-width:1.0;stroke-dasharray:7.0,7.0;"/><polygon fill="#A80036" points="390.75,546.6154,400.149,549.5579,395.7171,546.0426,399.2325,541.6106,390.75,546.6154" style="stroke:#A80036;stroke-width:1.0;"/><!--MD5=[520b71290d2efd547a67b9a059ddf5cb]
link views.MovementView to views.CoordinateView--><path codeLine="72" d="M813.27,331.242 C792.861,350.075 766.442,374.455 745.369,393.901 " fill="none" id="views.MovementView-to-views.CoordinateView" style="stroke:#A80036;stroke-width:1.0;stroke-dasharray:7.0,7.0;"/><polygon fill="#A80036" points="741.499,397.472,750.8261,394.309,745.1738,394.0815,745.4013,388.4292,741.499,397.472" style="stroke:#A80036;stroke-width:1.0;"/><!--MD5=[23937779524699c65b6789669f6bbe93]
@startuml
class Coordinate as "types.\nCoordinate"
enum Error as "types.\nError"
enum Color as "types.\nColor"
class StartController as "controllers.\nStartController"
class PlayController as "controllers.\nPlayController"
class ResumeController as "controllers.\nResumeController"

class  views.BoardView{
    ~ write(StartController)
}

class  views.ErrorView{
    ~ writeln(Error)
}

class  views.PlayView{
    ~ play(PlayController)
}

class  views.ResumeView{
    ~ resume(ResumeController): boolean
}

class views.StartView{
    ~ start(StartController)
}

class  views.MovementView{
    ~ interact()
}

class  views.ColorView{
    ~ write(Color)
}

enum  views.Message{
    ~ writeln()
    ~ write()
}

class  views.PlayerView{
    
}

class  views.CoordinateView{
    ~ read(): Coordinate
}

views.PlayerView *-down-> views.StartView
views.PlayerView *-down-> views.PlayView
views.PlayerView *-down-> views.ResumeView
views.StartView ..> views.Message
views.StartView ..> views.BoardView
views.StartView -down-> StartController
views.BoardView ..> views.ColorView
views.BoardView ..> views.Message
views.PlayView ..> views.Message
views.PlayView ..> views.BoardView
views.PlayView ..> views.MovementView
views.MovementView ..> views.ErrorView
views.ResumeView ..> views.Message
views.ResumeView -down-> ResumeController
views.BoardView .down.> Coordinate
views.MovementView .down.> Coordinate
views.BoardView .down.> StartController
views.BoardView .down.> Color
views.MovementView .down.> Error
views.ErrorView .down.> Error
views.PlayView -down- PlayController
views.ColorView .down.> Color
views.CoordinateView .down.> Coordinate
views.MovementView ..> views.CoordinateView
@enduml

PlantUML version 1.2021.4beta1(Unknown compile time)
(GPL source distribution)
Java Runtime: Java(TM) SE Runtime Environment
JVM: Java HotSpot(TM) 64-Bit Server VM
Default Encoding: UTF-8
Language: en
Country: US
--></g></svg>