<?xml version="1.0" encoding="UTF-8" standalone="no"?><svg xmlns="http://www.w3.org/2000/svg" xmlns:xlink="http://www.w3.org/1999/xlink" contentScriptType="application/ecmascript" contentStyleType="text/css" height="431px" preserveAspectRatio="none" style="width:236px;height:431px;" version="1.1" viewBox="0 0 236 431" width="236px" zoomAndPan="magnify"><defs><filter height="300%" id="f1ultiv4sp7pbm" width="300%" x="-1" y="-1"><feGaussianBlur result="blurOut" stdDeviation="2.0"/><feColorMatrix in="blurOut" result="blurOut2" type="matrix" values="0 0 0 0 0 0 0 0 0 0 0 0 0 0 0 0 0 0 .4 0"/><feOffset dx="4.0" dy="4.0" in="blurOut2" result="blurOut3"/><feBlend in="SourceGraphic" in2="blurOut3" mode="normal"/></filter></defs><g><!--MD5=[de2effd8dc5bf946a609466312d0f75f]
entity Player--><ellipse cx="28" cy="181.5" fill="#FEFECE" filter="url(#f1ultiv4sp7pbm)" rx="8" ry="8" style="stroke: #A80036; stroke-width: 1.5;"/><path d="M28,189.5 L28,216.5 M15,197.5 L41,197.5 M28,216.5 L15,231.5 M28,216.5 L41,231.5 " fill="none" filter="url(#f1ultiv4sp7pbm)" style="stroke: #A80036; stroke-width: 1.5;"/><text fill="#000000" font-family="sans-serif" font-size="14" lengthAdjust="spacingAndGlyphs" textLength="44" x="6" y="249.9951">Player</text><ellipse cx="167.663" cy="20.5236" fill="#FEFECE" filter="url(#f1ultiv4sp7pbm)" rx="29.163" ry="14.5236" style="stroke: #A80036; stroke-width: 1.5;"/><text fill="#000000" font-family="sans-serif" font-size="14" lengthAdjust="spacingAndGlyphs" textLength="37" x="149.163" y="25.1721">Start</text><ellipse cx="167.4472" cy="84.5236" fill="#FEFECE" filter="url(#f1ultiv4sp7pbm)" rx="57.4472" ry="14.5236" style="stroke: #A80036; stroke-width: 1.5;"/><text fill="#000000" font-family="sans-serif" font-size="14" lengthAdjust="spacingAndGlyphs" textLength="77" x="128.9472" y="89.1721">Movement</text><ellipse cx="167.4558" cy="148.5236" fill="#FEFECE" filter="url(#f1ultiv4sp7pbm)" rx="28.4558" ry="14.5236" style="stroke: #A80036; stroke-width: 1.5;"/><text fill="#000000" font-family="sans-serif" font-size="14" lengthAdjust="spacingAndGlyphs" textLength="36" x="149.4558" y="153.1721">Undo</text><ellipse cx="167.663" cy="212.5236" fill="#FEFECE" filter="url(#f1ultiv4sp7pbm)" rx="29.163" ry="14.5236" style="stroke: #A80036; stroke-width: 1.5;"/><text fill="#000000" font-family="sans-serif" font-size="14" lengthAdjust="spacingAndGlyphs" textLength="37" x="149.163" y="217.1721">Redo</text><ellipse cx="167.299" cy="276.5236" fill="#FEFECE" filter="url(#f1ultiv4sp7pbm)" rx="22.799" ry="14.5236" style="stroke: #A80036; stroke-width: 1.5;"/><text fill="#000000" font-family="sans-serif" font-size="14" lengthAdjust="spacingAndGlyphs" textLength="28" x="153.299" y="281.1721">Exit</text><ellipse cx="167.5416" cy="340.5236" fill="#FEFECE" filter="url(#f1ultiv4sp7pbm)" rx="27.0416" ry="14.5236" style="stroke: #A80036; stroke-width: 1.5;"/><text fill="#000000" font-family="sans-serif" font-size="14" lengthAdjust="spacingAndGlyphs" textLength="34" x="150.5416" y="345.1721">Save</text><ellipse cx="167.3051" cy="404.5236" fill="#FEFECE" filter="url(#f1ultiv4sp7pbm)" rx="43.3051" ry="14.5236" style="stroke: #A80036; stroke-width: 1.5;"/><text fill="#000000" font-family="sans-serif" font-size="14" lengthAdjust="spacingAndGlyphs" textLength="57" x="138.8051" y="409.1721">Resume</text><!--MD5=[39353cd92ba960c69c4d2a9385fee2c7]
link Player to Start--><path d="M42.0658,171.687 C54.8974,136.723 77.3268,86.735 110,52.5 C118.302,43.801 129.494,36.796 139.727,31.583 " fill="none" id="Player-to-Start" style="stroke: #A80036; stroke-width: 1.0;"/><polygon fill="#A80036" points="144.347,29.315,134.5053,29.6905,139.8587,31.5184,138.0308,36.8718,144.347,29.315" style="stroke: #A80036; stroke-width: 1.0;"/><!--MD5=[1e5622e419e61827803d8907ecf40cdc]
link Player to Movement--><path d="M50.0024,182.362 C65.1129,162.112 86.8412,135.717 110,116.5 C117.466,110.305 126.298,104.658 134.733,99.892 " fill="none" id="Player-to-Movement" style="stroke: #A80036; stroke-width: 1.0;"/><polygon fill="#A80036" points="139.368,97.337,129.5554,98.1812,134.9898,99.7519,133.4192,105.1863,139.368,97.337" style="stroke: #A80036; stroke-width: 1.0;"/><!--MD5=[0380c48cc03698e9c08b2a5affc527cb]
link Player to Undo--><path d="M50.183,202.64 C74.7206,191.219 115.114,172.418 141.258,160.249 " fill="none" id="Player-to-Undo" style="stroke: #A80036; stroke-width: 1.0;"/><polygon fill="#A80036" points="145.967,158.057,136.1196,158.2287,141.434,160.167,139.4957,165.4814,145.967,158.057" style="stroke: #A80036; stroke-width: 1.0;"/><!--MD5=[714833a1def7c2d3f9278f33fd9da27b]
link Player to Redo--><path d="M50.183,212.5 C72.3588,212.5 107.485,212.5 133.34,212.5 " fill="none" id="Player-to-Redo" style="stroke: #A80036; stroke-width: 1.0;"/><polygon fill="#A80036" points="138.381,212.5,129.381,208.5,133.381,212.5,129.381,216.5,138.381,212.5" style="stroke: #A80036; stroke-width: 1.0;"/><!--MD5=[8e8f658c86bf230e4048e4af0c39e552]
link Player to Exit--><path d="M50.183,222.36 C75.5716,234.177 117.935,253.895 143.926,265.993 " fill="none" id="Player-to-Exit" style="stroke: #A80036; stroke-width: 1.0;"/><polygon fill="#A80036" points="148.58,268.159,142.1087,260.7346,144.047,266.049,138.7326,267.9873,148.58,268.159" style="stroke: #A80036; stroke-width: 1.0;"/><!--MD5=[4b15e63cbdec9d7363171c88be305ecc]
link Player to Save--><path d="M50.0024,242.638 C65.1129,262.888 86.8412,289.283 110,308.5 C119.554,316.428 131.345,323.4571 141.679,328.8935 " fill="none" id="Player-to-Save" style="stroke: #A80036; stroke-width: 1.0;"/><polygon fill="#A80036" points="146.312,331.2767,140.1386,323.6028,141.8658,328.9895,136.4791,330.7167,146.312,331.2767" style="stroke: #A80036; stroke-width: 1.0;"/><!--MD5=[5fec2ab2a197ce562aec9d83f689b0ce]
link Player to Resume--><path d="M42.0658,253.313 C54.8974,288.277 77.3268,338.2645 110,372.5 C116.961,379.7938 125.954,385.8969 134.71,390.7512 " fill="none" id="Player-to-Resume" style="stroke: #A80036; stroke-width: 1.0;"/><polygon fill="#A80036" points="139.536,393.3191,133.4696,385.5603,135.1219,390.9705,129.7118,392.6229,139.536,393.3191" style="stroke: #A80036; stroke-width: 1.0;"/><!--MD5=[5d378dee1f57c93971e11692efce82f9]
@startuml
left to right direction
actor Player
usecase Start
usecase Movement
usecase Undo
usecase Redo
usecase Exit
usecase Save
usecase Resume

Player - -> Start
Player - -> Movement
Player - -> Undo
Player - -> Redo
Player - -> Exit
Player - -> Save
Player - -> Resume
@enduml

PlantUML version 1.2020.20beta11(Unknown compile time)
(GPL source distribution)
Java Runtime: Java(TM) SE Runtime Environment
JVM: Java HotSpot(TM) 64-Bit Server VM
Default Encoding: UTF-8
Language: en
Country: US
--></g></svg>