<?xml version="1.0" encoding="UTF-8" standalone="no"?><svg xmlns="http://www.w3.org/2000/svg" xmlns:xlink="http://www.w3.org/1999/xlink" contentScriptType="application/ecmascript" contentStyleType="text/css" height="754px" preserveAspectRatio="none" style="width:669px;height:754px;" version="1.1" viewBox="0 0 669 754" width="669px" zoomAndPan="magnify"><defs><filter height="300%" id="fewbk8qsuu86t" width="300%" x="-1" y="-1"><feGaussianBlur result="blurOut" stdDeviation="2.0"/><feColorMatrix in="blurOut" result="blurOut2" type="matrix" values="0 0 0 0 0 0 0 0 0 0 0 0 0 0 0 0 0 0 .4 0"/><feOffset dx="4.0" dy="4.0" in="blurOut2" result="blurOut3"/><feBlend in="SourceGraphic" in2="blurOut3" mode="normal"/></filter></defs><g><g id="State0"><rect fill="#FEFECE" filter="url(#fewbk8qsuu86t)" height="50" rx="12.5" ry="12.5" style="stroke: #A80036; stroke-width: 1.5;" width="50" x="444" y="87"/><line style="stroke: #A80036; stroke-width: 1.5;" x1="444" x2="494" y1="113.2969" y2="113.2969"/><text fill="#000000" font-family="sans-serif" font-size="14" lengthAdjust="spacingAndGlyphs" textLength="0" x="471" y="104.9951"/></g><g id="State1"><rect fill="#FEFECE" filter="url(#fewbk8qsuu86t)" height="50" rx="12.5" ry="12.5" style="stroke: #A80036; stroke-width: 1.5;" width="50" x="7" y="214"/><line style="stroke: #A80036; stroke-width: 1.5;" x1="7" x2="57" y1="240.2969" y2="240.2969"/><text fill="#000000" font-family="sans-serif" font-size="14" lengthAdjust="spacingAndGlyphs" textLength="0" x="34" y="231.9951"/></g><g id="State2"><rect fill="#FEFECE" filter="url(#fewbk8qsuu86t)" height="50" rx="12.5" ry="12.5" style="stroke: #A80036; stroke-width: 1.5;" width="50" x="507" y="595"/><line style="stroke: #A80036; stroke-width: 1.5;" x1="507" x2="557" y1="621.2969" y2="621.2969"/><text fill="#000000" font-family="sans-serif" font-size="14" lengthAdjust="spacingAndGlyphs" textLength="0" x="534" y="612.9951"/></g><g id="State3"><rect fill="#FEFECE" filter="url(#fewbk8qsuu86t)" height="50" rx="12.5" ry="12.5" style="stroke: #A80036; stroke-width: 1.5;" width="50" x="73" y="341"/><line style="stroke: #A80036; stroke-width: 1.5;" x1="73" x2="123" y1="367.2969" y2="367.2969"/><text fill="#000000" font-family="sans-serif" font-size="14" lengthAdjust="spacingAndGlyphs" textLength="0" x="100" y="358.9951"/></g><g id="State4"><rect fill="#FEFECE" filter="url(#fewbk8qsuu86t)" height="50" rx="12.5" ry="12.5" style="stroke: #A80036; stroke-width: 1.5;" width="50" x="444" y="468"/><line style="stroke: #A80036; stroke-width: 1.5;" x1="444" x2="494" y1="494.2969" y2="494.2969"/><text fill="#000000" font-family="sans-serif" font-size="14" lengthAdjust="spacingAndGlyphs" textLength="0" x="471" y="485.9951"/></g><ellipse cx="469" cy="16" fill="#000000" filter="url(#fewbk8qsuu86t)" rx="10" ry="10" style="stroke: none; stroke-width: 1.0;"/><ellipse cx="532" cy="732" fill="none" filter="url(#fewbk8qsuu86t)" rx="10" ry="10" style="stroke: #000000; stroke-width: 1.0;"/><ellipse cx="532.5" cy="732.5" fill="#000000" rx="6" ry="6" style="stroke: none; stroke-width: 1.0;"/><!--MD5=[6bf52256a5a3d79cde37855053ede169]
link *start to State0--><path d="M469,26.013 C469,38.698 469,62.409 469,81.57 " fill="none" id="*start-to-State0" style="stroke: #A80036; stroke-width: 1.0;"/><polygon fill="#A80036" points="469,86.84,473,77.84,469,81.84,465,77.84,469,86.84" style="stroke: #A80036; stroke-width: 1.0;"/><!--MD5=[a9c2f088fcd292d29c9f53cd9a680591]
link State0 to State1--><path d="M443.935,120.17 C368.602,141.718 144.371,205.857 62.4244,229.297 " fill="none" id="State0-to-State1" style="stroke: #A80036; stroke-width: 1.0;"/><polygon fill="#A80036" points="57.2355,230.782,66.9885,232.1525,62.0427,229.4068,64.7883,224.461,57.2355,230.782" style="stroke: #A80036; stroke-width: 1.0;"/><text fill="#000000" font-family="sans-serif" font-size="13" lengthAdjust="spacingAndGlyphs" textLength="31" x="278" y="180.0669">Start</text><!--MD5=[dcf63a51bdeb3e817e699e6130214cc7]
link State1 to State1--><path d="M57.2777,235.503 C74.7734,234.444 92,235.609 92,239 C92,242.046 78.0949,243.296 62.5823,242.751 " fill="none" id="State1-to-State1" style="stroke: #A80036; stroke-width: 1.0;"/><polygon fill="#A80036" points="57.2777,242.497,66.0761,246.9229,62.272,242.7361,66.4587,238.932,57.2777,242.497" style="stroke: #A80036; stroke-width: 1.0;"/><text fill="#000000" font-family="sans-serif" font-size="13" lengthAdjust="spacingAndGlyphs" textLength="68" x="98" y="243.5669">Movement</text><!--MD5=[dcf63a51bdeb3e817e699e6130214cc7]
link State1 to State1--><path d="M57.3127,234.202 C101.1691,229.045 172,230.645 172,239 C172,247.045 106.3285,248.827 62.3016,244.344 " fill="none" id="State1-to-State1-1" style="stroke: #A80036; stroke-width: 1.0;"/><polygon fill="#A80036" points="57.3127,243.798,65.8239,248.7538,62.283,244.3422,66.6946,240.8013,57.3127,243.798" style="stroke: #A80036; stroke-width: 1.0;"/><text fill="#000000" font-family="sans-serif" font-size="13" lengthAdjust="spacingAndGlyphs" textLength="102" x="178" y="243.5669">[undoable]Undo</text><!--MD5=[dcf63a51bdeb3e817e699e6130214cc7]
link State1 to State1--><path d="M57.2349,233.644 C127.576,223.773 286,225.559 286,239 C286,252.126 134.915,254.137 62.3228,245.03 " fill="none" id="State1-to-State1-2" style="stroke: #A80036; stroke-width: 1.0;"/><polygon fill="#A80036" points="57.2349,244.356,65.6307,249.5048,62.1915,245.0135,66.6827,241.5742,57.2349,244.356" style="stroke: #A80036; stroke-width: 1.0;"/><text fill="#000000" font-family="sans-serif" font-size="13" lengthAdjust="spacingAndGlyphs" textLength="99" x="292" y="243.5669">[redoable]Redo</text><!--MD5=[98642968b161d6b5aa442c8e772df306]
link State1 to State3--><path d="M25.4298,264.19 C22.8584,278.498 21.9751,296.582 29,311 C37.2118,327.854 53.51,340.996 68.2049,350.094 " fill="none" id="State1-to-State3" style="stroke: #A80036; stroke-width: 1.0;"/><polygon fill="#A80036" points="72.7032,352.787,67.036,344.732,68.4133,350.2186,62.9266,351.5959,72.7032,352.787" style="stroke: #A80036; stroke-width: 1.0;"/><text fill="#000000" font-family="sans-serif" font-size="13" lengthAdjust="spacingAndGlyphs" textLength="24" x="30" y="307.0669">Exit</text><!--MD5=[98642968b161d6b5aa442c8e772df306]
link State1 to State3--><path d="M44.7255,264.101 C55.6365,284.766 71.3754,314.575 82.9176,336.435 " fill="none" id="State1-to-State3-1" style="stroke: #A80036; stroke-width: 1.0;"/><polygon fill="#A80036" points="85.3136,340.973,84.649,331.1466,82.9792,336.5514,77.5744,334.8816,85.3136,340.973" style="stroke: #A80036; stroke-width: 1.0;"/><text fill="#000000" font-family="sans-serif" font-size="13" lengthAdjust="spacingAndGlyphs" textLength="85" x="70" y="307.0669">[isTicTacToe]</text><!--MD5=[ba4168f70349cc0467fd74c2e3858fc7]
link State3 to State4--><path d="M123.209,375.493 C189.305,397.763 367.42,457.775 438.804,481.826 " fill="none" id="State3-to-State4" style="stroke: #A80036; stroke-width: 1.0;"/><polygon fill="#A80036" points="443.757,483.495,436.5042,476.8319,439.0185,481.8993,433.9511,484.4136,443.757,483.495" style="stroke: #A80036; stroke-width: 1.0;"/><text fill="#000000" font-family="sans-serif" font-size="13" lengthAdjust="spacingAndGlyphs" textLength="32" x="307" y="434.0669">Save</text><!--MD5=[93b975ae79a95d342785a7ad49888945]
link State0 to State4--><path d="M468.272,137.077 C467.226,174.348 465.48,248.261 466,311 C466.444,364.617 467.629,427.159 468.37,462.916 " fill="none" id="State0-to-State4" style="stroke: #A80036; stroke-width: 1.0;"/><polygon fill="#A80036" points="468.476,467.994,472.2874,458.9125,468.3717,462.9951,464.2891,459.0794,468.476,467.994" style="stroke: #A80036; stroke-width: 1.0;"/><text fill="#000000" font-family="sans-serif" font-size="13" lengthAdjust="spacingAndGlyphs" textLength="85" x="467" y="307.0669">[isTicTacToe]</text><!--MD5=[5e39cec6328142e5e49f463209477919]
link State2 to State0--><path d="M547.13,594.639 C560.869,570.155 579,530.864 579,494 C579,238 579,238 579,238 C579,189.17 531.109,150.357 498.527,129.602 " fill="none" id="State2-to-State0" style="stroke: #A80036; stroke-width: 1.0;"/><polygon fill="#A80036" points="494.236,126.916,499.7416,135.0823,498.4739,129.5693,503.9869,128.3017,494.236,126.916" style="stroke: #A80036; stroke-width: 1.0;"/><text fill="#000000" font-family="sans-serif" font-size="13" lengthAdjust="spacingAndGlyphs" textLength="81" x="580" y="370.5669">[isResumed]</text><!--MD5=[7065fc78f72d7464487d94bfa1e5711f]
link State4 to State2--><path d="M477.656,518.132 C482.958,532.092 490.208,549.842 498,565 C502.359,573.48 507.63,582.361 512.707,590.415 " fill="none" id="State4-to-State2" style="stroke: #A80036; stroke-width: 1.0;"/><polygon fill="#A80036" points="515.5,594.797,514.0332,585.058,512.8115,590.5813,507.2881,589.3596,515.5,594.797" style="stroke: #A80036; stroke-width: 1.0;"/><text fill="#000000" font-family="sans-serif" font-size="13" lengthAdjust="spacingAndGlyphs" textLength="53" x="499" y="561.0669">Resume</text><!--MD5=[37ebb224bae70bf8df0e6bab9d19d55b]
link State2 to *end--><path d="M532,645.14 C532,667.0338 532,698.5738 532,716.7062 " fill="none" id="State2-to-*end" style="stroke: #A80036; stroke-width: 1.0;"/><polygon fill="#A80036" points="532,721.8775,536,712.8775,532,716.8775,528,712.8775,532,721.8775" style="stroke: #A80036; stroke-width: 1.0;"/><text fill="#000000" font-family="sans-serif" font-size="13" lengthAdjust="spacingAndGlyphs" textLength="36" x="533" y="688.0669">[else]</text><!--MD5=[856a3588198c3de78b21970d7aedd5de]
@startuml
state State0 as " "
state State1 as " "
state State2 as " "
state State3 as " "
state State4 as " "

[*] - -> State0
State0 - -> State1 : Start
State1 - -> State1 : Movement
State1 - -> State1 : [undoable]Undo
State1 - -> State1 : [redoable]Redo
State1 - -> State3 : Exit
State3 - -> State4 : Save
State1 - -> State3 : [isTicTacToe]
State0 - -> State4 : [isTicTacToe]
State2 - -> State0 : [isResumed]
State4 - -> State2 : Resume
State2 - -> [*] : [else]
@enduml

PlantUML version 1.2020.20beta11(Unknown compile time)
(GPL source distribution)
Java Runtime: Java(TM) SE Runtime Environment
JVM: Java HotSpot(TM) 64-Bit Server VM
Default Encoding: UTF-8
Language: en
Country: US
--></g></svg>